<?xml version="1.0" encoding="UTF-8"?>
<svg id="Layer_1" data-name="Layer 1" xmlns="http://www.w3.org/2000/svg" viewBox="0 0 25.19 29.19">
  <defs>
    <style>
      .cls-1 {
        fill: #020202;
      }
    </style>
  </defs>
  <path class="cls-1" d="M12.06,0c2.83-.07,5.4,.88,7.45,3.12,2,2.19,3.68,4.59,4.93,7.29,.76,1.63,.91,3.34,.6,5.09-.3,1.65-.64,3.3-1.19,4.89-1.05,3.02-2.93,5.34-5.75,6.88-1.98,1.08-4.09,1.69-6.33,1.86-2.02,.16-4.02,.03-5.93-.7-2.25-.87-3.8-2.49-4.72-4.7C-.09,20.82-.24,17.78,.3,14.72c.58-3.26,1.56-6.43,2.75-9.51C4.23,2.13,6.72,.66,9.87,.16,10.54,.05,11.21,0,12.06,0Z"/>
</svg>