<svg xmlns="http://www.w3.org/2000/svg" viewBox="0 0 672.33 483.23"><g id="Layer_2" data-name="Layer 2"><g id="Layer_1-2" data-name="Layer 1"><path d="M52.72,181.78a36.85,36.85,0,0,1,0,17.22c-1.22,5.21-2.43,10.38-3.67,15.54a57.83,57.83,0,0,0-.27,26.65c1.2,5.3,2.88,10.5,3.84,15.84,1.56,8.61.75,16.86-7,22.42-10.39,7.41-28.18,5.24-34.72-9.66-3.5-8-2.45-16-.56-24.14,2.21-9.45,4.85-18.86,6.14-28.44,1-7.16.17-14.57,0-21.86-.12-5.31-.16-10.58,1.76-15.64,3.4-8.93,9.65-12.31,17.6-12.5,7.5-.17,14.27,5.33,16.65,13.38C52.51,181,52.62,181.38,52.72,181.78Z"/><path d="M96.24,146.31a21.21,21.21,0,0,1,6.07,1,15,15,0,0,1,9.24,7.85,10.44,10.44,0,0,1-4.64,13.78,52.08,52.08,0,0,1-8.12,3.29c-6,1.95-8.72,6.48-9.08,12.88-.34,6-.12,12-.08,18,.08,11.06.33,22.12.29,33.18,0,5.27-.66,10.5-5.37,14.05A12.18,12.18,0,0,1,67.46,248a22.4,22.4,0,0,1-5.15-14.2c0-9.12.5-18.24.71-27.36.19-8.26.39-16.51.35-24.77,0-6.35-3.73-10.25-9-13.24a23.55,23.55,0,0,1-7.14-6.09c-3.94-5.21-1.35-11.28,3.5-14a24.69,24.69,0,0,1,7.16-2.58,22.61,22.61,0,0,1,4.86-.37Z"/><path d="M308.65,129c-.08,5.17-1.22,8.78-4.92,11s-7.44,1.42-10.8-.61a32.07,32.07,0,0,1-6.63-5.51c-4.27-4.6-8.6-9.05-15.27-9.73-6.49-.67-13.27-1.41-19,2.24-3.4,2.16-5.7,6-8.63,9-2.29,2.33-4.48,5-7.26,6.57-7.83,4.36-14.62-2-15.93-8.21-1.12-5.3.52-10.26,2-15.19a475.52,475.52,0,0,1,20.28-52.71c2.44-5.49,4.72-11.09,7.55-16.38,3-5.62,7.62-9.47,14.26-10.18a13.31,13.31,0,0,1,9.19,2.83c5.75,4.06,8.45,10.27,10.66,16.58,4.2,12,7.9,24.23,12.13,36.25,3.22,9.16,7,18.13,10.4,27.23A69.41,69.41,0,0,1,308.65,129Z"/><path d="M91.38,49.1c-1.3,11,.66,20.84,3.69,30.52,2.77,8.84,3.77,17.8.53,26.75-4.17,11.51-13,18.07-24.19,21.53A86,86,0,0,1,55,131.27c-9.5,1-19,1.9-28.65.86A29.05,29.05,0,0,1,.91,108C-.86,97,.34,86,1.23,75c1.09-13.33,2.37-26.65,4-39.93A92.86,92.86,0,0,1,9.06,16.72C12.24,7.18,19.71,2.05,29.42.82c12-1.52,24-1.13,35.52,3,14.94,5.36,23.68,16.1,25.7,32C91.24,40.44,91.18,45.2,91.38,49.1Z"/><path d="M204.25,10.14c7.24.5,13.22,3.2,17.47,9.23a13.64,13.64,0,0,1,2.73,8.42c-.16,5-3.73,8.43-9.57,9.51-3.95.72-7.93,1.39-11.79,2.46-9.41,2.62-14.21,9.88-14.76,19.3-.63,11,4.83,19.26,15.63,23.26,4,1.47,8.09,2.56,12.09,4s7.39,3.44,8.41,7.89c1.1,4.8-1.72,9.85-6.85,12.56-7.05,3.73-14.55,4-22.22,2.77-8.94-1.46-16.76-5.1-23-11.85-6.78-7.37-9.66-16.34-10.12-26.1a75.32,75.32,0,0,1,9.48-40.72c5.88-10.62,14.63-17.81,26.84-20.16C200.46,10.33,202.37,10.31,204.25,10.14Z"/><path d="M133,141.4c-6.25.21-12.44.22-18.3-2.33-7.38-3.21-11.56-9.07-12.64-16.84a85,85,0,0,1-.53-16c.52-9.81,1.4-19.6,2.35-29.38.6-6.09,1.36-12.19,2.48-18.21,1.88-10.08,7.31-15.44,17.49-16.93a58.16,58.16,0,0,1,24.39,1.69,17.25,17.25,0,0,1,4.5,2c7.61,4.83,7.74,14.19.27,19.64-2,1.44-4.12,2.64-6.19,3.94-3.2,2-3.86,4.23-2,7.47,1.3,2.24,2.91,4.3,4.21,6.54,4.69,8.1,3.57,13.44-3.9,19-1.44,1.07-2.9,2.13-4.32,3.22-3.57,2.75-3.25,6.85.85,8.79,3,1.44,6.4,2.26,9.39,3.8a25.19,25.19,0,0,1,6.75,4.87c3.63,3.88,3,9.41-1,12.86-3.14,2.67-6.95,3.78-10.88,4.36C141.57,140.63,137.25,140.94,133,141.4Z"/><path d="M494.45,124.41c-5.22.18-10.39.19-15.3-2A17.07,17.07,0,0,1,468.6,108.4a69.88,69.88,0,0,1-.45-13.33c.43-8.2,1.17-16.39,2-24.56.49-5.1,1.13-10.19,2.07-15.22,1.57-8.43,6.11-12.91,14.61-14.15a48.67,48.67,0,0,1,20.39,1.41,14.82,14.82,0,0,1,3.76,1.7c6.36,4,6.47,11.87.23,16.42-1.65,1.2-3.45,2.21-5.18,3.29-2.68,1.67-3.23,3.54-1.66,6.24,1.08,1.88,2.43,3.6,3.51,5.47,3.93,6.77,3,11.24-3.26,15.9-1.2.89-2.41,1.78-3.61,2.69-3,2.3-2.71,5.73.71,7.35,2.55,1.2,5.36,1.89,7.85,3.18a20.57,20.57,0,0,1,5.64,4.07c3,3.23,2.52,7.85-.87,10.74a17.41,17.41,0,0,1-9.09,3.64C501.65,123.77,498,124,494.45,124.41Z"/><path d="M427.45,121.87c-10.46.12-19.45-1.45-27.26-7.13-4.72-3.43-8.09-7.94-8.77-13.88-.64-5.52,2.09-9.76,6.07-13.29,1-.86,2-1.61,3-2.39,4.32-3.3,5-5.82,2.74-10.86C400.89,69,398.14,63.91,396,58.53c-4.27-10.94-4.63-21.85,1.59-32.29,5.28-8.88,13.7-13,23.43-14.9A31.55,31.55,0,0,1,446,16.74a19.67,19.67,0,0,1,8.62,13.41c.61,4.08-1.43,9.66-7.09,13-1.58.93-3.23,1.77-4.8,2.73-2.84,1.75-3.51,3.87-1.77,6.73a62.2,62.2,0,0,0,4.8,6.35c4.26,5.34,9,10.34,12.72,16.07,6.33,9.89,5.35,22-1.55,31.5-5.84,8-13.7,12.62-23.33,14.37C431.21,121.33,428.83,121.66,427.45,121.87Z"/><path d="M385.74,54.52c-.33,11.13-.8,22.32-4.79,32.85-4.59,12.09-12,22.07-24.89,26.16-14.24,4.51-27.68,1.92-39.79-6.66s-16.83-20.82-17.2-35.13A134.48,134.48,0,0,1,305,27.89a23.74,23.74,0,0,1,4.89-8.39c3.46-3.87,8.55-3.34,11.76.75,3.44,4.37,4.15,9.67,4.93,14.94.86,5.82,1.3,11.75,2.65,17.46a25.3,25.3,0,0,0,4.66,9.63c5.76,7.3,16.54,6.65,21.08-2.8,2.63-5.48,3.89-11.6,6-17.35,1.64-4.47,3.17-9.09,5.61-13.12,3.64-6,9.73-5.87,14.06-.26,3.61,4.67,4.52,10.28,5,15.91C386,47.92,385.74,51.23,385.74,54.52Z"/><path d="M261.05,235.2c-5.6.2-11.14.2-16.4-2.08A18.33,18.33,0,0,1,233.33,218a75.79,75.79,0,0,1-.48-14.29c.46-8.79,1.25-17.57,2.11-26.33.53-5.47,1.22-10.93,2.22-16.32,1.68-9,6.55-13.84,15.67-15.18a52.14,52.14,0,0,1,21.86,1.52,15.8,15.8,0,0,1,4,1.82c6.81,4.34,6.93,12.72.24,17.6-1.77,1.29-3.7,2.37-5.56,3.53-2.87,1.8-3.46,3.8-1.78,6.7,1.17,2,2.61,3.85,3.77,5.86,4.21,7.26,3.2,12.05-3.49,17.05-1.29,1-2.59,1.91-3.87,2.89-3.2,2.46-2.92,6.14.76,7.87,2.73,1.29,5.74,2,8.42,3.41a22.4,22.4,0,0,1,6,4.36c3.26,3.47,2.7,8.43-.93,11.52A18.73,18.73,0,0,1,272.6,234C268.78,234.52,264.9,234.8,261.05,235.2Z"/><path d="M263.1,472.92c-5.59.19-11.14.2-16.4-2.09a18.31,18.31,0,0,1-11.32-15.08,75.92,75.92,0,0,1-.48-14.3c.46-8.79,1.26-17.57,2.11-26.33.53-5.46,1.22-10.93,2.22-16.32,1.68-9,6.55-13.84,15.67-15.17a52.14,52.14,0,0,1,21.86,1.52,15.14,15.14,0,0,1,4,1.82c6.82,4.33,6.93,12.72.24,17.6-1.77,1.29-3.69,2.37-5.56,3.53-2.86,1.79-3.45,3.79-1.77,6.69,1.16,2,2.6,3.86,3.77,5.87,4.2,7.25,3.2,12-3.5,17-1.29,1-2.59,1.91-3.87,2.89-3.2,2.46-2.92,6.14.76,7.88,2.73,1.29,5.74,2,8.42,3.4a22.22,22.22,0,0,1,6,4.37c3.26,3.47,2.7,8.42-.93,11.52a18.74,18.74,0,0,1-9.74,3.91C270.83,472.23,267,472.51,263.1,472.92Z"/><path d="M489.78,242.77c6.63.54,13.3.63,19.39,3.78a12.3,12.3,0,0,1,6.69,7.87,10.84,10.84,0,0,1-5.48,12c-3.44,2-7.32,3.17-11,4.76-2.72,1.19-3.82,2.82-3.33,5.37a6.55,6.55,0,0,0,1.66,3.19c2.11,2.12,4.49,4,6.64,6.06a17.67,17.67,0,0,1,5.41,9.48,8.22,8.22,0,0,1-3.79,9,60.36,60.36,0,0,1-11.93,5.29c-7.64,2.55-11.57,7.93-13,15.57a54.9,54.9,0,0,1-2.13,8.74c-2.77,7.41-10.67,9.73-16.2,4.95a19.37,19.37,0,0,1-6.28-11.55c-1.56-8.31-1-16.62-.21-24.93,1-11.09,1.92-22.18,3.21-33.23.74-6.31,1.53-12.7,5.58-18.11,3.53-4.72,8.33-7,14-7.65C482.53,242.92,486.17,243,489.78,242.77Z"/><path d="M597.31,347.84a54.45,54.45,0,0,1,17.83.32,45.94,45.94,0,0,1,20.86,9c3.71,2.9,6.67,6.43,7.94,11.16,1.48,5.47-.21,9.91-4.28,13.52-3.72,3.3-8,3.6-12.52,1.86-5-2-9.89-4.53-15-6.07-12.65-3.79-25.46,1.71-31.05,13.65-5.53,11.79-5.65,23.8,1.2,35.27,5,8.4,16.57,13.51,26,11.47a9.21,9.21,0,0,0,5.33-3.63c1.41-2.22-.69-4.23-2.07-6-1.88-2.45-4.06-4.69-5.66-7.3-3.88-6.35-2.57-13.17,4-16.59,12.21-6.36,25-6.89,37.44-.64,7.28,3.65,10.07,10.57,9.5,18.31-1,14.21-7.39,26-18.24,35.19a44.93,44.93,0,0,1-25.06,10.36,63.19,63.19,0,0,1-44.75-11.9c-8.82-6.35-14.28-15.28-17.2-25.62-6.47-22.91-2-44,11.76-63,7.53-10.38,18.6-15.86,30.91-18.68C595.21,348.18,596.27,348,597.31,347.84Z"/><path d="M431.3,179a34.5,34.5,0,0,1-.05,16.07c-1.14,4.87-2.27,9.69-3.43,14.51a54,54,0,0,0-.25,24.88c1.12,4.95,2.69,9.81,3.59,14.79,1.45,8,.7,15.74-6.57,20.93-9.7,6.92-26.31,4.89-32.41-9-3.27-7.47-2.29-15-.52-22.54,2.06-8.82,4.52-17.6,5.72-26.55.9-6.68.16-13.59,0-20.4-.12-5-.15-9.88,1.65-14.6,3.16-8.34,9-11.5,16.42-11.67,7-.17,13.33,5,15.54,12.49C431.1,178.22,431.2,178.6,431.3,179Z"/><path d="M444.64,389.34a28.15,28.15,0,0,1,0,13.16c-.93,4-1.86,7.94-2.81,11.89a44.14,44.14,0,0,0-.2,20.38c.91,4.05,2.2,8,2.93,12.11,1.2,6.59.58,12.9-5.37,17.14-7.95,5.67-21.55,4-26.55-7.38-2.69-6.12-1.88-12.26-.43-18.47,1.69-7.22,3.7-14.41,4.69-21.74.73-5.47.13-11.14,0-16.72-.1-4.06-.13-8.09,1.34-12,2.6-6.83,7.38-9.41,13.46-9.55,5.74-.14,10.91,4.07,12.73,10.22C444.48,388.73,444.56,389,444.64,389.34Z"/><path d="M388.11,199.59c0,9.36-.65,18.72-.81,28.08a53.6,53.6,0,0,1-1.18,10.26c-1.06,4.92-5.26,8.82-9.42,9.29-3.78.43-9.55-3.3-11.21-7.87a108,108,0,0,1-3.21-12.25c-.55-2.34-.74-4.77-1.34-7.09-1-4-3.46-4.94-7.12-2.93-1.61.89-3.13,2-4.68,3-8.08,5.26-13.84,3.58-21.07-1.48-1.65-1.15-3.18-2.47-4.87-3.57-3.78-2.46-6.62-1.54-7.54,2.82-.79,3.74-.8,7.64-1.2,11.46-.43,4.13-.38,8.4-1.48,12.35-2.46,8.75-12.2,11.06-18.37,4.41a17.15,17.15,0,0,1-4.2-7.65,62,62,0,0,1-1.49-15c.59-14.42,1.61-28.83,2.6-43.24.43-6.25.9-12.53,1.87-18.71.68-4.32,2.51-8.37,6.43-11,5.9-3.89,11.91-2.07,16.59,2.43s7.17,10.21,10.07,15.78c2,3.84,4,7.7,6.3,11.36,4.09,6.53,11.08,5.95,15.13-.62,3.24-5.25,6-10.81,9.39-16A38,38,0,0,1,365,154.3c8.93-7.07,17.85-1.73,20.83,6.22A37,37,0,0,1,388,172c.3,9.19.1,18.39.1,27.59Z"/><path d="M231.91,414.27c0,7.9-.55,15.8-.68,23.7a45,45,0,0,1-1,8.66c-.89,4.15-4.44,7.44-7.94,7.84-3.19.36-8.07-2.79-9.47-6.64a90.75,90.75,0,0,1-2.7-10.34c-.47-2-.63-4-1.14-6-.87-3.35-2.92-4.17-6-2.47-1.37.75-2.65,1.65-3.95,2.51-6.82,4.43-11.69,3-17.79-1.25-1.39-1-2.69-2.09-4.11-3-3.19-2.08-5.59-1.31-6.36,2.38a93.7,93.7,0,0,0-1,9.67c-.36,3.48-.31,7.09-1.25,10.42-2.07,7.39-10.29,9.34-15.5,3.72a14.51,14.51,0,0,1-3.55-6.46,52.64,52.64,0,0,1-1.25-12.68c.49-12.18,1.36-24.34,2.19-36.5.36-5.28.76-10.58,1.58-15.79.58-3.65,2.12-7.06,5.43-9.25,5-3.29,10-1.75,14,2s6,8.63,8.49,13.32c1.69,3.25,3.38,6.5,5.32,9.6,3.46,5.51,9.36,5,12.78-.53,2.73-4.43,5.07-9.12,7.92-13.47a32.12,32.12,0,0,1,6.51-7.71c7.54-6,15.07-1.47,17.58,5.24a31,31,0,0,1,1.83,9.7c.26,7.75.08,15.52.08,23.28Z"/><path d="M527.85,190.58c0,7.91.07,15.81,0,23.72A23.88,23.88,0,0,1,524.45,227c-3.41,5.47-10.3,7.48-16.85,4.81s-11.53-7.8-16.32-12.94c-4.1-4.42-8.15-8.9-12.46-13.11a20.13,20.13,0,0,0-6-3.86c-3.76-1.64-6.77-.51-8.24,3.29-1.23,3.19-1.73,6.66-2.58,10-.94,3.64-1.4,7.52-3,10.86-3.87,8.2-13,8.55-18.1,1-3.72-5.53-4.66-11.81-4.39-18.2.38-8.86,1.26-17.69,1.93-26.54.61-8.12,1-16.27,1.93-24.35.58-4.89,1.36-10,3.33-14.44,4.41-10,14.36-11.65,22.63-4.51,4.05,3.5,6.65,8,9.32,12.51,3,5,5.93,10.12,9.24,14.94a15.05,15.05,0,0,0,5.35,4.37c3.33,1.77,6.82.63,8.19-2.92,1.67-4.32,2.53-8.94,4-13.35a38.13,38.13,0,0,1,3.68-8.82c4.51-7,11.6-6.53,16.59-.4,3.84,4.71,5,10.41,5.14,16.26.19,9.67,0,19.35,0,29Z"/><path d="M541.43,405.69c0,7.7.07,15.4,0,23.1a23.31,23.31,0,0,1-3.28,12.32c-3.33,5.32-10,7.29-16.41,4.68s-11.23-7.59-15.89-12.6c-4-4.3-7.95-8.66-12.14-12.77a19.83,19.83,0,0,0-5.87-3.76c-3.66-1.59-6.59-.5-8,3.21-1.2,3.1-1.68,6.49-2.52,9.74-.91,3.55-1.35,7.32-2.89,10.57-3.77,8-12.67,8.33-17.62,1-3.63-5.38-4.54-11.5-4.28-17.73.37-8.62,1.23-17.23,1.88-25.84.6-7.91.95-15.85,1.88-23.72.57-4.76,1.33-9.73,3.24-14.06,4.29-9.71,14-11.35,22-4.39,4,3.41,6.48,7.79,9.08,12.18,2.91,4.91,5.77,9.86,9,14.55a14.73,14.73,0,0,0,5.2,4.26c3.25,1.72,6.65.61,8-2.85,1.62-4.2,2.46-8.7,3.87-13a37.11,37.11,0,0,1,3.59-8.6c4.39-6.8,11.29-6.35,16.15-.39,3.74,4.59,4.9,10.14,5,15.84.18,9.42.05,18.85.05,28.27Z"/><path d="M164.6,355.76c-8.4-.17-14.38-1.27-19.78-4.51a27.35,27.35,0,0,1-13.65-21.09,55.29,55.29,0,0,1,9.18-38.27A28.25,28.25,0,0,1,160.45,279a22.13,22.13,0,0,1,15,3.48,44.48,44.48,0,0,1,19,23.89c2.79,8.07,2.1,16.06-.31,24a37.73,37.73,0,0,1-12.73,19C175.86,353.85,169.47,355.8,164.6,355.76Zm.1-28.81a4.84,4.84,0,0,0,5.07-3.32,8.9,8.9,0,0,0-2-8.9c-2.11-2.36-5.69-2.69-7.77-.82s-2.62,5.49-1.46,8.58A6.51,6.51,0,0,0,164.7,327Z"/><path d="M113.69,446.11c-8.4-.17-14.37-1.27-19.78-4.51a27.35,27.35,0,0,1-13.65-21.09,55.3,55.3,0,0,1,9.19-38.27,28.21,28.21,0,0,1,20.09-12.86,22.11,22.11,0,0,1,15,3.48,44.45,44.45,0,0,1,19,23.89c2.78,8.07,2.09,16.06-.31,24a37.75,37.75,0,0,1-12.74,19C125,444.2,118.57,446.15,113.69,446.11Zm.1-28.81a4.86,4.86,0,0,0,5.08-3.32,8.92,8.92,0,0,0-2-8.9c-2.11-2.36-5.69-2.69-7.76-.82s-2.63,5.49-1.47,8.58A6.52,6.52,0,0,0,113.79,417.3Z"/><path d="M414.7,360.93c-8.4-.18-14.37-1.28-19.78-4.51a27.31,27.31,0,0,1-13.64-21.1,55.25,55.25,0,0,1,9.18-38.27,28.16,28.16,0,0,1,20.1-12.85,22,22,0,0,1,15,3.47,44.44,44.44,0,0,1,19,23.9c2.79,8.07,2.09,16.06-.31,24a37.67,37.67,0,0,1-12.74,19A27.79,27.79,0,0,1,414.7,360.93Zm.11-28.81a4.87,4.87,0,0,0,5.07-3.32,8.91,8.91,0,0,0-2-8.91c-2.11-2.35-5.69-2.68-7.77-.81s-2.63,5.49-1.46,8.58A6.51,6.51,0,0,0,414.81,332.12Z"/><path d="M565.51,260.22a59.67,59.67,0,0,1-13.42.46,30.8,30.8,0,0,1-7.41-1.42,21,21,0,0,1-14-17.69c-.91-7.74.12-15.35.75-23,.82-9.86,1.77-19.71,2.73-29.57.56-5.82,1.34-11.57,5.05-16.48,3.16-4.19,7.55-6.15,12.53-6.75a59.23,59.23,0,0,1,29,3.39c10.11,4,17.07,11.45,22.11,20.87a46.88,46.88,0,0,1,5.56,23.35c-.3,13-3.68,25.13-12.91,34.93a32.92,32.92,0,0,1-17.32,9.81C574,259,569.75,259.62,565.51,260.22Zm1.69-25.46c6.76,0,11.11-3.18,14.3-8.1s3.81-10.36,2.84-16c-1.39-8.1-5.63-14.21-13.19-17.73-5.43-2.52-11-.64-13.53,4.76a25.7,25.7,0,0,0-2.09,8.07c-.64,6-1.3,12-.17,18.07C556.42,229.54,560.86,235.27,567.2,234.76Z"/><path d="M325.07,415.2c.77-6.09,1.77-12.17,3.14-18.15a15.54,15.54,0,0,1,3.67-6.52c4.73-5.26,11.59-4.57,14.94,1.69,1.73,3.25,2.32,7.11,3.46,10.67a60.39,60.39,0,0,0,2.82,8.26,13.08,13.08,0,0,0,12.6,7.75,13.25,13.25,0,0,0,12.47-9.36c1.26-3.63,2.05-7.42,3.36-11a18,18,0,0,1,3.31-5.74c3.81-4.28,9-4.15,13.14-.09s5.64,9.35,5.95,14.88c.54,9.62.78,19.27,1,28.91.14,6.68.15,13.37,0,20-.14,5.37-.57,10.81-4.21,15.26-4.09,5-11.08,5.31-14.88.07-2.76-3.79-4.63-8.25-6.67-12.52-2.47-5.18-5.95-9.24-11.57-10.91-8.45-2.52-15.13.51-18.27,8.62-1.24,3.21-1.63,6.74-2.84,10-1.05,2.82-2.18,5.93-4.2,8-5.23,5.4-12,2.77-15.81-2.41-3.12-4.24-4-9.27-4.35-14.36-.08-1.23-.11-2.46-.11-3.69a136.28,136.28,0,0,1,.66-13.7Z"/><path d="M178.79,151.36a74.29,74.29,0,0,1,13.5.42,41.3,41.3,0,0,1,17,5.59c12.63,7.89,20.13,19,20,34.4-.06,5.82-2.29,11.19-4.67,16.39a28.81,28.81,0,0,0-.61,24.09c1.72,4.17,3.41,8.46,2.74,13.14a10.47,10.47,0,0,1-13.42,8.66c-6-1.64-10.36-5.7-14.86-9.63a70.12,70.12,0,0,0-8.11-6.42c-4.62-3-9-2-12.23,2.42-1.55,2.15-2.79,4.52-4.22,6.76-1.83,2.85-4.15,5.2-7.49,6.14-4.29,1.22-9.45-1.1-12.28-5.22a27.8,27.8,0,0,1-4.5-14.31c-.91-14.23.64-28.31,2.75-42.36.59-3.91.54-7.91,1.15-11.81a89.93,89.93,0,0,1,2.86-13.86c2.79-8.63,9.2-13.1,18.07-14.07C175.88,151.53,177.33,151.43,178.79,151.36Z"/><path d="M641.94,250.78c-9,.1-16.77-1.25-23.51-6.15-4.07-3-7-6.85-7.56-12-.55-4.76,1.81-8.42,5.23-11.47.83-.73,1.74-1.38,2.62-2.06,3.72-2.84,4.31-5,2.36-9.36-2.05-4.56-4.42-9-6.23-13.62-3.69-9.43-4-18.84,1.36-27.85,4.56-7.65,11.82-11.24,20.21-12.85a27.22,27.22,0,0,1,21.49,4.66,16.94,16.94,0,0,1,7.44,11.57c.53,3.51-1.24,8.32-6.11,11.2-1.37.81-2.79,1.53-4.14,2.36-2.46,1.51-3,3.34-1.54,5.81a57.32,57.32,0,0,0,4.14,5.47c3.68,4.61,7.81,8.92,11,13.86,5.47,8.53,4.62,19-1.33,27.17a30.64,30.64,0,0,1-20.12,12.39C645.18,250.31,643.13,250.59,641.94,250.78Z"/><path d="M48.58,483.23c-10.39.11-19.31-1.44-27.07-7.08-4.68-3.41-8-7.89-8.7-13.78-.63-5.48,2.08-9.7,6-13.2.95-.85,2-1.6,3-2.38,4.28-3.27,5-5.77,2.71-10.78-2.35-5.24-5.08-10.33-7.17-15.68-4.25-10.85-4.6-21.69,1.57-32.05,5.25-8.82,13.61-12.95,23.27-14.8A31.31,31.31,0,0,1,67,378.84a19.56,19.56,0,0,1,8.56,13.32c.61,4-1.42,9.59-7,12.9-1.57.93-3.21,1.76-4.76,2.72-2.83,1.74-3.49,3.84-1.77,6.68a62.78,62.78,0,0,0,4.77,6.3c4.23,5.31,9,10.27,12.63,15.95,6.29,9.82,5.31,21.86-1.54,31.28-5.79,8-13.6,12.53-23.16,14.27C52.31,482.69,50,483,48.58,483.23Z"/><path d="M321.32,363.74a21.21,21.21,0,0,1,4.19.63,13.43,13.43,0,0,1,9,7.18,9.2,9.2,0,0,1-4.09,12.14,45.75,45.75,0,0,1-7.15,2.9c-5.28,1.71-7.69,5.71-8,11.35-.29,5.27-.11,10.56-.07,15.84.08,9.74.3,19.49.26,29.23,0,4.64-.58,9.26-4.73,12.38a10.72,10.72,0,0,1-15.06-2,19.79,19.79,0,0,1-4.54-12.52c0-8,.44-16.07.63-24.11.16-7.27.34-14.55.3-21.82,0-5.59-3.29-9-8-11.67a20.86,20.86,0,0,1-6.3-5.36c-3.47-4.6-1.18-9.94,3.09-12.35a22.39,22.39,0,0,1,9-2.64c5.11-.4,10.27-.14,15.42-.12.4,0,.81,0,1.22,0Z"/><path d="M279.64,295.71c-.28,9.6-.69,19.26-4.14,28.35-4,10.44-10.32,19.05-21.47,22.58-12.3,3.89-23.89,1.66-34.35-5.75s-14.52-18-14.84-30.32A116,116,0,0,1,210,272.72a20.3,20.3,0,0,1,4.22-7.23c3-3.35,7.38-2.89,10.15.64,3,3.77,3.58,8.35,4.25,12.89.74,5,1.13,10.14,2.29,15.07a21.78,21.78,0,0,0,4,8.31c5,6.3,14.28,5.74,18.19-2.41,2.27-4.73,3.36-10,5.19-15,1.42-3.85,2.74-7.85,4.85-11.32,3.13-5.15,8.39-5.06,12.13-.22,3.12,4,3.9,8.86,4.35,13.73C279.86,290,279.64,292.87,279.64,295.71Z"/><path d="M137.34,277.63c-.19,4.47-2.9,9.82-5.91,15-4.54,7.88-9.71,15.4-13,24-2.74,7.31-3.41,14.8-3.07,22.51a54.21,54.21,0,0,1-.48,9.94c-.77,5.4-3.69,9.56-9,11.15-5.88,1.76-11.08-.23-15.3-4.52-3.84-3.92-5.58-8.9-6.31-14.22-1-7.64-1.81-15.32-2.93-22.94-1.64-11.17-6-21.39-11-31.44a70.39,70.39,0,0,1-4.69-13.29,10.4,10.4,0,0,1,3.83-11.16c3.22-2.63,6.82-2.53,10.59-1.08,5.33,2.05,8.9,6.22,12.64,10.16,5.45,5.75,11,6.44,17.07,1.9,1.63-1.21,3-2.71,4.64-4a41,41,0,0,1,5.94-4.21C129.22,261,137.26,265.92,137.34,277.63Z"/></g></g></svg>