<svg xmlns="http://www.w3.org/2000/svg" viewBox="0 0 708.55 233.16"><g id="Layer_2" data-name="Layer 2"><g id="Layer_1-2" data-name="Layer 1"><path d="M256.1,75.6c-.06,3.6-.85,6.12-3.43,7.7s-5.18,1-7.52-.43A21.8,21.8,0,0,1,240.53,79c-3-3.21-6-6.31-10.65-6.78s-9.25-1-13.24,1.56c-2.37,1.51-4,4.19-6,6.25-1.6,1.62-3.12,3.5-5.06,4.58-5.46,3-10.19-1.4-11.11-5.72-.78-3.7.36-7.16,1.42-10.59A330.65,330.65,0,0,1,210,31.59c1.7-3.83,3.29-7.73,5.26-11.42,2.09-3.91,5.31-6.59,9.94-7.09a9.29,9.29,0,0,1,6.41,2c4,2.83,5.88,7.15,7.42,11.55,2.93,8.39,5.51,16.89,8.46,25.27,2.24,6.39,4.87,12.64,7.25,19C255.41,72.6,255.79,74.47,256.1,75.6Z"/><path d="M75.84,40.75c-1.08,9.17.55,17.3,3.07,25.33,2.29,7.34,3.12,14.78.43,22.2-3.46,9.55-10.75,15-20.08,17.87A71.82,71.82,0,0,1,45.65,109c-7.89.81-15.8,1.57-23.78.71a24.1,24.1,0,0,1-21.11-20C-.71,80.48.28,71.36,1,62.25c.91-11.07,2-22.12,3.3-33.14a77.36,77.36,0,0,1,3.2-15.24C10.16,6,16.35,1.7,24.42.68,34.37-.58,44.35-.26,53.9,3.16,66.29,7.61,73.55,16.52,75.23,29.68,75.72,33.56,75.67,37.52,75.84,40.75Z"/><path d="M177.46,26.1c6,.41,11,2.65,14.5,7.65a11.36,11.36,0,0,1,2.27,7c-.14,4.15-3.1,7-7.94,7.89-3.28.61-6.59,1.15-9.79,2-7.81,2.17-11.8,8.2-12.25,16-.53,9.12,4,16,13,19.3,3.3,1.22,6.72,2.12,10,3.29s6.13,2.86,7,6.55c.91,4-1.42,8.17-5.68,10.42-5.85,3.1-12.07,3.34-18.44,2.3-7.42-1.21-13.91-4.23-19.06-9.83-5.63-6.12-8-13.56-8.41-21.66a62.52,62.52,0,0,1,7.87-33.79c4.89-8.82,12.15-14.79,22.28-16.74C174.32,26.25,175.9,26.24,177.46,26.1Z"/><path d="M116.09,108.34c-5.18.18-10.32.18-15.19-1.93a17,17,0,0,1-10.48-14A70.56,70.56,0,0,1,90,79.2c.43-8.14,1.17-16.27,2-24.39.49-5.06,1.13-10.12,2.06-15.11,1.55-8.37,6.06-12.82,14.51-14.05a48.29,48.29,0,0,1,20.24,1.4,14.33,14.33,0,0,1,3.74,1.69c6.31,4,6.42,11.78.22,16.3-1.63,1.2-3.42,2.19-5.14,3.27-2.66,1.66-3.2,3.51-1.65,6.2,1.08,1.86,2.42,3.57,3.49,5.43,3.9,6.72,3,11.16-3.23,15.78-1.2.9-2.41,1.77-3.59,2.68-3,2.28-2.7,5.69.71,7.29,2.53,1.2,5.31,1.88,7.79,3.16a20.85,20.85,0,0,1,5.6,4c3,3.22,2.5,7.81-.86,10.67a17.35,17.35,0,0,1-9,3.62C123.25,107.71,119.66,108,116.09,108.34Z"/><path d="M418.79,112.94c-4.33.15-8.62.15-12.69-1.62a14.18,14.18,0,0,1-8.77-11.67A59.31,59.31,0,0,1,397,88.58c.36-6.8,1-13.6,1.64-20.38.41-4.22.94-8.46,1.71-12.63,1.31-7,5.08-10.71,12.13-11.74A40.35,40.35,0,0,1,429.36,45a12.08,12.08,0,0,1,3.13,1.41c5.27,3.36,5.36,9.85.18,13.63-1.37,1-2.86,1.83-4.3,2.73C426.15,64.15,425.7,65.7,427,68c.9,1.55,2,3,2.92,4.54,3.25,5.61,2.47,9.32-2.71,13.19-1,.74-2,1.48-3,2.24-2.47,1.9-2.25,4.75.59,6.09,2.12,1,4.44,1.57,6.52,2.64A17.43,17.43,0,0,1,436,100a6,6,0,0,1-.72,8.91,14.52,14.52,0,0,1-7.55,3C424.77,112.41,421.77,112.62,418.79,112.94Z"/><path d="M363.21,118.1c-8.68.1-16.14-1.2-22.63-5.91-3.91-2.85-6.71-6.59-7.27-11.52-.53-4.58,1.74-8.11,5-11,.8-.7,1.67-1.33,2.51-2,3.59-2.74,4.15-4.83,2.27-9-2-4.39-4.24-8.64-6-13.11-3.55-9.07-3.84-18.13,1.31-26.8,4.39-7.36,11.38-10.82,19.45-12.36a26.16,26.16,0,0,1,20.68,4.48A16.37,16.37,0,0,1,385.74,42c.51,3.38-1.19,8-5.89,10.79-1.31.77-2.68,1.47-4,2.27-2.36,1.45-2.92,3.21-1.47,5.58a53.12,53.12,0,0,0,4,5.27c3.53,4.44,7.51,8.59,10.56,13.34,5.26,8.2,4.44,18.26-1.29,26.14a29.47,29.47,0,0,1-19.36,11.93C366.33,117.66,364.35,117.92,363.21,118.1Z"/><path d="M328.75,62.72c-.26,8.75-.63,17.56-3.77,25.84-3.62,9.52-9.42,17.37-19.58,20.59-11.21,3.55-21.78,1.51-31.32-5.25s-13.24-16.38-13.53-27.63a105.77,105.77,0,0,1,4.66-34.51,18.55,18.55,0,0,1,3.85-6.6c2.72-3,6.73-2.63,9.25.58,2.7,3.45,3.27,7.62,3.88,11.76.67,4.59,1,9.25,2.08,13.74a20,20,0,0,0,3.67,7.58c4.54,5.74,13,5.23,16.59-2.2,2.06-4.31,3.06-9.13,4.73-13.66a58.31,58.31,0,0,1,4.42-10.32c2.85-4.7,7.64-4.62,11.06-.2,2.84,3.67,3.55,8.08,4,12.51C328.94,57.52,328.75,60.13,328.75,62.72Z"/><path d="M58.44,146.12a30.5,30.5,0,0,1,0,14.28c-1,4.33-2,8.62-3,12.9a48.06,48.06,0,0,0-.22,22.12c1,4.4,2.39,8.72,3.19,13.15,1.29,7.14.62,14-5.84,18.6-8.62,6.15-23.39,4.35-28.81-8-2.91-6.64-2-13.29-.46-20,1.83-7.84,4-15.65,5.08-23.6.8-5.94.15-12.09,0-18.14-.1-4.41-.13-8.78,1.46-13,2.82-7.42,8-10.22,14.61-10.37,6.22-.15,11.84,4.42,13.81,11.1Q58.32,145.61,58.44,146.12Z"/><path d="M92.46,116.67a18.3,18.3,0,0,1,5,.8,12.47,12.47,0,0,1,7.67,6.52,8.66,8.66,0,0,1-3.85,11.44,43.77,43.77,0,0,1-6.74,2.72c-5,1.62-7.24,5.38-7.54,10.7-.28,5-.1,9.94-.06,14.91.07,9.18.27,18.36.24,27.53,0,4.38-.55,8.72-4.46,11.66a10.1,10.1,0,0,1-14.18-1.84,18.56,18.56,0,0,1-4.27-11.79c0-7.57.41-15.14.58-22.71.16-6.85.32-13.7.29-20.55,0-5.27-3.1-8.51-7.5-11a19.61,19.61,0,0,1-5.93-5c-3.27-4.33-1.12-9.37,2.91-11.63a20.17,20.17,0,0,1,5.94-2.14,17.59,17.59,0,0,1,4-.31Z"/><path d="M118.26,212.85c-7.16.08-13.32-1-18.67-4.89-3.23-2.34-5.54-5.44-6-9.5-.43-3.78,1.44-6.69,4.16-9.11.66-.58,1.38-1.1,2.08-1.63,3-2.26,3.42-4,1.87-7.44-1.62-3.62-3.5-7.13-4.94-10.81-2.93-7.49-3.18-15,1.08-22.11,3.62-6.08,9.39-8.93,16-10.21a21.58,21.58,0,0,1,17.06,3.7,13.42,13.42,0,0,1,5.9,9.18c.42,2.79-1,6.62-4.85,8.9-1.08.65-2.21,1.22-3.29,1.88-1.94,1.2-2.4,2.65-1.21,4.61a44.09,44.09,0,0,0,3.28,4.34c2.92,3.66,6.2,7.09,8.72,11,4.34,6.77,3.66,15.07-1.07,21.57a24.3,24.3,0,0,1-16,9.84C120.83,212.48,119.2,212.7,118.26,212.85Z"/><path d="M357.54,209.69c-.05,3.34-.78,5.67-3.18,7.14s-4.81.92-7-.4a20.32,20.32,0,0,1-4.29-3.56c-2.76-3-5.56-5.85-9.88-6.3s-8.58-.9-12.29,1.45c-2.2,1.4-3.68,3.89-5.58,5.8-1.48,1.51-2.89,3.25-4.69,4.25-5.07,2.82-9.46-1.29-10.31-5.31-.72-3.43.34-6.64,1.32-9.82a307.86,307.86,0,0,1,13.12-34.1c1.58-3.55,3.05-7.17,4.88-10.59,1.94-3.64,4.93-6.12,9.22-6.59a8.63,8.63,0,0,1,5.95,1.83c3.72,2.63,5.47,6.64,6.89,10.72,2.72,7.79,5.11,15.68,7.85,23.46,2.08,5.92,4.52,11.72,6.73,17.6A45.11,45.11,0,0,1,357.54,209.69Z"/><path d="M249.8,163.64c-1.07,9.09.54,17.15,3,25.11,2.27,7.26,3.09,14.64.43,22-3.43,9.46-10.66,14.86-19.9,17.7a70.55,70.55,0,0,1-13.49,2.77c-7.82.81-15.65,1.56-23.56.71a23.89,23.89,0,0,1-20.92-19.82c-1.46-9.1-.47-18.13.26-27.16.9-11,2-21.92,3.27-32.84A76,76,0,0,1,182.1,137c2.62-7.84,8.75-12,16.75-13.07,9.85-1.25,19.75-.93,29.2,2.46,12.29,4.41,19.48,13.24,21.14,26.27C249.68,156.52,249.63,160.44,249.8,163.64Z"/><path d="M281.88,197.2c-4.87.17-9.69.18-14.26-1.81a15.93,15.93,0,0,1-9.85-13.12,65.45,65.45,0,0,1-.42-12.44c.4-7.65,1.09-15.28,1.84-22.9.46-4.75,1.05-9.51,1.93-14.2,1.46-7.86,5.7-12,13.63-13.2a45.45,45.45,0,0,1,19,1.32,13.24,13.24,0,0,1,3.51,1.59c5.93,3.77,6,11.06.21,15.31-1.54,1.12-3.21,2.06-4.83,3.07-2.49,1.56-3,3.3-1.55,5.82,1,1.75,2.27,3.35,3.28,5.1,3.66,6.31,2.79,10.48-3,14.83-1.12.84-2.25,1.66-3.36,2.51-2.79,2.14-2.54,5.34.66,6.85,2.38,1.13,5,1.77,7.32,3a19.45,19.45,0,0,1,5.26,3.79c2.83,3,2.35,7.33-.81,10a16.35,16.35,0,0,1-8.48,3.41C288.6,196.61,285.23,196.85,281.88,197.2Z"/><path d="M536.43,105.75c7.15.57,14.35.67,20.92,4.07a13.32,13.32,0,0,1,7.22,8.49,11.68,11.68,0,0,1-5.92,12.91c-3.71,2.13-7.9,3.42-11.84,5.15-2.94,1.28-4.12,3-3.59,5.79A7,7,0,0,0,545,145.6c2.27,2.29,4.84,4.29,7.16,6.54A19,19,0,0,1,558,162.36c.78,4.15-.74,7.71-4.09,9.72a64.64,64.64,0,0,1-12.86,5.7c-8.25,2.75-12.48,8.56-14.07,16.8a57.81,57.81,0,0,1-2.3,9.42c-3,8-11.51,10.5-17.46,5.34a20.89,20.89,0,0,1-6.79-12.46c-1.68-8.95-1-17.92-.22-26.89,1.06-12,2.07-23.92,3.46-35.84.8-6.81,1.66-13.7,6-19.53,3.81-5.09,9-7.54,15.05-8.26C528.61,105.91,532.53,105.94,536.43,105.75Z"/><path d="M493.3,156.88a27.57,27.57,0,0,1,0,12.9c-.92,3.91-1.82,7.78-2.76,11.64a43.47,43.47,0,0,0-.2,20c.9,4,2.16,7.87,2.88,11.87,1.17,6.45.57,12.64-5.27,16.8-7.78,5.55-21.11,3.93-26-7.24-2.63-6-1.84-12-.42-18.09,1.65-7.08,3.63-14.13,4.59-21.31.73-5.36.13-10.91,0-16.37-.09-4-.12-7.93,1.32-11.72,2.54-6.7,7.23-9.23,13.19-9.37,5.62-.13,10.69,4,12.47,10Q493.19,156.43,493.3,156.88Z"/><path d="M676.91,127c-.36,7-.87,14.06-1,21.1-.17,7.25.36,14.4,3.78,21.07,2.82,5.51,7.48,8.89,12.68,11.74,3.57,2,7.36,3.59,10.73,5.84,7.49,5,7.32,13.43-.57,17.82a44.93,44.93,0,0,1-12.8,4.59c-8,1.63-16.16,2-24.1-.75-10.8-3.76-16.92-11.63-19-22.64-1.72-9.22-.86-18.45.52-27.67s2.13-18.46,3.62-27.61A124.84,124.84,0,0,1,655,113.76a13.47,13.47,0,0,1,3.82-5.61c4.84-4.38,10.88-3,14.14,3.06C674.94,114.9,676.49,121.88,676.91,127Z"/><path d="M465,119a18.09,18.09,0,0,1,3.6.54,11.52,11.52,0,0,1,7.74,6.17,7.91,7.91,0,0,1-3.51,10.42,39.82,39.82,0,0,1-6.14,2.48c-4.53,1.48-6.6,4.9-6.87,9.75-.26,4.52-.1,9.06-.06,13.59.06,8.37.25,16.73.22,25.09,0,4-.5,8-4.06,10.63A9.21,9.21,0,0,1,443,196a17,17,0,0,1-3.9-10.74c0-6.9.38-13.79.54-20.69.14-6.24.29-12.49.26-18.74,0-4.79-2.82-7.75-6.83-10a18,18,0,0,1-5.41-4.6c-3-3.95-1-8.54,2.66-10.6a19.19,19.19,0,0,1,7.7-2.27c4.39-.35,8.82-.12,13.23-.1.35,0,.71,0,1.06,0Z"/><path d="M426.1,158.48c-.28,9.41-.68,18.88-4.05,27.77-3.88,10.23-10.12,18.67-21,22.13-12.05,3.81-23.41,1.62-33.66-5.64s-14.22-17.6-14.54-29.7a113.78,113.78,0,0,1,5-37.08,19.91,19.91,0,0,1,4.14-7.09c2.92-3.28,7.23-2.83,9.94.63,2.9,3.7,3.51,8.18,4.17,12.63.72,4.93,1.1,9.94,2.24,14.77a21.46,21.46,0,0,0,3.93,8.14c4.88,6.17,14,5.62,17.83-2.36,2.22-4.64,3.29-9.82,5.08-14.68,1.39-3.77,2.68-7.69,4.75-11.09,3.07-5,8.22-5,11.89-.22,3,3.95,3.82,8.69,4.26,13.45C426.31,152.9,426.1,155.7,426.1,158.48Z"/><path d="M638.24,167.25c-.28,9.41-.68,18.88-4.06,27.78-3.88,10.23-10.12,18.66-21,22.12-12,3.82-23.4,1.63-33.65-5.63S565.26,193.91,565,181.81a113.55,113.55,0,0,1,5-37.08,20,20,0,0,1,4.13-7.09c2.93-3.28,7.23-2.83,9.95.63,2.9,3.7,3.51,8.18,4.16,12.63.73,4.93,1.1,9.94,2.24,14.77a21.41,21.41,0,0,0,3.94,8.14c4.88,6.17,14,5.63,17.83-2.36,2.22-4.64,3.29-9.82,5.08-14.68,1.39-3.77,2.68-7.68,4.75-11.09,3.07-5.05,8.22-5,11.88-.22,3.06,3.95,3.82,8.69,4.27,13.45C638.45,161.67,638.24,164.47,638.24,167.25Z"/></g></g></svg>