<svg xmlns="http://www.w3.org/2000/svg" viewBox="0 0 602.72 315.94"><g id="Layer_2" data-name="Layer 2"><g id="Layer_1-2" data-name="Layer 1"><path d="M340.46,101.14c-.08,4.81-1.14,8.18-4.59,10.29s-6.93,1.33-10.07-.57a29.54,29.54,0,0,1-6.18-5.14c-4-4.29-8-8.43-14.24-9.07-6.05-.62-12.37-1.31-17.72,2.09-3.16,2-5.31,5.6-8,8.36-2.14,2.17-4.17,4.68-6.77,6.12-7.3,4.06-13.63-1.86-14.85-7.65-1.05-4.95.48-9.57,1.9-14.16a442.86,442.86,0,0,1,18.91-49.15c2.28-5.12,4.4-10.34,7-15.28,2.8-5.23,7.11-8.82,13.3-9.48a12.43,12.43,0,0,1,8.57,2.63c5.36,3.79,7.88,9.57,9.94,15.46C321.57,46.8,325,58.18,329,69.39c3,8.54,6.52,16.9,9.7,25.38C339.54,97.12,340,99.62,340.46,101.14Z"/><path d="M101.45,54.51c-1.44,12.27.74,23.14,4.11,33.89,3.07,9.81,4.17,19.76.58,29.7-4.63,12.77-14.39,20.06-26.86,23.9a95.22,95.22,0,0,1-18.22,3.74c-10.55,1.09-21.12,2.11-31.81.95A32.23,32.23,0,0,1,1,119.94c-2-12.28-.63-24.47.36-36.67C2.58,68.47,4,53.68,5.77,38.94a104.18,104.18,0,0,1,4.28-20.38C13.59,8,21.88,2.28,32.67.91,46-.78,59.34-.35,72.1,4.23c16.59,5.95,26.29,17.88,28.53,35.47C101.3,44.9,101.23,50.19,101.45,54.51Z"/><path d="M233,33.81c8,.56,14.68,3.55,19.4,10.24a15.16,15.16,0,0,1,3,9.35C255.24,59,251.27,62.76,244.8,64c-4.39.8-8.81,1.54-13.1,2.73-10.45,2.91-15.78,11-16.38,21.43-.71,12.21,5.36,21.38,17.35,25.82,4.41,1.64,9,2.84,13.42,4.41s8.21,3.82,9.34,8.76c1.22,5.32-1.91,10.93-7.61,13.94-7.83,4.14-16.15,4.46-24.67,3.08-9.92-1.62-18.61-5.66-25.5-13.15-7.52-8.19-10.72-18.14-11.24-29a83.69,83.69,0,0,1,10.53-45.21C203.47,45,213.19,37,226.74,34.41A62.05,62.05,0,0,1,233,33.81Z"/><path d="M152,144.93c-6.94.24-13.81.25-20.32-2.59-8.19-3.56-12.84-10.07-14-18.68a94.41,94.41,0,0,1-.6-17.71c.58-10.89,1.56-21.77,2.62-32.62.66-6.77,1.51-13.54,2.75-20.22,2.09-11.2,8.12-17.15,19.42-18.8a64.56,64.56,0,0,1,27.07,1.88,19.17,19.17,0,0,1,5,2.26c8.44,5.37,8.59,15.76.3,21.8-2.2,1.6-4.58,2.94-6.89,4.38-3.55,2.22-4.28,4.7-2.2,8.29,1.44,2.49,3.23,4.78,4.67,7.26,5.21,9,4,14.93-4.33,21.12-1.6,1.19-3.21,2.37-4.79,3.58-4,3.05-3.62,7.61.94,9.76,3.38,1.6,7.11,2.51,10.43,4.22a27.72,27.72,0,0,1,7.49,5.41c4,4.3,3.34,10.43-1.16,14.27-3.48,3-7.71,4.2-12.07,4.84C161.57,144.08,156.78,144.43,152,144.93Z"/><path d="M565.49,151.34c-5.8.2-11.54.21-17-2.16a19,19,0,0,1-11.72-15.62,78.65,78.65,0,0,1-.5-14.8c.48-9.1,1.3-18.19,2.19-27.26.55-5.66,1.26-11.32,2.3-16.9,1.74-9.36,6.78-14.33,16.22-15.71a54,54,0,0,1,22.63,1.57,16.14,16.14,0,0,1,4.19,1.89c7.06,4.49,7.17,13.17.25,18.22-1.84,1.34-3.83,2.46-5.76,3.66-3,1.85-3.58,3.93-1.84,6.93,1.21,2.08,2.7,4,3.91,6.07,4.35,7.51,3.31,12.47-3.62,17.65-1.34,1-2.69,2-4,3-3.32,2.55-3,6.36.79,8.16,2.83,1.33,5.94,2.09,8.71,3.52a23.29,23.29,0,0,1,6.26,4.52c3.37,3.6,2.8,8.73-1,11.93-2.91,2.48-6.45,3.51-10.09,4.05C573.48,150.64,569.47,150.92,565.49,151.34Z"/><path d="M488,151c-11.61.13-21.59-1.61-30.27-7.91-5.24-3.81-9-8.82-9.73-15.41-.71-6.13,2.32-10.84,6.74-14.76,1.07-.95,2.23-1.79,3.36-2.66,4.8-3.66,5.56-6.45,3-12-2.63-5.87-5.68-11.56-8-17.54-4.75-12.13-5.14-24.25,1.76-35.84,5.86-9.86,15.22-14.48,26-16.55a35,35,0,0,1,27.67,6c5.15,3.63,8.62,8.55,9.57,14.89.68,4.52-1.59,10.72-7.87,14.43-1.76,1-3.58,2-5.32,3-3.16,1.94-3.91,4.29-2,7.47a70.72,70.72,0,0,0,5.33,7c4.73,5.94,10.05,11.49,14.12,17.84,7,11,5.95,24.44-1.72,35-6.47,8.9-15.2,14-25.89,16C492.2,150.44,489.56,150.8,488,151Z"/><path d="M439.78,77c-.35,11.71-.84,23.49-5,34.57-4.83,12.74-12.6,23.24-26.19,27.54-15,4.75-29.14,2-41.9-7s-17.71-21.92-18.1-37a141.72,141.72,0,0,1,6.23-46.16,25.05,25.05,0,0,1,5.15-8.83c3.64-4.08,9-3.52,12.38.78,3.61,4.61,4.37,10.19,5.19,15.73.9,6.14,1.37,12.37,2.78,18.38a26.72,26.72,0,0,0,4.91,10.14c6.07,7.68,17.42,7,22.19-2.94,2.77-5.77,4.1-12.22,6.33-18.27,1.73-4.7,3.33-9.57,5.91-13.81,3.82-6.28,10.23-6.17,14.8-.27,3.8,4.92,4.75,10.81,5.31,16.74C440.05,70,439.78,73.48,439.78,77Z"/><path d="M46.67,211.28a37.82,37.82,0,0,1-.05,17.7c-1.25,5.36-2.49,10.68-3.77,16a59.41,59.41,0,0,0-.28,27.4c1.23,5.45,3,10.8,4,16.29,1.61,8.85.77,17.33-7.23,23-10.68,7.62-29,5.39-35.69-9.93C0,293.54,1.07,285.29,3,276.94c2.27-9.71,5-19.38,6.31-29.23,1-7.36.17-15,0-22.48-.13-5.46-.16-10.87,1.81-16.08,3.49-9.18,9.92-12.65,18.09-12.85,7.72-.18,14.68,5.48,17.12,13.75Q46.52,210.67,46.67,211.28Z"/><path d="M98.71,167.62a23.62,23.62,0,0,1,6.74,1.07,16.62,16.62,0,0,1,10.26,8.72,11.59,11.59,0,0,1-5.15,15.3,57.36,57.36,0,0,1-9,3.64c-6.65,2.17-9.69,7.2-10.09,14.31-.37,6.63-.13,13.3-.08,20,.09,12.28.37,24.56.32,36.83,0,5.85-.73,11.67-6,15.6a13.51,13.51,0,0,1-19-2.47,24.86,24.86,0,0,1-5.72-15.77c0-10.12.56-20.25.79-30.37.21-9.17.42-18.34.38-27.5,0-7.05-4.14-11.38-10-14.71a26.22,26.22,0,0,1-7.94-6.75c-4.37-5.79-1.49-12.53,3.9-15.56a27.18,27.18,0,0,1,7.94-2.86,24.45,24.45,0,0,1,5.4-.41Z"/><path d="M134.76,302.07c-9.58.11-17.81-1.33-25-6.53-4.32-3.14-7.41-7.27-8-12.71-.58-5.06,1.92-8.95,5.57-12.18.88-.79,1.84-1.48,2.77-2.19,4-3,4.59-5.33,2.51-9.95-2.17-4.84-4.69-9.54-6.62-14.47-3.92-10-4.24-20,1.45-29.58,4.84-8.13,12.56-11.94,21.47-13.65a29,29,0,0,1,22.83,4.95,18,18,0,0,1,7.89,12.29c.57,3.73-1.31,8.84-6.49,11.9-1.45.86-3,1.62-4.39,2.51-2.61,1.6-3.23,3.54-1.63,6.16a57.21,57.21,0,0,0,4.39,5.82c3.91,4.89,8.3,9.47,11.66,14.72,5.8,9.06,4.9,20.16-1.42,28.86a32.6,32.6,0,0,1-21.37,13.16C138.21,301.58,136,301.87,134.76,302.07Z"/><path d="M394.27,201.18a50.25,50.25,0,0,1,16.37.3,42.21,42.21,0,0,1,19.17,8.23A19.38,19.38,0,0,1,437.1,220c1.36,5-.19,9.1-3.93,12.42-3.41,3-7.39,3.31-11.5,1.71-4.64-1.8-9.09-4.16-13.83-5.58-11.61-3.48-23.38,1.57-28.52,12.54s-5.18,21.86,1.11,32.4c4.6,7.71,15.22,12.41,23.83,10.54a8.45,8.45,0,0,0,4.89-3.34c1.3-2-.63-3.88-1.89-5.53a78.74,78.74,0,0,1-5.2-6.71c-3.57-5.83-2.36-12.09,3.68-15.24,11.21-5.84,22.95-6.32,34.39-.58,6.69,3.35,9.25,9.71,8.73,16.82-1,13-6.79,23.88-16.76,32.32a41.26,41.26,0,0,1-23,9.51A58.06,58.06,0,0,1,368,300.32c-8.09-5.84-13.1-14-15.79-23.54-5.95-21-1.87-40.43,10.8-57.91,6.92-9.53,17.09-14.56,28.39-17.15C392.34,201.5,393.31,201.33,394.27,201.18Z"/><path d="M487.18,185.2c-.41,8-1,15.92-1.17,23.89-.2,8.21.4,16.31,4.28,23.86,3.2,6.25,8.47,10.07,14.36,13.3,4,2.22,8.33,4.06,12.15,6.61,8.49,5.66,8.29,15.22-.64,20.18a50.89,50.89,0,0,1-14.5,5.2c-9.07,1.84-18.31,2.27-27.3-.85-12.23-4.26-19.16-13.17-21.48-25.64-1.95-10.44-1-20.89.59-31.34s2.41-20.89,4.11-31.26a138.6,138.6,0,0,1,4.78-19,15.24,15.24,0,0,1,4.32-6.35c5.49-5,12.33-3.36,16,3.46C485,171.48,486.71,179.37,487.18,185.2Z"/><path d="M345.49,221.07c-.48,16.09-1.16,32.28-6.94,47.49-6.63,17.49-17.3,31.92-36,37.84-20.6,6.52-40,2.77-57.55-9.64S220.7,266.65,220.16,246a194.45,194.45,0,0,1,8.57-63.41,34.07,34.07,0,0,1,7.07-12.12c5-5.61,12.36-4.85,17,1.07,5,6.32,6,14,7.13,21.6,1.24,8.43,1.88,17,3.83,25.25a36.7,36.7,0,0,0,6.73,13.92c8.34,10.56,23.93,9.62,30.48-4,3.81-7.92,5.64-16.78,8.7-25.09,2.37-6.46,4.58-13.15,8.12-19,5.25-8.63,14-8.48,20.32-.37,5.23,6.75,6.54,14.85,7.3,23C345.85,211.52,345.49,216.31,345.49,221.07Z"/><path d="M602.72,217.6c-.23,5.19-3.37,11.41-6.87,17.48-5.28,9.16-11.29,17.9-15.05,27.91-3.19,8.5-4,17.2-3.57,26.16a62.81,62.81,0,0,1-.55,11.55c-.9,6.29-4.29,11.11-10.46,13-6.83,2-12.87-.26-17.78-5.25-4.47-4.55-6.48-10.34-7.33-16.52-1.22-8.88-2.11-17.8-3.41-26.67-1.91-13-7-24.85-12.79-36.54a82.53,82.53,0,0,1-5.45-15.44c-1.32-5.06.37-9.63,4.46-13,3.74-3.06,7.92-3,12.31-1.25,6.19,2.38,10.34,7.22,14.69,11.81,6.34,6.67,12.76,7.47,19.84,2.2,1.89-1.4,3.52-3.15,5.39-4.6a47.51,47.51,0,0,1,6.9-4.9C593.28,198.21,602.62,204,602.72,217.6Z"/></g></g></svg>