<svg xmlns="http://www.w3.org/2000/svg" viewBox="0 0 704.63 448.78"><g id="Layer_2" data-name="Layer 2"><g id="Layer_1-2" data-name="Layer 1"><path d="M378.53,117.14c-.09,5.19-1.23,8.82-4.95,11.09s-7.46,1.43-10.84-.61a32.39,32.39,0,0,1-6.66-5.54c-4.29-4.62-8.64-9.09-15.33-9.77-6.53-.67-13.33-1.41-19.09,2.25-3.42,2.17-5.73,6-8.67,9-2.3,2.34-4.5,5.05-7.29,6.6-7.87,4.38-14.68-2-16-8.24-1.13-5.33.52-10.31,2.05-15.26a478.85,478.85,0,0,1,20.36-52.94c2.46-5.52,4.75-11.14,7.59-16.46,3-5.64,7.65-9.51,14.32-10.22a13.4,13.4,0,0,1,9.24,2.84C349,34,351.74,40.19,354,46.53c4.22,12.08,7.93,24.34,12.18,36.41,3.24,9.2,7,18.21,10.45,27.35C377.54,112.82,378.07,115.51,378.53,117.14Z"/><path d="M118.75,58.72c-1.55,13.22.79,24.93,4.42,36.51,3.31,10.57,4.5,21.29.62,32-5,13.76-15.49,21.61-28.93,25.75a104.35,104.35,0,0,1-19.62,4c-11.37,1.17-22.76,2.26-34.27,1a34.72,34.72,0,0,1-30.42-28.82c-2.12-13.23-.69-26.37.38-39.5,1.3-15.95,2.83-31.88,4.75-47.76a111.24,111.24,0,0,1,4.61-22C24.1,8.59,33,2.46,44.65,1,59-.84,73.38-.38,87.13,4.56,105,11,115.45,23.81,117.86,42.77,118.58,48.37,118.51,54.07,118.75,58.72Z"/><path d="M264,36.42c8.67.6,15.82,3.82,20.9,11a16.32,16.32,0,0,1,3.27,10.07c-.2,6-4.47,10.08-11.45,11.37-4.72.87-9.49,1.66-14.11,2.95C251.37,75,245.63,83.66,245,94.93c-.76,13.15,5.77,23,18.69,27.82,4.75,1.76,9.67,3.06,14.46,4.74s8.84,4.12,10.06,9.45c1.31,5.73-2.06,11.77-8.2,15-8.43,4.46-17.4,4.81-26.58,3.31-10.68-1.74-20-6.09-27.46-14.16-8.11-8.82-11.56-19.54-12.11-31.22a90.11,90.11,0,0,1,11.33-48.7c7-12.71,17.51-21.3,32.11-24.11C259.49,36.64,261.77,36.63,264,36.42Z"/><path d="M176.76,156.13c-7.47.26-14.87.26-21.89-2.79-8.82-3.83-13.83-10.84-15.11-20.13a100.49,100.49,0,0,1-.64-19.08c.62-11.73,1.67-23.44,2.82-35.14.71-7.29,1.62-14.58,3-21.78,2.25-12.06,8.74-18.47,20.91-20.25A69.58,69.58,0,0,1,195,39a20.54,20.54,0,0,1,5.38,2.43c9.1,5.79,9.26,17,.33,23.49-2.36,1.72-4.93,3.16-7.42,4.71-3.82,2.39-4.61,5.06-2.37,8.94,1.55,2.68,3.48,5.14,5,7.82,5.62,9.68,4.27,16.08-4.66,22.75-1.73,1.28-3.46,2.55-5.17,3.86-4.27,3.28-3.89,8.19,1,10.5,3.64,1.73,7.65,2.71,11.23,4.55a29.78,29.78,0,0,1,8.07,5.83c4.34,4.63,3.6,11.24-1.25,15.37-3.74,3.19-8.3,4.52-13,5.22C187.07,155.22,181.9,155.59,176.76,156.13Z"/><path d="M613,147.87c-6.24.22-12.43.22-18.29-2.33-7.37-3.2-11.56-9.06-12.63-16.82a85,85,0,0,1-.54-16c.52-9.8,1.41-19.59,2.36-29.37.59-6.09,1.36-12.19,2.48-18.2,1.87-10.08,7.3-15.44,17.48-16.92A58.12,58.12,0,0,1,628.22,50a17,17,0,0,1,4.5,2c7.61,4.84,7.73,14.19.27,19.63-2,1.44-4.12,2.64-6.2,3.94-3.2,2-3.85,4.23-2,7.47,1.3,2.24,2.91,4.3,4.2,6.54,4.7,8.09,3.57,13.44-3.89,19-1.44,1.07-2.9,2.13-4.32,3.22-3.57,2.75-3.25,6.85.85,8.79,3.05,1.44,6.4,2.26,9.39,3.8a25.08,25.08,0,0,1,6.74,4.87c3.63,3.87,3,9.4-1,12.84-3.13,2.67-6.94,3.79-10.87,4.37C621.6,147.11,617.28,147.42,613,147.87Z"/><path d="M679,273.62c-5.88.2-11.71.21-17.23-2.19a19.25,19.25,0,0,1-11.89-15.85,80.06,80.06,0,0,1-.51-15c.49-9.23,1.32-18.45,2.22-27.66.56-5.73,1.28-11.47,2.33-17.14,1.77-9.49,6.88-14.53,16.46-15.93a54.7,54.7,0,0,1,23,1.59,16.52,16.52,0,0,1,4.24,1.91c7.16,4.56,7.28,13.36.25,18.49-1.85,1.36-3.88,2.49-5.83,3.71-3,1.88-3.63,4-1.87,7,1.22,2.11,2.74,4.05,4,6.16,4.42,7.62,3.36,12.65-3.67,17.9-1.36,1-2.72,2-4.07,3-3.36,2.58-3.06,6.44.8,8.27,2.87,1.35,6,2.13,8.84,3.58a23.14,23.14,0,0,1,6.35,4.58c3.42,3.64,2.84,8.85-1,12.1-2.95,2.51-6.54,3.56-10.24,4.11C687.14,272.9,683.07,273.19,679,273.62Z"/><path d="M532.89,164.29c-12.52.14-23.26-1.73-32.61-8.52-5.64-4.1-9.67-9.5-10.49-16.6-.76-6.61,2.51-11.68,7.27-15.91,1.14-1,2.4-1.92,3.62-2.86,5.17-3.94,6-7,3.27-13-2.83-6.32-6.12-12.45-8.64-18.89-5.11-13.08-5.54-26.13,1.9-38.62,6.31-10.61,16.39-15.59,28-17.82A37.72,37.72,0,0,1,555,38.55c5.55,3.91,9.28,9.21,10.31,16,.73,4.87-1.71,11.55-8.48,15.54-1.89,1.12-3.87,2.12-5.74,3.28-3.4,2.09-4.2,4.62-2.12,8A74.81,74.81,0,0,0,554.75,89c5.09,6.4,10.82,12.38,15.21,19.22,7.58,11.83,6.4,26.33-1.85,37.68-7,9.59-16.38,15.09-27.9,17.19C537.38,163.65,534.53,164,532.89,164.29Z"/><path d="M483.22,84.47c-.38,12.62-.91,25.31-5.44,37.25-5.2,13.72-13.56,25-28.21,29.67-16.16,5.12-31.39,2.18-45.13-7.56s-19.08-23.61-19.5-39.83a152.18,152.18,0,0,1,6.71-49.73,26.78,26.78,0,0,1,5.55-9.51c3.92-4.4,9.7-3.8,13.33.84,3.9,5,4.71,11,5.59,16.94,1,6.61,1.48,13.33,3,19.8a28.75,28.75,0,0,0,5.29,10.92c6.54,8.28,18.76,7.55,23.9-3.16,3-6.22,4.42-13.16,6.82-19.68,1.86-5.07,3.59-10.31,6.37-14.88,4.12-6.77,11-6.65,15.94-.29,4.09,5.3,5.12,11.65,5.72,18C483.5,77,483.22,80.74,483.22,84.47Z"/><path d="M570.79,285.32c-.07,4.62-1.09,7.85-4.4,9.87s-6.66,1.28-9.66-.54a28.08,28.08,0,0,1-5.94-4.94c-3.82-4.11-7.7-8.09-13.67-8.7-5.81-.6-11.88-1.26-17,2-3,1.94-5.1,5.38-7.72,8-2.05,2.08-4,4.49-6.5,5.87-7,3.9-13.08-1.78-14.26-7.34-1-4.75.46-9.19,1.83-13.6a425.46,425.46,0,0,1,18.15-47.18c2.19-4.92,4.22-9.93,6.76-14.67,2.68-5,6.82-8.47,12.76-9.1a11.86,11.86,0,0,1,8.23,2.53c5.15,3.63,7.56,9.19,9.54,14.83,3.76,10.77,7.07,21.7,10.85,32.46,2.89,8.2,6.26,16.22,9.32,24.36C569.91,281.46,570.39,283.86,570.79,285.32Z"/><path d="M210,293.46c-7.47.26-14.87.27-21.89-2.79-8.82-3.83-13.83-10.84-15.11-20.13a100.49,100.49,0,0,1-.64-19.08c.62-11.73,1.67-23.44,2.82-35.14.71-7.29,1.62-14.58,3-21.78,2.25-12.06,8.74-18.47,20.91-20.25a69.59,69.59,0,0,1,29.18,2,20.54,20.54,0,0,1,5.38,2.43c9.1,5.79,9.26,17,.33,23.49C231.56,204,229,205.4,226.5,207c-3.82,2.39-4.61,5.07-2.37,8.94,1.55,2.68,3.48,5.14,5,7.82,5.62,9.68,4.27,16.08-4.66,22.75-1.73,1.28-3.47,2.55-5.17,3.86-4.27,3.28-3.89,8.19,1,10.51,3.65,1.72,7.66,2.7,11.24,4.54a30.15,30.15,0,0,1,8.07,5.83c4.34,4.63,3.6,11.24-1.25,15.37-3.74,3.19-8.3,4.52-13,5.22C220.29,292.55,215.12,292.92,210,293.46Z"/><path d="M486.54,227.14c0,12.59-.88,25.18-1.09,37.76a71.21,71.21,0,0,1-1.59,13.81c-1.42,6.62-7.07,11.85-12.66,12.49-5.08.58-12.85-4.44-15.08-10.59-1.93-5.31-3-10.94-4.31-16.47-.75-3.15-1-6.41-1.81-9.54-1.39-5.33-4.65-6.64-9.57-3.93-2.18,1.19-4.21,2.64-6.3,4-10.87,7.07-18.61,4.82-28.35-2-2.21-1.55-4.27-3.33-6.54-4.8-5.09-3.31-8.91-2.08-10.14,3.79-1.06,5-1.08,10.27-1.62,15.41-.58,5.56-.5,11.31-2,16.61-3.31,11.78-16.4,14.88-24.7,5.94a23,23,0,0,1-5.66-10.3,83.48,83.48,0,0,1-2-20.21c.78-19.41,2.16-38.79,3.49-58.17.57-8.41,1.21-16.85,2.52-25.17.91-5.81,3.37-11.25,8.64-14.73,7.94-5.24,16-2.79,22.32,3.26s9.65,13.74,13.53,21.22c2.69,5.17,5.39,10.36,8.48,15.29,5.51,8.78,14.91,8,20.35-.83,4.36-7.07,8.09-14.54,12.63-21.48,2.93-4.47,6.25-9,10.38-12.29,12-9.51,24-2.33,28,8.36A49.51,49.51,0,0,1,486.41,190c.41,12.36.13,24.74.13,37.11Z"/><path d="M443.07,448.78c-11.55-.24-19.77-1.76-27.2-6.2a37.63,37.63,0,0,1-18.77-29A76,76,0,0,1,409.73,361c6.54-9.76,15.74-16,27.64-17.68,7.48-1,14.36.89,20.62,4.78a61.13,61.13,0,0,1,26.16,32.86c3.83,11.09,2.88,22.08-.43,33A51.83,51.83,0,0,1,466.21,440C458.56,446.15,449.77,448.82,443.07,448.78Zm.14-39.62c3.38.08,6.13-1.65,7-4.56a12.25,12.25,0,0,0-2.76-12.25c-2.9-3.24-7.82-3.69-10.68-1.12s-3.61,7.55-2,11.8A9,9,0,0,0,443.21,409.16Z"/><path d="M599,259.09a65.11,65.11,0,0,1-14.56.5,33.9,33.9,0,0,1-8-1.54,22.79,22.79,0,0,1-15.2-19.21c-1-8.39.13-16.65.81-24.94.89-10.71,1.93-21.4,3-32.09.61-6.32,1.46-12.57,5.48-17.89,3.44-4.55,8.2-6.68,13.6-7.33a64.29,64.29,0,0,1,31.45,3.68c11,4.29,18.53,12.43,24,22.65a50.64,50.64,0,0,1,6,25.34c-.32,14.14-4,27.27-14,37.92a35.7,35.7,0,0,1-18.79,10.64C608.18,257.79,603.58,258.44,599,259.09Zm1.84-27.63c7.33,0,12-3.45,15.52-8.79s4.13-11.25,3.07-17.39c-1.51-8.8-6.11-15.43-14.31-19.24-5.89-2.74-11.93-.7-14.69,5.16a28,28,0,0,0-2.26,8.76c-.7,6.51-1.41,13.07-.19,19.62C589.12,225.79,593.94,232,600.82,231.46Z"/><path d="M78.21,250.12c.84-6.62,1.93-13.24,3.42-19.75a16.89,16.89,0,0,1,4-7.09c5.15-5.73,12.61-5,16.25,1.84,1.89,3.53,2.53,7.73,3.78,11.61a65.15,65.15,0,0,0,3.06,9,14.23,14.23,0,0,0,13.72,8.43c6.29-.08,11.44-4,13.57-10.19,1.36-4,2.22-8.07,3.65-12a19.89,19.89,0,0,1,3.59-6.24c4.15-4.66,9.84-4.52,14.31-.1s6.13,10.17,6.47,16.19c.59,10.47.85,21,1.07,31.46.15,7.27.17,14.54,0,21.81-.15,5.85-.63,11.77-4.58,16.61-4.45,5.45-12.06,5.78-16.2.08-3-4.13-5-9-7.26-13.63-2.68-5.63-6.47-10.06-12.58-11.87-9.19-2.74-16.47.55-19.89,9.38-1.35,3.49-1.77,7.34-3.08,10.84-1.15,3.08-2.38,6.46-4.58,8.73-5.68,5.88-13,3-17.2-2.62C76.31,308,75.32,302.53,75,297c-.08-1.34-.12-2.67-.12-4a148.73,148.73,0,0,1,.72-14.92Z"/><path d="M74,176.08a33.06,33.06,0,0,1,6.86,1c6.23,1.68,11.48,5.17,14.75,11.75,3.76,7.54.21,16.25-6.69,19.88a74.88,74.88,0,0,1-11.71,4.73c-8.64,2.82-12.59,9.36-13.11,18.59-.48,8.62-.17,17.29-.11,25.93.12,16,.48,31.91.42,47.86,0,7.6-1,15.16-7.74,20.27A17.57,17.57,0,0,1,32,322.9a32.33,32.33,0,0,1-7.43-20.48c0-13.16.73-26.31,1-39.47.27-11.91.55-23.83.5-35.74,0-9.15-5.39-14.78-13-19.1a34.18,34.18,0,0,1-10.31-8.77c-5.68-7.53-1.94-16.28,5.06-20.22a36.81,36.81,0,0,1,14.7-4.33c8.36-.66,16.81-.23,25.23-.19.67,0,1.35,0,2,.06Z"/><path d="M584.42,351.33c-.36,12.16-.87,24.39-5.23,35.89-5,13.21-13.08,24.11-27.19,28.58-15.56,4.93-30.24,2.1-43.48-7.28s-18.38-22.75-18.78-38.37a146.59,146.59,0,0,1,6.47-47.91,25.65,25.65,0,0,1,5.34-9.16c3.78-4.24,9.34-3.66,12.85.81,3.75,4.78,4.53,10.57,5.38,16.32.94,6.37,1.42,12.84,2.89,19.08a27.89,27.89,0,0,0,5.09,10.52c6.3,8,18.08,7.26,23-3.06,2.88-6,4.26-12.68,6.57-18.95,1.8-4.88,3.46-9.94,6.14-14.34,4-6.52,10.62-6.41,15.35-.28,3.95,5.1,4.94,11.22,5.51,17.38C584.69,344.12,584.42,347.74,584.42,351.33Z"/><path d="M333,226.68c-.24,5.57-3.62,12.26-7.38,18.77-5.67,9.84-12.12,19.22-16.15,30-3.43,9.12-4.26,18.47-3.84,28.09a67.64,67.64,0,0,1-.59,12.4c-1,6.75-4.61,11.93-11.23,13.91-7.33,2.2-13.82-.27-19.09-5.63-4.8-4.89-7-11.11-7.87-17.74-1.31-9.53-2.27-19.12-3.66-28.63-2.05-13.95-7.54-26.69-13.73-39.24A87.27,87.27,0,0,1,243.59,222c-1.43-5.43.39-10.33,4.78-13.92,4-3.29,8.51-3.17,13.22-1.35,6.64,2.56,11.1,7.75,15.77,12.68,6.8,7.17,13.7,8,21.3,2.37,2-1.51,3.79-3.38,5.79-4.94a50.89,50.89,0,0,1,7.41-5.26C322.84,205.86,332.87,212.07,333,226.68Z"/><path d="M413.2,325.85c-.25,5.85-3.79,12.85-7.73,19.68-6,10.31-12.71,20.15-16.94,31.42-3.59,9.56-4.46,19.35-4,29.44a70.64,70.64,0,0,1-.62,13c-1,7.07-4.83,12.51-11.77,14.59-7.69,2.3-14.49-.3-20-5.91-5-5.12-7.29-11.64-8.25-18.6-1.38-10-2.38-20-3.84-30-2.15-14.62-7.9-28-14.39-41.13A92.7,92.7,0,0,1,319.49,321c-1.49-5.69.42-10.84,5-14.6,4.21-3.44,8.91-3.31,13.86-1.41,7,2.69,11.63,8.13,16.53,13.29,7.13,7.52,14.36,8.42,22.33,2.49,2.12-1.59,4-3.55,6.07-5.18a52.72,52.72,0,0,1,7.77-5.52C402.58,304,413.09,310.54,413.2,325.85Z"/></g></g></svg>