<svg xmlns="http://www.w3.org/2000/svg" viewBox="0 0 665.78 426.86"><g id="Layer_2" data-name="Layer 2"><g id="Layer_1-2" data-name="Layer 1"><path d="M341.33,110.15c-.09,5.47-1.3,9.29-5.22,11.69s-7.87,1.51-11.43-.65a33.3,33.3,0,0,1-7-5.84c-4.52-4.87-9.11-9.58-16.17-10.3-6.88-.71-14.06-1.49-20.13,2.37-3.6,2.29-6,6.36-9.14,9.5-2.43,2.46-4.74,5.32-7.69,7-8.3,4.61-15.49-2.12-16.88-8.7-1.18-5.62.55-10.87,2.16-16.09a505.12,505.12,0,0,1,21.48-55.84c2.59-5.82,5-11.74,8-17.35,3.18-5.95,8.07-10,15.1-10.78,3.65-.39,6.89,1,9.75,3,6.08,4.3,8.95,10.88,11.28,17.56,4.45,12.75,8.37,25.68,12.85,38.41,3.41,9.7,7.41,19.2,11,28.84C340.28,105.59,340.85,108.42,341.33,110.15Z"/><path d="M106,52c-1.37,11.71.7,22.08,3.92,32.33,2.93,9.36,4,18.86.55,28.34-4.41,12.19-13.72,19.14-25.63,22.81a91.89,91.89,0,0,1-17.37,3.57c-10.07,1-20.16,2-30.35.9A30.76,30.76,0,0,1,10.2,114.44c-1.88-11.72-.6-23.36.34-35,1.15-14.12,2.51-28.24,4.2-42.3a98.56,98.56,0,0,1,4.09-19.44C22.21,7.61,30.11,2.18,40.4.87,53.1-.75,65.85-.33,78,4c15.83,5.68,25.09,17.06,27.23,33.85C105.88,42.84,105.82,47.88,106,52Z"/><path d="M225.59,40.27c7.68.53,14,3.38,18.51,9.77A14.43,14.43,0,0,1,247,59c-.17,5.3-4,8.93-10.13,10.07-4.19.77-8.41,1.47-12.5,2.61-10,2.77-15.05,10.47-15.63,20.45-.67,11.65,5.11,20.4,16.56,24.63,4.21,1.56,8.57,2.71,12.8,4.21s7.83,3.64,8.91,8.36c1.16,5.08-1.82,10.43-7.26,13.3-7.47,3.95-15.41,4.26-23.53,2.93-9.47-1.54-17.76-5.39-24.33-12.55-7.18-7.81-10.24-17.3-10.73-27.64a79.88,79.88,0,0,1,10-43.13c6.24-11.26,15.51-18.87,28.44-21.36A58.93,58.93,0,0,1,225.59,40.27Z"/><path d="M150.07,149.78c-6.62.23-13.18.23-19.39-2.47-7.81-3.39-12.25-9.61-13.38-17.83a89.16,89.16,0,0,1-.57-16.9c.55-10.39,1.48-20.76,2.49-31.12.64-6.46,1.44-12.92,2.63-19.29,2-10.68,7.74-16.36,18.52-17.93A61.55,61.55,0,0,1,166.21,46,18.29,18.29,0,0,1,171,48.18c8.06,5.13,8.2,15,.29,20.81-2.09,1.52-4.37,2.8-6.57,4.17-3.39,2.12-4.09,4.49-2.1,7.91,1.37,2.38,3.08,4.56,4.46,6.93,5,8.58,3.78,14.24-4.14,20.15-1.52,1.14-3.06,2.26-4.57,3.42-3.79,2.91-3.45,7.25.9,9.31,3.23,1.52,6.78,2.39,9.95,4a26.54,26.54,0,0,1,7.14,5.16c3.85,4.11,3.19,10-1.1,13.62-3.32,2.83-7.35,4-11.52,4.62C159.2,149,154.62,149.3,150.07,149.78Z"/><path d="M533.89,102.79c-5.53.19-11,.19-16.2-2.06A18.11,18.11,0,0,1,506.5,85.82,74.82,74.82,0,0,1,506,71.7c.46-8.68,1.24-17.35,2.08-26,.53-5.4,1.21-10.8,2.2-16.12,1.66-8.93,6.47-13.68,15.48-15a51.37,51.37,0,0,1,21.59,1.5,15.09,15.09,0,0,1,4,1.8c6.74,4.28,6.85,12.56.24,17.39-1.75,1.27-3.65,2.33-5.49,3.48-2.83,1.77-3.42,3.75-1.76,6.62,1.15,2,2.58,3.8,3.73,5.79,4.16,7.17,3.16,11.9-3.45,16.83-1.28,1-2.57,1.89-3.83,2.86-3.16,2.43-2.88,6.07.75,7.78,2.7,1.28,5.67,2,8.32,3.37a21.83,21.83,0,0,1,6,4.31c3.22,3.43,2.67,8.32-.92,11.38a18.48,18.48,0,0,1-9.63,3.86C541.52,102.11,537.7,102.39,533.89,102.79Z"/><path d="M467.58,140.44c-11.09.13-20.6-1.53-28.88-7.55-5-3.63-8.57-8.41-9.29-14.7-.67-5.85,2.22-10.35,6.43-14.09,1-.9,2.13-1.7,3.21-2.53,4.58-3.49,5.3-6.16,2.9-11.5-2.51-5.6-5.42-11-7.65-16.73-4.53-11.58-4.91-23.14,1.67-34.2,5.6-9.4,14.52-13.81,24.82-15.78a33.36,33.36,0,0,1,26.4,5.72,20.84,20.84,0,0,1,9.14,14.2c.64,4.32-1.52,10.23-7.51,13.77-1.68,1-3.43,1.87-5.09,2.9-3,1.85-3.72,4.1-1.88,7.13a68.17,68.17,0,0,0,5.09,6.72c4.51,5.66,9.58,11,13.47,17,6.71,10.48,5.67,23.32-1.64,33.37-6.18,8.49-14.51,13.36-24.71,15.22C471.56,139.87,469,140.21,467.58,140.44Z"/><path d="M425.39,39.89c-.35,11.78-.85,23.64-5.07,34.79C415.45,87.49,407.64,98.06,394,102.4c-15.09,4.77-29.32,2-42.16-7.07s-17.82-22-18.22-37.2a142.44,142.44,0,0,1,6.28-46.46A25,25,0,0,1,345,2.79c3.66-4.1,9.06-3.55,12.46.79,3.63,4.63,4.39,10.25,5.22,15.82.91,6.18,1.37,12.45,2.8,18.5a27,27,0,0,0,4.93,10.2c6.11,7.73,17.53,7,22.33-3,2.79-5.81,4.13-12.29,6.37-18.38,1.74-4.73,3.36-9.63,6-13.9C409,6.54,415.4,6.65,420,12.59c3.83,4.95,4.79,10.88,5.34,16.85C425.66,32.89,425.39,36.4,425.39,39.89Z"/><path d="M136.47,300.3c-11.24-.23-19.24-1.7-26.47-6A36.59,36.59,0,0,1,91.73,266,74,74,0,0,1,104,214.81c6.36-9.49,15.32-15.59,26.9-17.21,7.28-1,14,.87,20.07,4.66a59.49,59.49,0,0,1,25.47,32c3.73,10.79,2.8,21.49-.42,32.15a50.47,50.47,0,0,1-17,25.39C151.55,297.75,143,300.35,136.47,300.3Zm.14-38.56c3.29.07,6-1.6,6.79-4.44a11.94,11.94,0,0,0-2.68-11.92c-2.83-3.16-7.62-3.6-10.4-1.09s-3.51,7.35-2,11.48A8.73,8.73,0,0,0,136.61,261.74Z"/><path d="M281.17,212.63c-.38,12.72-.91,25.51-5.48,37.54C270.45,264,262,275.41,247.26,280.08c-16.29,5.15-31.64,2.19-45.49-7.62s-19.23-23.8-19.66-40.15a153.75,153.75,0,0,1,6.77-50.12,27,27,0,0,1,5.59-9.58c3.95-4.43,9.77-3.83,13.44.85,3.93,5,4.75,11.06,5.63,17.07,1,6.66,1.49,13.43,3,20a29,29,0,0,0,5.32,11c6.6,8.35,18.92,7.61,24.1-3.19,3-6.26,4.45-13.26,6.87-19.83,1.88-5.11,3.62-10.39,6.42-15,4.15-6.83,11.11-6.71,16.06-.3,4.13,5.34,5.17,11.74,5.77,18.18C281.46,205.09,281.17,208.87,281.17,212.63Z"/><path d="M108,175.37c-.29,6.7-4.35,14.73-8.86,22.56-6.82,11.82-14.57,23.1-19.42,36-4.12,11-5.12,22.2-4.61,33.76a81.67,81.67,0,0,1-.71,14.91c-1.16,8.11-5.54,14.34-13.5,16.72C52.1,302,44.3,299,38,292.56c-5.77-5.87-8.36-13.34-9.46-21.32-1.58-11.45-2.72-23-4.4-34.41-2.47-16.76-9.06-32.07-16.5-47.16a105.66,105.66,0,0,1-7-19.92c-1.71-6.53.48-12.43,5.76-16.74,4.82-3.94,10.22-3.8,15.88-1.62,8,3.08,13.34,9.32,19,15.24,8.17,8.62,16.46,9.65,25.6,2.85,2.44-1.81,4.55-4.07,7-5.94,2.87-2.23,5.7-4.66,8.91-6.32C95.83,150.35,107.89,157.81,108,175.37Z"/><path d="M484.3,243c-.09,5.29-1.25,9-5,11.29s-7.61,1.46-11.05-.62a32.39,32.39,0,0,1-6.78-5.64c-4.38-4.71-8.81-9.26-15.63-10-6.65-.68-13.59-1.44-19.46,2.3-3.48,2.21-5.83,6.14-8.82,9.17-2.36,2.38-4.59,5.14-7.44,6.72-8,4.46-15-2-16.3-8.4-1.15-5.43.52-10.5,2.08-15.55a489.22,489.22,0,0,1,20.76-53.95c2.5-5.62,4.83-11.35,7.73-16.77,3.06-5.75,7.8-9.69,14.59-10.42,3.52-.38,6.65.95,9.41,2.9,5.89,4.15,8.65,10.51,10.91,17,4.3,12.32,8.09,24.81,12.42,37.12,3.29,9.37,7.15,18.55,10.64,27.86A71.75,71.75,0,0,1,484.3,243Z"/><path d="M367.82,157.12c9.77.67,17.83,4.31,23.57,12.45a18.43,18.43,0,0,1,3.68,11.36c-.22,6.74-5,11.37-12.91,12.82-5.33,1-10.7,1.87-15.91,3.32-12.7,3.53-19.17,13.33-19.91,26-.85,14.83,6.51,26,21.09,31.38,5.36,2,10.91,3.45,16.3,5.35s10,4.64,11.35,10.65c1.48,6.46-2.32,13.27-9.24,16.93-9.52,5-19.63,5.42-30,3.74-12.05-2-22.61-6.87-31-16-9.14-9.95-13-22-13.66-35.21A101.73,101.73,0,0,1,324,185c7.94-14.33,19.74-24,36.21-27.2C362.71,157.37,365.28,157.35,367.82,157.12Z"/><path d="M577,207c0,7.81.07,15.61,0,23.42a23.56,23.56,0,0,1-3.33,12.49c-3.37,5.4-10.17,7.39-16.63,4.75s-11.38-7.7-16.11-12.78c-4.06-4.35-8.06-8.78-12.31-12.94a19.8,19.8,0,0,0-5.94-3.81c-3.71-1.61-6.68-.51-8.14,3.24-1.22,3.15-1.7,6.58-2.55,9.88-.92,3.6-1.37,7.42-2.93,10.72-3.82,8.1-12.84,8.45-17.86,1-3.68-5.47-4.6-11.67-4.34-18,.37-8.75,1.24-17.47,1.9-26.2.61-8,1-16.07,1.91-24,.58-4.83,1.34-9.87,3.29-14.25,4.35-9.84,14.18-11.5,22.34-4.46,4,3.47,6.57,7.91,9.21,12.36,2.94,5,5.85,10,9.12,14.75a14.71,14.71,0,0,0,5.27,4.31c3.3,1.75,6.74.63,8.1-2.88,1.64-4.26,2.49-8.82,3.92-13.18a37.45,37.45,0,0,1,3.64-8.71c4.45-6.9,11.45-6.44,16.38-.4,3.79,4.66,5,10.28,5.07,16.06.19,9.55,0,19.11,0,28.66Z"/><path d="M280.32,370.75c0,9.68.09,19.36,0,29a29.11,29.11,0,0,1-4.13,15.48c-4.17,6.7-12.61,9.17-20.62,5.89-8.18-3.34-14.12-9.54-20-15.84-5-5.4-10-10.89-15.26-16.05a24.76,24.76,0,0,0-7.37-4.72c-4.6-2-8.28-.63-10.08,4-1.52,3.91-2.12,8.16-3.17,12.25-1.14,4.46-1.7,9.2-3.63,13.29-4.74,10-15.93,10.47-22.15,1.23-4.57-6.77-5.71-14.46-5.38-22.29.46-10.84,1.54-21.65,2.36-32.48.75-9.94,1.19-19.92,2.37-29.82.71-6,1.66-12.23,4.07-17.67,5.39-12.2,17.59-14.27,27.7-5.52,5,4.29,8.15,9.8,11.42,15.32,3.65,6.16,7.25,12.39,11.31,18.28a18.3,18.3,0,0,0,6.54,5.35c4.09,2.16,8.36.77,10-3.58,2-5.28,3.09-10.93,4.86-16.33,1.22-3.71,2.43-7.58,4.51-10.81,5.53-8.55,14.2-8,20.31-.49,4.7,5.77,6.15,12.75,6.29,19.91.23,11.85.07,23.7.07,35.54Z"/><path d="M337.61,426.86c-11.67-.24-20-1.77-27.47-6.27-11.09-6.62-17.45-16.62-19-29.3a76.77,76.77,0,0,1,12.75-53.15c6.61-9.85,15.9-16.18,27.92-17.86,7.56-1,14.51.9,20.83,4.83a61.75,61.75,0,0,1,26.43,33.19c3.87,11.2,2.9,22.3-.43,33.37A52.39,52.39,0,0,1,361,418C353.26,424.2,344.38,426.9,337.61,426.86Zm.14-40c3.42.08,6.19-1.66,7.05-4.61A12.4,12.4,0,0,0,342,369.86c-2.93-3.27-7.91-3.73-10.79-1.13s-3.65,7.62-2,11.91A9,9,0,0,0,337.75,386.84Z"/><path d="M647.48,109.46a26.89,26.89,0,0,1,5.43.82,17.36,17.36,0,0,1,11.66,9.3,11.91,11.91,0,0,1-5.29,15.72A59.57,59.57,0,0,1,650,139c-6.83,2.23-10,7.4-10.37,14.71-.38,6.81-.14,13.67-.08,20.51.09,12.61.37,25.23.33,37.85,0,6-.75,12-6.13,16a13.89,13.89,0,0,1-19.5-2.54,25.59,25.59,0,0,1-5.88-16.2c0-10.41.58-20.81.81-31.22.22-9.42.44-18.84.4-28.26,0-7.24-4.26-11.69-10.31-15.11a26.73,26.73,0,0,1-8.15-6.94c-4.5-6-1.54-12.87,4-16a29,29,0,0,1,11.62-3.42c6.62-.52,13.3-.18,20-.15.53,0,1.06,0,1.59,0Z"/><path d="M431.83,302.27a26.79,26.79,0,0,1,5.42.82,17.35,17.35,0,0,1,11.67,9.3,11.91,11.91,0,0,1-5.29,15.72,60.09,60.09,0,0,1-9.27,3.74c-6.83,2.23-9.95,7.4-10.36,14.71-.38,6.81-.14,13.67-.09,20.5.1,12.62.38,25.24.33,37.85,0,6-.75,12-6.12,16a13.89,13.89,0,0,1-19.5-2.54,25.56,25.56,0,0,1-5.88-16.2c0-10.41.57-20.81.81-31.22.22-9.42.44-18.84.4-28.26,0-7.24-4.26-11.69-10.32-15.11a27.11,27.11,0,0,1-8.15-6.94c-4.49-6-1.54-12.88,4-16a29,29,0,0,1,11.63-3.42c6.61-.52,13.3-.18,20-.16.53,0,1.06,0,1.59,0Z"/><path d="M593.61,144.94a21.09,21.09,0,0,1,2.57,7.72c1.17,8.6,2.11,17,1.87,25.38a17.44,17.44,0,0,1-2.29,7.09c-1.4,2.71-3.79,2.94-6.16,1-3.32-2.68-4.67-6.46-5.55-10.41-1.35-6.07-2.68-12.16-3.7-18.29a41,41,0,0,1-.42-9.89,9.28,9.28,0,0,1,2.43-5c2.86-3.17,7.62-2.66,10.36,1A14.41,14.41,0,0,1,593.61,144.94Z"/></g></g></svg>