<svg xmlns="http://www.w3.org/2000/svg" viewBox="0 0 707.09 483.5"><g id="Layer_2" data-name="Layer 2"><g id="Layer_1-2" data-name="Layer 1"><path d="M115.29,361.75a44.09,44.09,0,0,1-.06,20.59c-1.46,6.24-2.9,12.42-4.39,18.58a69.11,69.11,0,0,0-.32,31.88c1.43,6.34,3.44,12.56,4.6,18.95,1.86,10.3.89,20.17-8.42,26.81C94.28,487.42,73,484.83,65.18,467c-4.19-9.57-2.94-19.16-.67-28.87,2.64-11.3,5.79-22.55,7.34-34,1.15-8.56.2-17.42,0-26.14-.15-6.36-.19-12.66,2.11-18.71,4.06-10.68,11.53-14.72,21-14.95,9-.21,17.07,6.38,19.91,16C115,360.79,115.17,361.27,115.29,361.75Z"/><path d="M167.34,319.32a25.49,25.49,0,0,1,7.26,1.15,17.91,17.91,0,0,1,11.05,9.39,12.48,12.48,0,0,1-5.55,16.48,61.65,61.65,0,0,1-9.71,3.93c-7.16,2.33-10.43,7.75-10.86,15.41-.4,7.15-.15,14.33-.09,21.5.1,13.22.39,26.45.34,39.68,0,6.3-.78,12.56-6.42,16.8A14.56,14.56,0,0,1,132.92,441a26.85,26.85,0,0,1-6.16-17c0-10.91.6-21.81.85-32.72.23-9.88.46-19.75.42-29.63,0-7.59-4.47-12.25-10.81-15.84a28.13,28.13,0,0,1-8.55-7.27c-4.71-6.24-1.61-13.5,4.2-16.76a29.31,29.31,0,0,1,8.55-3.09,26.34,26.34,0,0,1,5.81-.44Z"/><path d="M404.08,114.65c-.1,6.18-1.46,10.5-5.89,13.2s-8.89,1.71-12.91-.73a37.58,37.58,0,0,1-7.93-6.59c-5.11-5.5-10.29-10.82-18.26-11.63-7.77-.8-15.87-1.68-22.73,2.68-4.07,2.58-6.82,7.18-10.32,10.72-2.75,2.78-5.35,6-8.68,7.85-9.37,5.21-17.49-2.39-19.06-9.81-1.34-6.35.62-12.28,2.44-18.17a570.4,570.4,0,0,1,24.26-63c2.92-6.58,5.64-13.27,9-19.6,3.59-6.72,9.12-11.32,17.06-12.17,4.11-.45,7.77,1.1,11,3.38C369,15.6,372.18,23,374.82,30.57c5,14.38,9.45,29,14.51,43.36,3.85,10.95,8.36,21.68,12.44,32.56C402.9,109.5,403.54,112.7,404.08,114.65Z"/><path d="M142.52,58.72c-1.55,13.22.8,24.93,4.42,36.51,3.31,10.57,4.5,21.29.63,32-5,13.76-15.5,21.61-28.94,25.75A104.19,104.19,0,0,1,99,157c-11.36,1.17-22.76,2.26-34.26,1a34.74,34.74,0,0,1-30.43-28.82c-2.12-13.23-.68-26.37.39-39.5C36,73.76,37.53,57.83,39.45,42a111.24,111.24,0,0,1,4.61-22C47.88,8.59,56.8,2.46,68.42,1,82.76-.84,97.15-.38,110.9,4.56c17.87,6.41,28.32,19.25,30.74,38.21C142.35,48.37,142.28,54.07,142.52,58.72Z"/><path d="M279.5,42.75c8.66.6,15.81,3.82,20.9,11a16.34,16.34,0,0,1,3.26,10.08c-.19,6-4.47,10.08-11.45,11.36-4.72.87-9.48,1.66-14.1,3-11.26,3.13-17,11.82-17.65,23.09-.76,13.15,5.77,23,18.69,27.81,4.76,1.76,9.68,3.06,14.46,4.75s8.84,4.11,10.06,9.44c1.31,5.73-2.06,11.77-8.19,15-8.44,4.46-17.4,4.8-26.58,3.31-10.69-1.75-20-6.09-27.47-14.17-8.11-8.82-11.56-19.54-12.11-31.21A90.18,90.18,0,0,1,240.66,67.5c7-12.7,17.5-21.3,32.11-24.11C275,43,277.25,43,279.5,42.75Z"/><path d="M192.24,169.11c-7.47.26-14.87.27-21.89-2.78-8.82-3.84-13.82-10.85-15.11-20.13a102.2,102.2,0,0,1-.64-19.08c.62-11.73,1.68-23.45,2.82-35.14.71-7.29,1.62-14.59,3-21.78,2.25-12.07,8.75-18.47,20.92-20.25a69.53,69.53,0,0,1,29.17,2,20.6,20.6,0,0,1,5.39,2.43c9.1,5.79,9.25,17,.32,23.49-2.36,1.73-4.93,3.16-7.41,4.72-3.83,2.39-4.62,5.06-2.38,8.93,1.56,2.68,3.48,5.14,5,7.82,5.62,9.69,4.28,16.08-4.66,22.75-1.72,1.29-3.46,2.55-5.17,3.86-4.27,3.28-3.89,8.19,1,10.51,3.65,1.72,7.66,2.7,11.23,4.55a29.8,29.8,0,0,1,8.07,5.82c4.35,4.63,3.6,11.25-1.24,15.38-3.75,3.19-8.31,4.52-13,5.22C202.55,168.2,197.39,168.57,192.24,169.11Z"/><path d="M638.4,107.47c-6.24.22-12.43.22-18.29-2.33-7.38-3.2-11.56-9.06-12.63-16.82a84.15,84.15,0,0,1-.54-15.95c.52-9.8,1.4-19.59,2.36-29.37.59-6.09,1.35-12.19,2.47-18.2,1.88-10.08,7.31-15.44,17.48-16.92a58.12,58.12,0,0,1,24.38,1.69,17.1,17.1,0,0,1,4.51,2c7.6,4.84,7.73,14.19.27,19.63-2,1.44-4.12,2.64-6.2,3.94-3.2,2-3.86,4.23-2,7.47,1.29,2.24,2.9,4.3,4.2,6.54,4.7,8.09,3.57,13.43-3.9,19-1.44,1.07-2.89,2.13-4.31,3.22-3.58,2.75-3.26,6.85.84,8.79,3.05,1.44,6.4,2.26,9.39,3.8a25,25,0,0,1,6.75,4.87c3.63,3.87,3,9.4-1,12.84-3.14,2.67-6.94,3.79-10.87,4.37C647,106.71,642.7,107,638.4,107.47Z"/><path d="M560.3,136.05c-12.52.14-23.26-1.73-32.61-8.53-5.64-4.1-9.67-9.5-10.49-16.6-.76-6.6,2.51-11.68,7.27-15.9,1.14-1,2.4-1.92,3.62-2.86,5.17-3.94,6-7,3.27-13-2.83-6.31-6.12-12.45-8.64-18.88-5.11-13.08-5.54-26.13,1.9-38.62,6.31-10.62,16.39-15.6,28-17.82a37.72,37.72,0,0,1,29.81,6.46c5.55,3.91,9.28,9.21,10.31,16,.73,4.87-1.71,11.55-8.48,15.54-1.89,1.12-3.87,2.12-5.74,3.27-3.4,2.1-4.2,4.63-2.12,8.05a74.81,74.81,0,0,0,5.74,7.59C587.25,67.2,593,73.18,597.37,80c7.58,11.83,6.4,26.33-1.85,37.68-7,9.59-16.38,15.09-27.9,17.19C564.79,135.41,561.94,135.79,560.3,136.05Z"/><path d="M512.39,67.88c-.4,13.31-1,26.69-5.74,39.28-5.49,14.47-14.31,26.41-29.75,31.3-17,5.39-33.11,2.29-47.6-8s-20.13-24.9-20.57-42A160.84,160.84,0,0,1,415.81,36a28.44,28.44,0,0,1,5.85-10c4.14-4.63,10.23-4,14.07.89,4.1,5.23,5,11.58,5.89,17.87,1,7,1.56,14,3.17,20.88a30.25,30.25,0,0,0,5.57,11.52c6.89,8.73,19.79,8,25.21-3.34,3.15-6.56,4.66-13.88,7.19-20.75,2-5.35,3.79-10.88,6.72-15.69,4.34-7.14,11.62-7,16.81-.31,4.32,5.58,5.4,12.28,6,19C512.69,60,512.39,63.94,512.39,67.88Z"/><path d="M291.09,219c-.4,13.3-1,26.69-5.73,39.28-5.49,14.47-14.32,26.4-29.76,31.29-17,5.4-33.11,2.3-47.6-8s-20.12-24.9-20.57-42a160.84,160.84,0,0,1,7.08-52.45,28.44,28.44,0,0,1,5.85-10c4.14-4.63,10.23-4,14.07.89,4.1,5.23,5,11.57,5.89,17.87,1,7,1.56,14,3.17,20.88a30.39,30.39,0,0,0,5.57,11.52c6.9,8.73,19.79,8,25.21-3.34,3.15-6.56,4.66-13.88,7.19-20.76,2-5.34,3.79-10.87,6.72-15.69,4.34-7.14,11.63-7,16.81-.31,4.32,5.59,5.41,12.29,6,19C291.39,211.1,291.09,215.06,291.09,219Z"/><path d="M571.23,292.46c-8.56.29-17,.3-25.07-3.19-10.1-4.39-15.83-12.42-17.3-23.06a116.31,116.31,0,0,1-.74-21.84c.71-13.44,1.92-26.85,3.23-40.25.82-8.34,1.86-16.7,3.39-24.94,2.58-13.81,10-21.15,24-23.19a79.62,79.62,0,0,1,33.4,2.32,23.8,23.8,0,0,1,6.17,2.78c10.42,6.63,10.6,19.45.37,26.91-2.7,2-5.64,3.62-8.49,5.39-4.38,2.74-5.29,5.8-2.72,10.23,1.78,3.07,4,5.89,5.77,9,6.43,11.09,4.89,18.42-5.35,26-2,1.48-4,2.92-5.91,4.42-4.9,3.76-4.46,9.38,1.16,12,4.18,2,8.77,3.09,12.86,5.21A33.87,33.87,0,0,1,605.2,267c5,5.3,4.13,12.87-1.42,17.6-4.29,3.66-9.51,5.18-14.89,6C583,291.41,577.12,291.84,571.23,292.46Z"/><path d="M418.41,175.19a27.36,27.36,0,0,1-.13,12.47q-1.32,5.64-2.66,11.22a42.36,42.36,0,0,0-.19,19.49c.87,3.88,2.1,7.68,2.81,11.58,1.14,6.3.55,12.33-5.14,16.39-7.6,5.42-20.61,3.83-25.39-7.06-2.56-5.85-1.79-11.71-.41-17.65,1.62-6.91,3.54-13.79,4.49-20.79.7-5.23.12-10.65,0-16-.09-3.89-.11-7.74,1.29-11.44,2.48-6.53,7.05-9,12.87-9.14,5.48-.12,10.43,3.9,12.17,9.78C418.22,174.43,418.32,174.81,418.41,175.19Z"/><path d="M428.6,211.36c.86-7.55,1.66-15.12,2.92-22.61.87-5.13,2.72-10,6.67-13.77,5.17-5,11.93-4.94,16.8.39a35.69,35.69,0,0,1,5.25,6.86c5.71,10.69,14.68,9.63,22.56,3.46,4.3-3.37,8.58-6.79,13.09-9.85a15.84,15.84,0,0,1,12-2.84A11.69,11.69,0,0,1,517,187.22c-1.48,6.33-5.37,11.31-9.22,16.3-4,5.18-7.9,10.34-9.21,17-1.49,7.59.4,14.36,4.63,20.48,4.36,6.33,9.33,12.24,13.64,18.61a50.61,50.61,0,0,1,5.69,11.22A11.66,11.66,0,0,1,510,286.29a29.63,29.63,0,0,1-15-7.06c-4.88-4.06-9.31-8.67-14.28-12.62a28.12,28.12,0,0,0-8.61-4.33,8,8,0,0,0-9.51,4.15c-1.81,3.5-3.15,7.23-4.76,10.82-2.12,4.73-5.13,8.67-10.25,10.36-6,2-12.93-1.1-17.11-7.24-3.35-4.93-4.61-10.53-5.16-16.31-.06-.67-.11-1.34-.16-2a110,110,0,0,1,.34-18.06Z"/><path d="M372.63,174.35c-.57,11.24-1.38,22.46-1.65,33.71-.28,11.57.57,23,6,33.66,4.51,8.8,12,14.2,20.26,18.75,5.7,3.13,11.75,5.73,17.14,9.32,12,8,11.69,21.47-.9,28.47a72.26,72.26,0,0,1-20.45,7.33c-12.81,2.6-25.83,3.21-38.51-1.2-17.25-6-27-18.57-30.3-36.16-2.75-14.72-1.38-29.47.83-44.2s3.41-29.48,5.79-44.11a198.23,198.23,0,0,1,6.75-26.74,21.56,21.56,0,0,1,6.1-9c7.73-7,17.38-4.74,22.59,4.89C369.5,155,372,166.14,372.63,174.35Z"/><path d="M136.43,310.15c-11.65-.24-19.94-1.77-27.45-6.26a37.92,37.92,0,0,1-18.93-29.28,76.66,76.66,0,0,1,12.74-53.1c6.6-9.84,15.88-16.17,27.89-17.84,7.55-1,14.49.89,20.81,4.82a61.71,61.71,0,0,1,26.4,33.16c3.87,11.2,2.91,22.29-.43,33.34a52.28,52.28,0,0,1-17.67,26.32C152.07,307.5,143.2,310.2,136.43,310.15Zm.15-40c3.41.07,6.18-1.66,7-4.61a12.36,12.36,0,0,0-2.78-12.35c-2.93-3.28-7.9-3.73-10.78-1.14s-3.65,7.62-2,11.91A9,9,0,0,0,136.58,270.17Z"/><path d="M204.52,457.91c-10.33.12-19.2-1.43-26.91-7-4.65-3.39-8-7.84-8.65-13.7-.63-5.45,2.07-9.64,6-13.12,1-.84,2-1.59,3-2.36,4.26-3.26,4.94-5.74,2.7-10.72-2.34-5.21-5-10.27-7.13-15.58-4.22-10.79-4.57-21.56,1.56-31.87,5.22-8.75,13.53-12.86,23.13-14.7a31.12,31.12,0,0,1,24.59,5.33,19.43,19.43,0,0,1,8.51,13.24c.61,4-1.41,9.52-7,12.82-1.57.92-3.19,1.75-4.74,2.7-2.81,1.73-3.47,3.82-1.75,6.64a60.78,60.78,0,0,0,4.73,6.26c4.21,5.28,8.94,10.21,12.56,15.86,6.25,9.76,5.28,21.73-1.53,31.09-5.76,7.91-13.52,12.45-23,14.19C208.23,457.38,205.87,457.7,204.52,457.91Z"/><path d="M112.72,187.07c-.3,7-4.53,15.37-9.25,23.55-7.11,12.33-15.2,24.1-20.26,37.59-4.3,11.44-5.34,23.16-4.82,35.23A84.32,84.32,0,0,1,77.65,299c-1.2,8.46-5.77,15-14.08,17.45-9.2,2.76-17.34-.35-23.94-7.07-6-6.13-8.73-13.93-9.88-22.25-1.65-12-2.84-24-4.59-35.92C22.59,233.72,15.71,217.74,7.94,202A109.53,109.53,0,0,1,.6,181.2c-1.79-6.81.5-13,6-17.46,5-4.12,10.67-4,16.58-1.69C31.51,165.26,37.1,171.77,43,178c8.54,9,17.19,10.07,26.72,3,2.55-1.9,4.75-4.25,7.26-6.2,3-2.33,6-4.87,9.3-6.61C100,161,112.59,168.74,112.72,187.07Z"/><path d="M521.4,426.27c-.09,5.53-1.3,9.39-5.26,11.81s-7.95,1.52-11.55-.66a33.32,33.32,0,0,1-7.09-5.89c-4.57-4.92-9.2-9.68-16.34-10.41-7-.71-14.2-1.5-20.33,2.4-3.64,2.31-6.1,6.42-9.23,9.59-2.45,2.49-4.79,5.37-7.76,7-8.39,4.65-15.65-2.14-17-8.79-1.2-5.67.55-11,2.18-16.25a511.13,511.13,0,0,1,21.7-56.39c2.61-5.87,5.05-11.86,8.07-17.52,3.21-6,8.15-10.13,15.26-10.89,3.67-.4,6.95,1,9.84,3,6.14,4.35,9,11,11.39,17.74,4.5,12.87,8.46,25.92,13,38.78,3.45,9.8,7.48,19.4,11.13,29.13A75.3,75.3,0,0,1,521.4,426.27Z"/><path d="M678,439.45c-6.67.23-13.28.23-19.55-2.49-7.88-3.43-12.35-9.69-13.5-18a90.74,90.74,0,0,1-.57-17.05c.55-10.48,1.5-20.94,2.52-31.39.63-6.51,1.45-13,2.64-19.45,2-10.78,7.81-16.5,18.69-18.09a62,62,0,0,1,26,1.81,18.66,18.66,0,0,1,4.82,2.17c8.13,5.17,8.26,15.16.29,21-2.11,1.54-4.41,2.83-6.63,4.21-3.42,2.14-4.12,4.53-2.12,8,1.39,2.4,3.11,4.6,4.5,7,5,8.65,3.81,14.36-4.17,20.32-1.54,1.15-3.09,2.28-4.61,3.45-3.82,2.93-3.48,7.32.9,9.39,3.26,1.53,6.84,2.41,10,4.06a26.6,26.6,0,0,1,7.2,5.2c3.89,4.14,3.22,10.05-1.11,13.73-3.34,2.86-7.41,4-11.61,4.67C687.24,438.63,682.63,439,678,439.45Z"/><path d="M642,386.53c0,11.19-.78,22.39-1,33.58a63.33,63.33,0,0,1-1.42,12.28c-1.26,5.88-6.29,10.54-11.26,11.1-4.52.52-11.42-3.94-13.41-9.41-1.72-4.72-2.67-9.73-3.83-14.65-.66-2.79-.89-5.7-1.61-8.48-1.23-4.74-4.14-5.9-8.51-3.5-1.93,1.06-3.74,2.35-5.6,3.56-9.66,6.29-16.55,4.29-25.21-1.77-2-1.38-3.8-3-5.81-4.26-4.53-3-7.93-1.85-9,3.37-.94,4.47-.95,9.13-1.43,13.7-.52,4.94-.45,10.05-1.78,14.77-2.94,10.47-14.58,13.23-22,5.28a20.51,20.51,0,0,1-5-9.16,74.11,74.11,0,0,1-1.77-18c.7-17.25,1.92-34.49,3.1-51.72.51-7.48,1.08-15,2.24-22.38.81-5.17,3-10,7.69-13.1,7.06-4.66,14.24-2.48,19.84,2.9s8.58,12.22,12,18.87c2.39,4.6,4.79,9.21,7.54,13.59,4.9,7.81,13.25,7.12,18.1-.73,3.87-6.29,7.19-12.93,11.23-19.11,2.6-4,5.56-8,9.23-10.92,10.68-8.45,21.35-2.07,24.91,7.44a44.18,44.18,0,0,1,2.59,13.73c.36,11,.11,22,.11,33Z"/><path d="M424.29,393.71c0,12.7.11,25.4,0,38.1-.09,7.18-1.53,14.09-5.42,20.32-5.48,8.79-16.55,12-27.06,7.73-10.73-4.39-18.52-12.52-26.22-20.79-6.6-7.09-13.1-14.28-20-21.06a32.58,32.58,0,0,0-9.67-6.2c-6-2.62-10.87-.82-13.24,5.29-2,5.12-2.77,10.7-4.15,16.07-1.5,5.85-2.23,12.07-4.77,17.44-6.21,13.17-20.89,13.74-29.06,1.61-6-8.88-7.49-19-7.06-29.25.6-14.22,2-28.42,3.1-42.62,1-13.05,1.57-26.14,3.11-39.13.93-7.85,2.18-16.05,5.34-23.19,7.08-16,23.08-18.72,36.35-7.25,6.51,5.64,10.69,12.87,15,20.11,4.8,8.09,9.52,16.25,14.85,24a24,24,0,0,0,8.58,7c5.36,2.84,11,1,13.17-4.69,2.67-6.94,4.06-14.35,6.38-21.44,1.6-4.86,3.18-9.94,5.92-14.18C396.61,310.37,408,311.12,416,321c6.17,7.57,8.07,16.72,8.25,26.13.31,15.54.09,31.09.09,46.63Z"/></g></g></svg>