<svg xmlns="http://www.w3.org/2000/svg" viewBox="0 0 732.57 317.58"><g id="Layer_2" data-name="Layer 2"><g id="Layer_1-2" data-name="Layer 1"><path d="M347.33,118c-.09,5-1.18,8.48-4.76,10.67s-7.19,1.37-10.44-.59a30.86,30.86,0,0,1-6.41-5.33c-4.13-4.45-8.31-8.74-14.76-9.4-6.27-.65-12.82-1.36-18.37,2.16-3.28,2.09-5.51,5.81-8.33,8.67-2.22,2.25-4.33,4.85-7,6.35-7.58,4.21-14.14-1.93-15.4-7.94-1.09-5.13.49-9.92,2-14.68A459.15,459.15,0,0,1,283.41,57c2.36-5.31,4.56-10.72,7.3-15.84,2.9-5.43,7.36-9.15,13.78-9.84a13,13,0,0,1,8.89,2.74c5.56,3.92,8.17,9.92,10.3,16,4.06,11.63,7.64,23.43,11.72,35.05,3.12,8.85,6.76,17.52,10.06,26.31C346.37,113.87,346.89,116.45,347.33,118Z"/><path d="M114.36,64.67c-1.37,11.64.69,21.94,3.89,32.13,2.91,9.3,4,18.73.55,28.15-4.39,12.11-13.64,19-25.46,22.65a90.23,90.23,0,0,1-17.27,3.55c-10,1-20,2-30.15.9a30.55,30.55,0,0,1-26.77-25.36c-1.86-11.64-.6-23.2.34-34.76,1.14-14,2.49-28.05,4.18-42a97.94,97.94,0,0,1,4-19.31c3.36-10,11.21-15.44,21.44-16.74,12.61-1.6,25.28-1.19,37.37,3.15,15.73,5.64,24.92,17,27.05,33.62C114.21,55.56,114.15,60.58,114.36,64.67Z"/><path d="M240,7.81c7.63.53,13.92,3.37,18.39,9.71a14.31,14.31,0,0,1,2.87,8.87c-.17,5.26-3.93,8.87-10.07,10-4.15.77-8.35,1.46-12.41,2.59-9.9,2.76-15,10.4-15.53,20.32-.67,11.57,5.08,20.26,16.45,24.47,4.18,1.55,8.51,2.69,12.72,4.18s7.78,3.62,8.85,8.31c1.15,5-1.81,10.35-7.21,13.21-7.42,3.92-15.31,4.23-23.38,2.91-9.41-1.53-17.64-5.36-24.17-12.46-7.14-7.76-10.17-17.2-10.66-27.47a79.29,79.29,0,0,1,10-42.85C212,18.42,221.19,10.86,234,8.38,236,8,238,8,240,7.81Z"/><path d="M162.94,120.79c-7.53.26-15,.27-22.06-2.8C132,114.12,127,107.06,125.65,97.7A102,102,0,0,1,125,78.48c.62-11.82,1.69-23.63,2.84-35.41.71-7.35,1.63-14.7,3-21.95C133.1,9,139.64,2.51,151.91.72a70.08,70.08,0,0,1,29.39,2,20.91,20.91,0,0,1,5.43,2.45c9.17,5.83,9.32,17.1.32,23.67-2.37,1.73-5,3.18-7.47,4.75-3.85,2.4-4.65,5.1-2.39,9,1.57,2.7,3.51,5.18,5.07,7.88,5.66,9.76,4.31,16.2-4.7,22.92-1.73,1.3-3.48,2.57-5.2,3.89-4.31,3.31-3.92,8.26,1,10.59,3.68,1.74,7.72,2.73,11.32,4.58a30.05,30.05,0,0,1,8.13,5.87c4.38,4.67,3.63,11.33-1.25,15.49-3.78,3.22-8.37,4.56-13.11,5.26C173.32,119.87,168.12,120.25,162.94,120.79Z"/><path d="M558.4,149.89c-6.3.21-12.53.22-18.44-2.35-7.43-3.23-11.64-9.13-12.72-16.95a84.59,84.59,0,0,1-.54-16.07c.52-9.88,1.41-19.74,2.37-29.59.6-6.14,1.37-12.29,2.5-18.35,1.89-10.15,7.36-15.55,17.61-17a58.64,58.64,0,0,1,24.56,1.71,17.5,17.5,0,0,1,4.54,2c7.67,4.88,7.79,14.3.27,19.79-2,1.45-4.15,2.66-6.24,4-3.22,2-3.89,4.26-2,7.52,1.31,2.26,2.93,4.33,4.24,6.59,4.73,8.15,3.6,13.54-3.93,19.15-1.45,1.09-2.91,2.15-4.35,3.25-3.6,2.77-3.28,6.9.85,8.85,3.08,1.45,6.45,2.28,9.47,3.83a25.3,25.3,0,0,1,6.79,4.91c3.66,3.9,3,9.47-1,13-3.15,2.68-7,3.81-11,4.39C567.08,149.12,562.73,149.43,558.4,149.89Z"/><path d="M485.65,131.94c-10.62.13-19.74-1.55-27.67-7.63-4.78-3.67-8.2-8.49-8.9-14.85-.64-5.9,2.13-10.45,6.17-14.22,1-.92,2-1.72,3.07-2.56,4.39-3.53,5.08-6.22,2.78-11.62-2.41-5.65-5.19-11.14-7.33-16.89-4.34-11.7-4.7-23.38,1.61-34.55,5.35-9.5,13.9-13.95,23.77-15.94a30.68,30.68,0,0,1,25.29,5.77,21.21,21.21,0,0,1,8.75,14.35c.62,4.36-1.46,10.33-7.19,13.91-1.61,1-3.29,1.89-4.88,2.93-2.88,1.87-3.56,4.13-1.8,7.19a67.38,67.38,0,0,0,4.87,6.8c4.32,5.72,9.19,11.06,12.91,17.19,6.43,10.58,5.43,23.55-1.57,33.7a35.87,35.87,0,0,1-23.67,15.38C489.46,131.36,487,131.71,485.65,131.94Z"/><path d="M443.74,82.11c-.35,12.34-.84,24.75-5.05,36.42-4.83,13.42-12.59,24.48-26.18,29-15,5-29.13,2.13-41.88-7.39s-17.71-23.1-18.1-39a156.76,156.76,0,0,1,6.23-48.63,26.71,26.71,0,0,1,5.15-9.3c3.64-4.3,9-3.71,12.38.82,3.61,4.85,4.36,10.73,5.18,16.57.91,6.46,1.37,13,2.79,19.37a28.63,28.63,0,0,0,4.9,10.67c6.07,8.1,17.41,7.38,22.18-3.09,2.77-6.08,4.1-12.87,6.33-19.25,1.73-5,3.33-10.08,5.91-14.55,3.82-6.62,10.23-6.5,14.79-.28,3.8,5.18,4.76,11.39,5.31,17.64C444,74.78,443.74,78.46,443.74,82.11Z"/><path d="M41.91,217a34.9,34.9,0,0,1,0,16.32c-1.16,4.94-2.31,9.84-3.49,14.73a54.9,54.9,0,0,0-.25,25.27c1.13,5,2.73,10,3.64,15,1.48,8.17.71,16-6.67,21.26-9.84,7-26.71,5-32.91-9.16-3.33-7.59-2.33-15.19-.53-22.89,2.09-8.95,4.59-17.87,5.81-27,.92-6.78.17-13.81,0-20.72-.12-5-.15-10,1.67-14.83,3.22-8.47,9.14-11.67,16.68-11.85,7.12-.16,13.53,5.06,15.78,12.68C41.72,216.26,41.82,216.64,41.91,217Z"/><path d="M87.47,169.8a21.77,21.77,0,0,1,6.21,1,15.38,15.38,0,0,1,9.47,8.05,10.69,10.69,0,0,1-4.75,14.1,52.65,52.65,0,0,1-8.32,3.36c-6.13,2-8.93,6.64-9.3,13.2-.34,6.11-.12,12.26-.08,18.4.09,11.32.34,22.64.3,34,0,5.39-.67,10.75-5.5,14.38A12.46,12.46,0,0,1,58,274a22.9,22.9,0,0,1-5.27-14.54c0-9.33.51-18.67.72-28,.2-8.45.4-16.9.36-25.36,0-6.49-3.82-10.49-9.26-13.56a24.07,24.07,0,0,1-7.31-6.22c-4-5.34-1.38-11.55,3.59-14.35a25.06,25.06,0,0,1,7.33-2.64,23,23,0,0,1,5-.38Z"/><path d="M120.71,293.78c-8.84.1-16.43-1.22-23-6-4-2.9-6.83-6.71-7.41-11.73-.53-4.66,1.77-8.25,5.13-11.23.81-.72,1.7-1.36,2.56-2,3.65-2.79,4.23-4.91,2.31-9.17-2-4.46-4.32-8.79-6.1-13.34C90.56,231,90.26,221.81,95.51,213c4.46-7.49,11.58-11,19.79-12.58a26.6,26.6,0,0,1,21,4.56,16.62,16.62,0,0,1,7.29,11.33c.51,3.44-1.21,8.15-6,11-1.34.79-2.73,1.49-4.05,2.31-2.41,1.48-3,3.27-1.51,5.68a52.4,52.4,0,0,0,4.06,5.36c3.6,4.52,7.64,8.74,10.74,13.58,5.36,8.35,4.53,18.59-1.3,26.61A30,30,0,0,1,125.88,293C123.88,293.32,121.87,293.6,120.71,293.78Z"/><path d="M657.29,255.49c-.08,4.88-1.15,8.3-4.66,10.44s-7,1.34-10.21-.58a30.07,30.07,0,0,1-6.27-5.21c-4-4.36-8.14-8.56-14.45-9.21-6.14-.63-12.55-1.33-18,2.12-3.21,2-5.39,5.68-8.15,8.48-2.18,2.2-4.24,4.75-6.87,6.22-7.41,4.12-13.83-1.89-15.07-7.77-1.06-5,.48-9.71,1.93-14.37a448.94,448.94,0,0,1,19.18-49.86c2.31-5.2,4.46-10.49,7.14-15.5,2.84-5.31,7.21-9,13.49-9.63a12.59,12.59,0,0,1,8.7,2.68c5.44,3.84,8,9.71,10.08,15.68,4,11.38,7.47,22.92,11.47,34.3,3,8.66,6.62,17.14,9.84,25.75A65.83,65.83,0,0,1,657.29,255.49Z"/><path d="M498.08,171.64c8.65.6,15.79,3.81,20.86,11a16.25,16.25,0,0,1,3.26,10c-.19,6-4.46,10.06-11.42,11.35-4.72.87-9.47,1.66-14.08,2.94-11.23,3.12-17,11.79-17.61,23-.76,13.12,5.76,23,18.65,27.76,4.75,1.75,9.66,3,14.43,4.73s8.82,4.11,10,9.43c1.31,5.72-2.06,11.74-8.18,15-8.42,4.45-17.36,4.8-26.52,3.3-10.67-1.74-20-6.07-27.41-14.13C452,267.3,448.56,256.6,448,245a89.85,89.85,0,0,1,11.32-48.6c7-12.68,17.46-21.26,32-24.07C493.57,171.86,495.84,171.84,498.08,171.64Z"/><path d="M412.91,299.92c-8.06.28-16.05.29-23.62-3-9.52-4.14-14.93-11.71-16.31-21.73a109.77,109.77,0,0,1-.69-20.59c.67-12.65,1.81-25.3,3-37.92.77-7.86,1.75-15.73,3.2-23.5,2.42-13,9.43-19.93,22.57-21.85a75,75,0,0,1,31.47,2.19,21.93,21.93,0,0,1,5.82,2.62c9.82,6.24,10,18.32.35,25.35-2.55,1.86-5.32,3.41-8,5.08-4.13,2.58-5,5.47-2.56,9.64,1.67,2.9,3.75,5.55,5.43,8.44,6.06,10.46,4.6,17.35-5,24.55-1.86,1.39-3.73,2.75-5.57,4.17-4.61,3.54-4.2,8.84,1.09,11.34,3.94,1.86,8.27,2.92,12.12,4.91a32,32,0,0,1,8.71,6.28c4.69,5,3.89,12.14-1.34,16.59-4.05,3.44-9,4.88-14,5.63C424,298.94,418.46,299.34,412.91,299.92Z"/><path d="M568.27,211.26a34.69,34.69,0,0,1,0,16.24c-1.15,4.93-2.29,9.8-3.47,14.67a54.71,54.71,0,0,0-.25,25.16c1.13,5,2.71,9.91,3.63,14.95,1.47,8.13.7,15.91-6.64,21.16-9.81,7-26.6,4.94-32.77-9.12-3.31-7.55-2.32-15.12-.53-22.79,2.08-8.91,4.57-17.79,5.79-26.84.91-6.75.16-13.74,0-20.63-.12-5-.16-10,1.66-14.76,3.2-8.43,9.1-11.62,16.6-11.79,7.09-.17,13.48,5,15.72,12.62C568.08,210.5,568.18,210.88,568.27,211.26Z"/><path d="M696.74,206.06c-.41,8-1,15.93-1.18,23.9-.19,8.21.41,16.31,4.28,23.86,3.2,6.24,8.48,10.07,14.36,13.3,4,2.22,8.34,4.06,12.16,6.61,8.48,5.66,8.28,15.22-.65,20.18a50.83,50.83,0,0,1-14.49,5.2c-9.08,1.84-18.31,2.27-27.3-.85-12.23-4.26-19.16-13.17-21.48-25.64-2-10.44-1-20.89.59-31.34s2.41-20.89,4.1-31.26a141.57,141.57,0,0,1,4.78-19,15.36,15.36,0,0,1,4.33-6.35c5.48-5,12.32-3.37,16,3.46C694.52,192.34,696.27,200.24,696.74,206.06Z"/><path d="M321.56,207.36c11.19.42,21.86,2.41,30.8,9.75,9.23,7.57,14.91,17.28,15.72,29.29.57,8.5-2.41,16.13-7.45,23-6.4,8.75-15.56,12.74-25.55,15.66a60.93,60.93,0,0,0-12,5.27c-3.9,2.14-5.61,6.2-7.23,10.14-1.12,2.71-2.06,5.51-3.15,8.24-2,5-5.49,8.77-11.05,8.87s-9.3-3.24-11.91-7.94a32.52,32.52,0,0,1-3.65-14.18c-.88-15.3.84-30.42,3-45.52.88-6,1-12.11,2.13-18.05a48.28,48.28,0,0,1,4.18-13.2c3.45-6.72,9.73-9.82,17.08-10.69C315.52,207.65,318.55,207.56,321.56,207.36Z"/><path d="M234.9,298.13c-14,.15-26-1.94-36.38-9.52-6.29-4.57-10.79-10.59-11.7-18.51-.84-7.37,2.8-13,8.11-17.75,1.28-1.13,2.68-2.14,4-3.18,5.76-4.41,6.67-7.76,3.65-14.49-3.16-7.05-6.83-13.89-9.64-21.07-5.71-14.59-6.18-29.15,2.11-43.08,7-11.85,18.29-17.4,31.27-19.88a42.07,42.07,0,0,1,33.25,7.2c6.19,4.37,10.35,10.28,11.5,17.9.82,5.43-1.91,12.88-9.46,17.34-2.11,1.25-4.31,2.36-6.4,3.65-3.79,2.33-4.69,5.16-2.37,9a85.48,85.48,0,0,0,6.4,8.47c5.69,7.13,12.08,13.8,17,21.44,8.46,13.2,7.15,29.37-2.06,42-7.79,10.7-18.27,16.84-31.13,19.18C239.91,297.41,236.73,297.84,234.9,298.13Z"/></g></g></svg>