<svg xmlns="http://www.w3.org/2000/svg" viewBox="0 0 751.33 211.6"><g id="Layer_2" data-name="Layer 2"><g id="Layer_1-2" data-name="Layer 1"><path d="M217.57,62.29c-.06,3.51-.83,6-3.35,7.49s-5,1-7.32-.41a21.47,21.47,0,0,1-4.5-3.74C199.5,62.5,196.56,59.49,192,59s-9-1-12.9,1.53c-2.31,1.46-3.87,4.07-5.85,6.08-1.56,1.58-3,3.41-4.93,4.46-5.32,3-9.92-1.36-10.81-5.57-.77-3.61.34-7,1.38-10.31a324.71,324.71,0,0,1,13.76-35.78c1.66-3.73,3.2-7.52,5.12-11.12,2-3.81,5.18-6.42,9.68-6.9a9,9,0,0,1,6.24,1.92c3.9,2.75,5.74,7,7.23,11.25,2.85,8.16,5.37,16.44,8.24,24.6,2.18,6.22,4.74,12.3,7.06,18.48C216.9,59.37,217.26,61.18,217.57,62.29Z"/><path d="M62,33.32c-.89,7.5.45,14.15,2.5,20.72,1.88,6,2.56,12.08.36,18.15C62.05,80,56.09,84.46,48.46,86.8a58.82,58.82,0,0,1-11.13,2.29c-6.45.67-12.92,1.29-19.45.58A19.71,19.71,0,0,1,.62,73.32c-1.2-7.51-.39-15,.22-22.42.73-9,1.6-18.09,2.69-27.1A63.38,63.38,0,0,1,6.15,11.35C8.31,4.87,13.37,1.39,20,.56c8.13-1,16.3-.77,24.1,2C54.21,6.22,60.14,13.51,61.51,24.27,61.92,27.44,61.88,30.68,62,33.32Z"/><path d="M142.78,19c4.91.34,9,2.17,11.86,6.26A9.26,9.26,0,0,1,156.49,31c-.11,3.39-2.54,5.72-6.5,6.45-2.68.49-5.38.94-8,1.67-6.39,1.78-9.64,6.71-10,13.1-.44,7.46,3.27,13.07,10.6,15.79,2.7,1,5.49,1.73,8.21,2.69s5,2.33,5.7,5.36c.75,3.25-1.16,6.68-4.65,8.52-4.78,2.53-9.87,2.72-15.08,1.87a26.06,26.06,0,0,1-15.58-8c-4.6-5-6.56-11.09-6.87-17.72A51.11,51.11,0,0,1,120.74,33c4-7.21,9.93-12.09,18.22-13.68C140.21,19.12,141.5,19.11,142.78,19Z"/><path d="M92.39,96.91c-4.86.16-9.67.17-14.23-1.81A15.89,15.89,0,0,1,68.35,82a64.89,64.89,0,0,1-.42-12.39C68.33,62,69,54.38,69.76,46.78c.46-4.73,1-9.47,1.93-14.15,1.46-7.84,5.68-12,13.59-13.16a45.17,45.17,0,0,1,19,1.32,13.3,13.3,0,0,1,3.5,1.58c5.92,3.76,6,11,.21,15.26-1.53,1.12-3.2,2.06-4.82,3.06-2.48,1.56-3,3.29-1.54,5.81,1,1.74,2.26,3.34,3.27,5.08,3.65,6.3,2.78,10.45-3,14.78-1.12.84-2.25,1.66-3.36,2.51-2.77,2.14-2.52,5.33.66,6.83,2.37,1.12,5,1.76,7.3,3a19.52,19.52,0,0,1,5.25,3.78c2.82,3,2.34,7.31-.81,10a16.29,16.29,0,0,1-8.45,3.39C99.09,96.31,95.73,96.55,92.39,96.91Z"/><path d="M110.32,183.51c-4.85.16-9.66.17-14.22-1.81a15.9,15.9,0,0,1-9.82-13.09,66.57,66.57,0,0,1-.42-12.39c.41-7.63,1.09-15.24,1.83-22.84.47-4.73,1.06-9.47,1.93-14.15,1.46-7.84,5.68-12,13.59-13.16a45.21,45.21,0,0,1,19,1.32,13.3,13.3,0,0,1,3.5,1.58c5.91,3.76,6,11,.21,15.26-1.54,1.12-3.21,2.06-4.82,3.06-2.49,1.56-3,3.29-1.54,5.81,1,1.74,2.26,3.34,3.27,5.08,3.65,6.3,2.77,10.45-3,14.78-1.12.84-2.25,1.66-3.36,2.51-2.78,2.14-2.53,5.33.66,6.83,2.37,1.12,5,1.76,7.3,3A19.32,19.32,0,0,1,129.6,169c2.82,3,2.34,7.31-.81,10a16.14,16.14,0,0,1-8.45,3.39C117,182.91,113.66,183.16,110.32,183.51Z"/><path d="M397,188.55c-4.84.41-9.64.65-14.29-1.1a15.88,15.88,0,0,1-10.46-12.58,64.67,64.67,0,0,1-1-12.36c0-7.63.32-15.27.69-22.89.22-4.76.58-9.52,1.22-14.24,1.06-7.9,5.07-12.27,12.92-13.81a45.05,45.05,0,0,1,19,.37,13.26,13.26,0,0,1,3.58,1.4c6.09,3.46,6.55,10.72,1,15.24-1.48,1.19-3.1,2.21-4.66,3.29-2.41,1.68-2.83,3.44-1.25,5.88,1.09,1.69,2.42,3.22,3.52,4.91,3.95,6.11,3.29,10.3-2.3,14.92-1.07.89-2.16,1.76-3.22,2.67-2.67,2.27-2.26,5.44,1,6.79,2.43,1,5.06,1.5,7.44,2.59a19.4,19.4,0,0,1,5.43,3.51c3,2.87,2.7,7.19-.31,10A16.27,16.27,0,0,1,407,187C403.7,187.63,400.36,188,397,188.55Z"/><path d="M350,71c-4.06.15-8.08.15-11.89-1.51a13.29,13.29,0,0,1-8.21-10.93,55.17,55.17,0,0,1-.35-10.36c.34-6.37.91-12.73,1.53-19.09.39-3.95.89-7.92,1.61-11.82,1.22-6.56,4.75-10,11.36-11a37.71,37.71,0,0,1,15.84,1.1,11.21,11.21,0,0,1,2.93,1.32c4.94,3.14,5,9.22.18,12.76-1.29.93-2.68,1.71-4,2.56-2.08,1.29-2.51,2.75-1.29,4.85.84,1.45,1.89,2.79,2.73,4.25,3.05,5.26,2.32,8.73-2.53,12.35-.94.7-1.88,1.38-2.81,2.1-2.32,1.78-2.11,4.45.56,5.7,2,.94,4.15,1.47,6.1,2.47A16.2,16.2,0,0,1,366.14,59a5.61,5.61,0,0,1-.68,8.34,13.53,13.53,0,0,1-7.06,2.84C355.62,70.55,352.82,70.75,350,71Z"/><path d="M306.43,96c-6.84.08-12.72-1-17.84-4.92a13.74,13.74,0,0,1-5.73-9.57c-.42-3.81,1.37-6.74,4-9.18.63-.59,1.31-1.11,2-1.65,2.83-2.27,3.28-4,1.79-7.49-1.55-3.64-3.35-7.18-4.72-10.89-2.8-7.55-3-15.08,1-22.28,3.46-6.13,9-9,15.33-10.28a19.82,19.82,0,0,1,16.31,3.72,13.63,13.63,0,0,1,5.64,9.26,9.39,9.39,0,0,1-4.63,9c-1,.65-2.12,1.22-3.14,1.89-1.87,1.21-2.31,2.67-1.17,4.64a43.64,43.64,0,0,0,3.14,4.38c2.79,3.69,5.93,7.14,8.33,11.09,4.14,6.82,3.5,15.19-1,21.74a23.1,23.1,0,0,1-15.26,9.91C308.89,95.65,307.33,95.87,306.43,96Z"/><path d="M279.28,30.19c-.23,8-.55,16-3.25,23.49-3.12,8.65-8.12,15.79-16.89,18.71-9.67,3.23-18.79,1.38-27-4.76s-11.42-14.89-11.67-25.12a100.92,100.92,0,0,1,4-31.37,17.12,17.12,0,0,1,3.32-6c2.34-2.78,5.8-2.4,8,.53,2.33,3.13,2.82,6.92,3.34,10.68.59,4.17.89,8.41,1.8,12.49a18.59,18.59,0,0,0,3.16,6.89c3.91,5.22,11.23,4.76,14.31-2,1.78-3.92,2.64-8.3,4.08-12.41A54,54,0,0,1,266.28,12c2.46-4.27,6.6-4.2,9.54-.19,2.45,3.34,3.06,7.35,3.42,11.38C279.45,25.47,279.28,27.84,279.28,30.19Z"/><path d="M478.53,10.6c6.38.52,12.8.6,18.65,3.63a11.82,11.82,0,0,1,6.44,7.58,10.41,10.41,0,0,1-5.28,11.51c-3.31,1.9-7,3-10.55,4.59-2.62,1.14-3.68,2.71-3.21,5.16a6.21,6.21,0,0,0,1.6,3.06c2,2,4.31,3.83,6.39,5.84a16.89,16.89,0,0,1,5.19,9.12,7.88,7.88,0,0,1-3.64,8.66,57.7,57.7,0,0,1-11.47,5.08c-7.35,2.46-11.13,7.63-12.55,15a52.09,52.09,0,0,1-2,8.41c-2.66,7.13-10.27,9.36-15.58,4.76a18.67,18.67,0,0,1-6.05-11.11c-1.49-8-.9-16-.19-24,.94-10.66,1.84-21.33,3.08-32,.71-6.07,1.48-12.22,5.37-17.41,3.4-4.55,8-6.73,13.42-7.37C471.56,10.75,475.06,10.77,478.53,10.6Z"/><path d="M256.43,92.27a40.64,40.64,0,0,1,13.25.23,34.26,34.26,0,0,1,15.52,6.67,15.76,15.76,0,0,1,5.9,8.29c1.1,4.07-.16,7.37-3.18,10.06-2.77,2.45-6,2.67-9.31,1.38-3.75-1.46-7.36-3.36-11.2-4.51a18.94,18.94,0,0,0-23.08,10.14c-4.11,8.77-4.2,17.7.9,26.23,3.72,6.24,12.31,10.05,19.29,8.53a6.82,6.82,0,0,0,4-2.7c1-1.65-.51-3.14-1.54-4.48a64.58,64.58,0,0,1-4.21-5.43c-2.88-4.71-1.91-9.79,3-12.33,9.08-4.73,18.58-5.12,27.84-.48,5.42,2.72,7.49,7.87,7.07,13.62a36.91,36.91,0,0,1-13.57,26.17,33.4,33.4,0,0,1-18.63,7.69,46.94,46.94,0,0,1-33.27-8.84c-6.56-4.72-10.62-11.36-12.79-19-4.81-17-1.51-32.73,8.75-46.87,5.59-7.72,13.82-11.79,23-13.89C254.87,92.52,255.66,92.38,256.43,92.27Z"/><path d="M217.17,100.1a25.54,25.54,0,0,1,0,12c-.85,3.63-1.69,7.21-2.55,10.8a40.16,40.16,0,0,0-.19,18.5c.83,3.68,2,7.3,2.67,11,1.08,6,.52,11.71-4.88,15.57-7.22,5.14-19.57,3.64-24.11-6.71-2.44-5.56-1.71-11.12-.39-16.76,1.53-6.56,3.36-13.1,4.26-19.75.67-5,.12-10.11,0-15.18-.09-3.69-.12-7.34,1.22-10.86,2.35-6.2,6.69-8.54,12.22-8.67,5.21-.13,9.91,3.7,11.56,9.28C217,99.55,217.1,99.82,217.17,100.1Z"/><path d="M559.26,128.28a27.5,27.5,0,0,1,0,12.85c-.91,3.9-1.81,7.76-2.74,11.61a43.3,43.3,0,0,0-.2,19.9c.89,4,2.15,7.85,2.87,11.83,1.17,6.43.56,12.59-5.25,16.74-7.76,5.54-21,3.92-25.93-7.21-2.62-6-1.83-12-.41-18,1.64-7.06,3.61-14.08,4.57-21.24.72-5.34.13-10.87,0-16.32-.09-4-.12-7.9,1.32-11.68,2.53-6.67,7.2-9.19,13.14-9.33,5.6-.13,10.66,4,12.43,10C559.11,127.68,559.19,128,559.26,128.28Z"/><path d="M366.5,161c0,5.49.05,11,0,16.48a16.61,16.61,0,0,1-2.34,8.79c-2.37,3.8-7.16,5.21-11.71,3.35s-8-5.42-11.34-9c-2.86-3.06-5.67-6.18-8.67-9.11a13.9,13.9,0,0,0-4.18-2.68c-2.62-1.14-4.71-.36-5.73,2.28a62.3,62.3,0,0,0-1.8,7c-.64,2.53-1,5.22-2.06,7.54-2.69,5.7-9,6-12.57.7-2.59-3.84-3.24-8.21-3.06-12.65.26-6.16.88-12.3,1.34-18.44.43-5.65.68-11.32,1.35-16.93a35.05,35.05,0,0,1,2.31-10c3.06-6.92,10-8.09,15.73-3.13,2.81,2.43,4.62,5.56,6.48,8.7,2.07,3.5,4.12,7,6.42,10.38a10.6,10.6,0,0,0,3.71,3,3.84,3.84,0,0,0,5.7-2c1.16-3,1.76-6.21,2.76-9.27a26.22,26.22,0,0,1,2.57-6.14c3.13-4.85,8.05-4.53,11.52-.27,2.67,3.27,3.5,7.23,3.58,11.3.13,6.72,0,13.45,0,20.18Z"/><path d="M416.85,81.61c-7.59-.15-13-1.15-17.88-4.07a24.71,24.71,0,0,1-12.34-19.08,50,50,0,0,1,8.3-34.6A25.51,25.51,0,0,1,413.1,12.24a19.91,19.91,0,0,1,13.56,3.14A40.15,40.15,0,0,1,443.86,37c2.52,7.29,1.9,14.52-.28,21.72a34.14,34.14,0,0,1-11.51,17.15A25.06,25.06,0,0,1,416.85,81.61Zm.1-26a4.39,4.39,0,0,0,4.58-3,8,8,0,0,0-1.81-8.05,5.08,5.08,0,0,0-7-.74c-1.81,1.63-2.38,5-1.32,7.76A5.89,5.89,0,0,0,417,55.57Z"/><path d="M722.68,81.61c-7.59-.15-13-1.15-17.88-4.07a24.73,24.73,0,0,1-12.34-19.08,50,50,0,0,1,8.3-34.6,25.51,25.51,0,0,1,18.18-11.62,19.92,19.92,0,0,1,13.56,3.14A40.24,40.24,0,0,1,749.7,37c2.52,7.29,1.89,14.52-.28,21.72A34.15,34.15,0,0,1,737.9,75.86,25.06,25.06,0,0,1,722.68,81.61Zm.1-26a4.41,4.41,0,0,0,4.59-3,8.07,8.07,0,0,0-1.82-8.05,5.08,5.08,0,0,0-7-.74c-1.81,1.63-2.37,5-1.32,7.76A5.89,5.89,0,0,0,722.78,55.57Z"/><path d="M31,204.3c-5.39-.3-10.67-.18-15.83-1.92A22.21,22.21,0,0,1,.38,183.69c-1-8.18.13-16.22.8-24.29C2,149,3.05,138.57,4.06,128.16c.59-6.15,1.42-12.23,5.33-17.41,3.35-4.43,8-6.51,13.24-7.14a62.61,62.61,0,0,1,30.62,3.58c10.69,4.18,18,12.1,23.36,22.06a49.37,49.37,0,0,1,5.88,24.66c-.32,13.77-3.89,26.55-13.64,36.91a34.75,34.75,0,0,1-18.3,10.37C44.11,202.56,37.53,203.29,31,204.3Zm8-27.81c7.14,0,11.74-3.36,15.11-8.55s4-10.95,3-16.93c-1.47-8.56-5.95-15-13.94-18.73-5.74-2.67-11.61-.68-14.29,5a26.85,26.85,0,0,0-2.21,8.53c-.68,6.34-1.37,12.72-.18,19.1C27.58,171,32.27,177,39,176.49Z"/><path d="M448.93,211.6c-4.73-.26-9.36-.15-13.87-1.68a19.46,19.46,0,0,1-13-16.38c-.84-7.16.11-14.2.7-21.28.75-9.13,1.64-18.25,2.52-27.37.52-5.39,1.25-10.71,4.68-15.25,2.93-3.88,7-5.7,11.59-6.26a54.84,54.84,0,0,1,26.83,3.14c9.37,3.66,15.8,10.6,20.47,19.33A43.21,43.21,0,0,1,494,167.46c-.28,12.06-3.41,23.26-12,32.33a30.44,30.44,0,0,1-16,9.09C460.4,210.08,454.64,210.71,448.93,211.6Zm7-24.36c6.26,0,10.29-2.94,13.24-7.5s3.52-9.59,2.62-14.83c-1.28-7.5-5.21-13.15-12.21-16.41-5-2.33-10.17-.6-12.52,4.4a23.72,23.72,0,0,0-1.93,7.48c-.6,5.55-1.2,11.14-.16,16.73C445.92,182.4,450,187.71,455.9,187.24Z"/><path d="M630.14,42.78c.57-4.49,1.31-9,2.32-13.4a11.53,11.53,0,0,1,2.71-4.82c3.49-3.88,8.56-3.37,11,1.25,1.28,2.4,1.71,5.25,2.56,7.88a44.69,44.69,0,0,0,2.08,6.1,9.67,9.67,0,0,0,9.31,5.73,9.8,9.8,0,0,0,9.21-6.92c.92-2.68,1.51-5.48,2.48-8.14a13.14,13.14,0,0,1,2.44-4.23c2.81-3.17,6.67-3.07,9.71-.07s4.16,6.9,4.39,11c.4,7.21.58,14.44.73,21.66.1,5,.12,10,0,15-.12,3.77-.51,7.57-3,10.71A7.15,7.15,0,0,1,674.57,84a65,65,0,0,1-4.51-8.65c-1.82-3.82-4.39-6.83-8.54-8.06-6.24-1.86-11.18.38-13.5,6.37-.91,2.37-1.2,5-2.09,7.36-.78,2.08-1.61,4.38-3.11,5.92-3.85,4-8.85,2-11.67-1.78-2.3-3.13-3-6.84-3.21-10.6-.07-1.09-.09-2.18-.09-3.27,0-3.21.2-6.42.5-9.62Z"/><path d="M159.31,205.08c-8.35.1-15.52-1.15-21.76-5.69-3.76-2.73-6.45-6.34-7-11.07-.5-4.41,1.68-7.8,4.85-10.62.77-.68,1.6-1.28,2.42-1.9,3.45-2.64,4-4.64,2.18-8.67-1.89-4.22-4.08-8.31-5.76-12.6-3.42-8.73-3.7-17.44,1.26-25.77,4.21-7.09,10.94-10.41,18.7-11.89a25.18,25.18,0,0,1,19.89,4.3A15.75,15.75,0,0,1,181,131.88c.49,3.25-1.14,7.7-5.65,10.37-1.27.75-2.59,1.41-3.84,2.18-2.27,1.4-2.8,3.09-1.41,5.37a50.28,50.28,0,0,0,3.83,5.07c3.4,4.27,7.22,8.26,10.15,12.82,5.06,7.9,4.27,17.57-1.24,25.15a28.34,28.34,0,0,1-18.61,11.47C162.31,204.65,160.41,204.91,159.31,205.08Z"/><path d="M581.39,95.71c5.21.42,10.45.6,15.62,1.32,4.62.64,8.59,2.57,10.88,7.16a8.53,8.53,0,0,1-3.79,11.25,43.37,43.37,0,0,1-6.63,2.68c-4.89,1.59-7.13,5.29-7.42,10.52-.27,4.88-.1,9.79-.06,14.68.07,9,.27,18.06.24,27.09,0,4.3-.54,8.58-4.39,11.47a9.94,9.94,0,0,1-14-1.82,18.31,18.31,0,0,1-4.2-11.6c0-7.44.41-14.89.58-22.34.15-6.74.31-13.48.28-20.22,0-5.19-3-8.37-7.38-10.82a19.38,19.38,0,0,1-5.83-5c-3.22-4.26-1.1-9.21,2.86-11.44a20.67,20.67,0,0,1,8.32-2.45c4.93-.39,9.9-.11,14.86-.11Z"/><path d="M523.61,14.4a16.1,16.1,0,0,1,2.28-9.52c3.53-5.42,9.51-5.92,14.35-.65,2.64,2.87,4.19,6.77,6.11,10.28,1.52,2.76,2.61,5.77,4.31,8.41,2,3.08,5.49,3.56,8.44,1.34s5.88-5.1,9.07-7.29c6.12-4.21,11.4-3.3,16.76,1.64,2.89,2.67,5.21,5.93,7.85,8.87,3.67,4.11,7.67,3.85,10.53-.94,2-3.44,3.64-7.14,5.4-10.75s3.77-6.88,7.17-9.23c7-4.89,16,.68,16.79,8.5.56,5.4-1.39,10.3-3.29,15.17-4.33,11.14-9.19,22.08-12.38,33.66a108.26,108.26,0,0,1-4.88,14,12.57,12.57,0,0,1-9.39,7.78c-4.62,1-8.27-1-11.35-3.86-2.93-2.71-5.3-6-8-9.06-1.85-2.1-3.62-4.23-6.9-4.17s-4.52,2.26-6,4.35c-2.36,3.34-4.29,7-6.92,10.1-7,8.22-17.93,7-24.53-.3-5.2-5.79-7.14-13-8.36-20.43-2.36-14.44-4.6-28.91-6.85-43.37A45.13,45.13,0,0,1,523.61,14.4Z"/></g></g></svg>