<svg xmlns="http://www.w3.org/2000/svg" viewBox="0 0 736.71 304.1"><g id="Layer_2" data-name="Layer 2"><g id="Layer_1-2" data-name="Layer 1"><path d="M329.13,110.66c-.08,5-1.18,8.49-4.76,10.67s-7.18,1.38-10.43-.59a30.55,30.55,0,0,1-6.41-5.33c-4.13-4.44-8.31-8.74-14.76-9.4-6.28-.64-12.83-1.36-18.37,2.17-3.28,2.09-5.51,5.8-8.34,8.66-2.22,2.25-4.33,4.86-7,6.35-7.58,4.21-14.14-1.93-15.4-7.93-1.09-5.13.49-9.92,2-14.69a459.91,459.91,0,0,1,19.6-50.95c2.36-5.31,4.56-10.72,7.29-15.84,2.9-5.42,7.37-9.14,13.79-9.83a12.91,12.91,0,0,1,8.89,2.73c5.55,3.92,8.16,9.92,10.3,16,4.06,11.63,7.63,23.43,11.72,35.05,3.12,8.85,6.76,17.52,10.06,26.31C328.18,106.5,328.7,109.09,329.13,110.66Z"/><path d="M96.17,51.67c-1.37,11.63.69,21.93,3.88,32.12,2.92,9.3,4,18.74.55,28.16C96.22,124.05,87,131,75.15,134.6a91,91,0,0,1-17.27,3.55c-10,1-20,2-30.15.9A30.56,30.56,0,0,1,1,113.69c-1.87-11.64-.6-23.2.34-34.76,1.14-14,2.49-28.05,4.17-42A98.94,98.94,0,0,1,9.53,17.59C12.89,7.56,20.74,2.16,31,.86,43.58-.74,56.24-.33,68.34,4,84.06,9.65,93.26,21,95.39,37.63,96,42.56,96,47.57,96.17,51.67Z"/><path d="M221.77,42.81c7.63.53,13.91,3.36,18.39,9.71A14.37,14.37,0,0,1,243,61.39c-.17,5.26-3.93,8.87-10.07,10-4.16.77-8.35,1.46-12.41,2.59-9.91,2.76-15,10.4-15.53,20.32-.67,11.57,5.08,20.26,16.45,24.47,4.18,1.55,8.51,2.69,12.72,4.17s7.78,3.63,8.85,8.31c1.15,5.05-1.81,10.36-7.21,13.22-7.42,3.92-15.31,4.23-23.39,2.91-9.4-1.53-17.63-5.36-24.16-12.46-7.14-7.77-10.17-17.2-10.66-27.47a79.29,79.29,0,0,1,10-42.85c6.19-11.18,15.4-18.75,28.25-21.22C217.79,43,219.79,43,221.77,42.81Z"/><path d="M144.74,155.79c-7.52.26-15,.27-22.05-2.8-8.89-3.87-13.94-10.94-15.23-20.29a102,102,0,0,1-.64-19.22c.62-11.82,1.68-23.63,2.83-35.41.72-7.35,1.64-14.7,3-21.95,2.26-12.15,8.81-18.61,21.07-20.4a70.12,70.12,0,0,1,29.4,2,20.58,20.58,0,0,1,5.43,2.45c9.17,5.83,9.32,17.1.32,23.67-2.38,1.73-5,3.18-7.47,4.74-3.85,2.41-4.65,5.11-2.39,9,1.57,2.7,3.51,5.18,5.07,7.88,5.66,9.76,4.3,16.2-4.7,22.92-1.73,1.3-3.49,2.57-5.2,3.89-4.31,3.31-3.92,8.26,1,10.59,3.67,1.73,7.71,2.72,11.32,4.58a30.21,30.21,0,0,1,8.13,5.87c4.38,4.67,3.63,11.33-1.26,15.49-3.77,3.22-8.36,4.56-13.1,5.26C155.13,154.87,149.92,155.25,144.74,155.79Z"/><path d="M540.2,136c-6.29.22-12.52.22-18.43-2.35-7.43-3.23-11.65-9.13-12.73-17a85.42,85.42,0,0,1-.54-16.07c.53-9.88,1.42-19.74,2.38-29.59.6-6.14,1.36-12.28,2.49-18.34,1.89-10.16,7.37-15.56,17.62-17.06a58.64,58.64,0,0,1,24.56,1.71,17.35,17.35,0,0,1,4.54,2c7.66,4.87,7.79,14.29.27,19.78-2,1.45-4.15,2.66-6.24,4-3.23,2-3.89,4.26-2,7.52,1.31,2.26,2.93,4.33,4.24,6.59,4.73,8.16,3.59,13.54-3.93,19.16-1.45,1.08-2.92,2.14-4.35,3.25-3.6,2.76-3.28,6.9.85,8.85,3.08,1.45,6.45,2.27,9.46,3.83a25.1,25.1,0,0,1,6.8,4.9c3.66,3.9,3,9.47-1.05,13-3.16,2.69-7,3.81-10.95,4.39C548.88,135.24,544.53,135.55,540.2,136Z"/><path d="M467.45,124.57c-10.61.13-19.73-1.55-27.66-7.63-4.79-3.66-8.21-8.49-8.9-14.84-.64-5.91,2.13-10.45,6.17-14.23,1-.91,2-1.72,3.07-2.56,4.38-3.53,5.08-6.22,2.78-11.62-2.41-5.65-5.2-11.13-7.33-16.89-4.34-11.7-4.7-23.38,1.6-34.55C442.54,12.75,451.09,8.3,461,6.31a30.73,30.73,0,0,1,25.29,5.78A21.16,21.16,0,0,1,495,26.44c.63,4.36-1.45,10.33-7.19,13.9-1.61,1-3.28,1.89-4.87,2.93-2.88,1.87-3.57,4.14-1.8,7.2A67.25,67.25,0,0,0,486,57.26c4.32,5.72,9.18,11.07,12.91,17.19,6.43,10.58,5.43,23.55-1.58,33.71a35.82,35.82,0,0,1-23.66,15.38C471.27,124,468.85,124.34,467.45,124.57Z"/><path d="M425.55,74.74c-.35,12.34-.85,24.75-5.05,36.42-4.83,13.42-12.59,24.49-26.18,29-15,5-29.13,2.13-41.89-7.39s-17.7-23.09-18.09-38.95a156.49,156.49,0,0,1,6.23-48.64,26.71,26.71,0,0,1,5.15-9.3c3.64-4.3,9-3.71,12.37.82,3.62,4.86,4.37,10.74,5.19,16.57.9,6.47,1.37,13,2.78,19.37A28.92,28.92,0,0,0,371,83.34c6.07,8.09,17.41,7.38,22.18-3.1,2.77-6.08,4.1-12.87,6.33-19.25,1.73-5,3.33-10.08,5.91-14.54,3.82-6.62,10.23-6.51,14.79-.29,3.8,5.18,4.76,11.39,5.31,17.64C425.81,67.42,425.55,71.09,425.55,74.74Z"/><path d="M44.27,204.25a34.9,34.9,0,0,1,0,16.32c-1.16,5-2.3,9.85-3.49,14.74a54.9,54.9,0,0,0-.25,25.27c1.13,5,2.73,9.95,3.65,15,1.47,8.17.71,16-6.67,21.26-9.85,7-26.72,5-32.92-9.16C1.23,280.1,2.22,272.5,4,264.8c2.09-9,4.59-17.87,5.82-27,.91-6.78.16-13.81,0-20.72-.12-5-.15-10,1.67-14.83,3.22-8.47,9.14-11.67,16.68-11.85,7.12-.17,13.54,5.05,15.79,12.68C44.08,203.5,44.18,203.87,44.27,204.25Z"/><path d="M89.83,157a22.21,22.21,0,0,1,6.22,1,15.4,15.4,0,0,1,9.46,8,10.7,10.7,0,0,1-4.75,14.11,52.65,52.65,0,0,1-8.32,3.36c-6.12,2-8.93,6.64-9.29,13.19-.35,6.12-.13,12.27-.08,18.4.08,11.32.34,22.65.29,34,0,5.39-.67,10.75-5.49,14.38a12.47,12.47,0,0,1-17.5-2.28,22.94,22.94,0,0,1-5.27-14.54c0-9.34.51-18.67.73-28,.19-8.45.39-16.91.35-25.36,0-6.5-3.82-10.49-9.25-13.56a24.25,24.25,0,0,1-7.32-6.22c-4-5.35-1.38-11.56,3.59-14.35a25.17,25.17,0,0,1,7.33-2.64,21.8,21.8,0,0,1,5-.38Z"/><path d="M123.07,281c-8.84.1-16.43-1.23-23-6-4-2.89-6.83-6.7-7.41-11.72-.53-4.66,1.78-8.25,5.13-11.23.82-.72,1.7-1.36,2.57-2,3.64-2.79,4.22-4.91,2.31-9.17-2-4.47-4.33-8.8-6.11-13.34-3.61-9.24-3.91-18.46,1.34-27.28,4.46-7.5,11.58-11,19.79-12.59a26.66,26.66,0,0,1,21.06,4.57A16.61,16.61,0,0,1,146,203.54c.52,3.44-1.21,8.15-6,11-1.34.79-2.73,1.5-4,2.31-2.4,1.49-3,3.27-1.5,5.69a53.42,53.42,0,0,0,4,5.36c3.6,4.52,7.65,8.74,10.75,13.57,5.35,8.36,4.52,18.6-1.31,26.62a30.07,30.07,0,0,1-19.71,12.14C126.25,280.56,124.23,280.83,123.07,281Z"/><path d="M289.77,214.48c-1.4,11.87.71,22.38,4,32.77,3,9.48,4,19.11.56,28.71-4.47,12.35-13.9,19.4-26,23.11a92.86,92.86,0,0,1-17.61,3.62c-10.2,1.05-20.43,2-30.75.91a31.15,31.15,0,0,1-27.3-25.86c-1.91-11.87-.62-23.66.34-35.45,1.16-14.31,2.54-28.61,4.26-42.86a100.45,100.45,0,0,1,4.13-19.7c3.43-10.24,11.44-15.74,21.87-17.07,12.86-1.63,25.78-1.21,38.12,3.21,16,5.76,25.42,17.29,27.58,34.3C289.62,205.19,289.55,210.3,289.77,214.48Z"/><path d="M678.44,174.37a53.51,53.51,0,0,1,17.45.32,45,45,0,0,1,20.44,8.77c3.63,2.84,6.53,6.3,7.78,10.93,1.44,5.35-.21,9.7-4.2,13.24-3.64,3.23-7.88,3.53-12.26,1.82-4.94-1.92-9.69-4.43-14.74-5.94-12.39-3.72-24.93,1.67-30.41,13.36s-5.52,23.31,1.18,34.55c4.91,8.22,16.23,13.23,25.42,11.23a9,9,0,0,0,5.21-3.56c1.38-2.17-.68-4.14-2-5.89-1.84-2.4-4-4.6-5.55-7.16-3.8-6.21-2.51-12.89,3.93-16.24,12-6.23,24.46-6.74,36.66-.63,7.13,3.58,9.86,10.36,9.31,17.94-1,13.91-7.24,25.46-17.87,34.46a44.07,44.07,0,0,1-24.54,10.14,61.86,61.86,0,0,1-43.82-11.65c-8.64-6.22-14-15-16.84-25.09-6.34-22.43-2-43.11,11.52-61.74,7.37-10.16,18.21-15.52,30.26-18.28C676.38,174.71,677.42,174.52,678.44,174.37Z"/><path d="M515.21,159.84a38,38,0,0,1-.05,17.73c-1.26,5.37-2.5,10.69-3.78,16A59.59,59.59,0,0,0,511.1,221c1.23,5.46,3,10.81,4,16.31,1.6,8.87.77,17.36-7.24,23.08-10.7,7.63-29,5.4-35.75-9.95-3.61-8.23-2.53-16.49-.57-24.85,2.27-9.73,5-19.42,6.31-29.28,1-7.37.18-15,0-22.51-.14-5.47-.17-10.89,1.81-16.1,3.49-9.2,9.93-12.67,18.11-12.87,7.73-.18,14.7,5.49,17.15,13.77Q515.06,159.23,515.21,159.84Z"/><path d="M623.81,240.46c0,8.72.08,17.44,0,26.16a26.34,26.34,0,0,1-3.72,13.95c-3.76,6-11.36,8.26-18.58,5.31s-12.72-8.6-18-14.27c-4.53-4.87-9-9.81-13.74-14.46a22.18,22.18,0,0,0-6.65-4.26c-4.14-1.8-7.46-.56-9.08,3.63-1.36,3.52-1.91,7.35-2.85,11-1,4-1.53,8.29-3.27,12-4.27,9-14.35,9.43-20,1.11-4.11-6.11-5.14-13-4.84-20.09.41-9.76,1.39-19.51,2.12-29.26.68-9,1.08-17.95,2.14-26.86.64-5.4,1.5-11,3.66-15.93,4.86-11,15.85-12.84,25-5,4.47,3.87,7.34,8.83,10.29,13.8,3.29,5.56,6.53,11.16,10.19,16.48a16.62,16.62,0,0,0,5.89,4.82c3.68,1.94,7.53.69,9-3.23,1.84-4.76,2.79-9.85,4.38-14.71,1.1-3.34,2.19-6.83,4.07-9.74,5-7.7,12.79-7.19,18.29-.44,4.24,5.2,5.54,11.48,5.67,17.94.21,10.66.06,21.34.06,32Z"/><path d="M336.42,248.48c-10.22-.21-17.49-1.55-24.07-5.49a33.25,33.25,0,0,1-16.61-25.68,67.22,67.22,0,0,1,11.18-46.57c5.78-8.64,13.92-14.18,24.46-15.65a26.83,26.83,0,0,1,18.25,4.23,54.15,54.15,0,0,1,23.16,29.09c3.39,9.81,2.55,19.54-.38,29.24a45.85,45.85,0,0,1-15.5,23.08C350.14,246.16,342.36,248.52,336.42,248.48Zm.13-35.06c3,.06,5.43-1.46,6.18-4a10.85,10.85,0,0,0-2.44-10.83c-2.57-2.87-6.93-3.27-9.46-1s-3.19,6.69-1.78,10.44A8,8,0,0,0,336.55,213.42Z"/><path d="M410.46,161.93a84.69,84.69,0,0,1,15.27.47c6.75.87,13.28,2.6,19.23,6.32,14.28,8.93,22.77,21.54,22.58,38.93-.07,6.57-2.59,12.65-5.29,18.53-4.15,9-4.49,18-.69,27.25,1.95,4.72,3.87,9.57,3.1,14.86a11.84,11.84,0,0,1-15.18,9.8c-6.79-1.85-11.72-6.45-16.81-10.89a79.73,79.73,0,0,0-9.17-7.27c-5.23-3.34-10.24-2.25-13.83,2.75-1.76,2.43-3.16,5.11-4.78,7.64-2.07,3.23-4.7,5.88-8.47,6.95-4.85,1.38-10.7-1.25-13.89-5.9-3.36-4.89-4.72-10.43-5.09-16.2-1-16.1.72-32,3.11-47.92.66-4.41.61-8.94,1.3-13.35a102.16,102.16,0,0,1,3.24-15.68c3.15-9.76,10.4-14.82,20.44-15.92C407.16,162.12,408.81,162,410.46,161.93Z"/></g></g></svg>