<svg xmlns="http://www.w3.org/2000/svg" viewBox="0 0 785.26 499.28"><g id="Layer_2" data-name="Layer 2"><g id="Layer_1-2" data-name="Layer 1"><path d="M70.79,347.12a44,44,0,0,1-.05,20.59c-1.46,6.23-2.91,12.41-4.4,18.58A69.38,69.38,0,0,0,66,418.17c1.43,6.34,3.44,12.56,4.6,18.94,1.86,10.3.9,20.17-8.41,26.81-12.43,8.87-33.71,6.27-41.52-11.55-4.2-9.57-2.94-19.16-.67-28.87,2.64-11.3,5.79-22.55,7.33-34,1.15-8.56.21-17.42,0-26.14-.16-6.36-.2-12.66,2.1-18.71,4.06-10.69,11.53-14.72,21-14.95,9-.21,17.08,6.38,19.92,16C70.55,346.16,70.67,346.64,70.79,347.12Z"/><path d="M134.11,371.91a25.49,25.49,0,0,1,7.26,1.15,17.94,17.94,0,0,1,11,9.39,12.48,12.48,0,0,1-5.55,16.48,61.65,61.65,0,0,1-9.71,3.93c-7.16,2.33-10.43,7.75-10.86,15.41-.4,7.15-.15,14.33-.09,21.5.1,13.22.39,26.45.34,39.67,0,6.31-.78,12.57-6.42,16.81a14.56,14.56,0,0,1-20.44-2.67,26.8,26.8,0,0,1-6.16-17c0-10.91.6-21.82.85-32.72.23-9.88.46-19.75.42-29.63,0-7.59-4.47-12.26-10.81-15.84a28.13,28.13,0,0,1-8.55-7.27c-4.71-6.24-1.61-13.5,4.19-16.76a29.48,29.48,0,0,1,8.56-3.09,25.74,25.74,0,0,1,5.81-.44Z"/><path d="M370.85,163.55c-.1,6.18-1.46,10.5-5.89,13.2s-8.89,1.71-12.91-.73a37.58,37.58,0,0,1-7.93-6.59c-5.11-5.5-10.29-10.82-18.26-11.63-7.77-.8-15.88-1.68-22.73,2.68-4.07,2.58-6.82,7.18-10.32,10.72-2.75,2.78-5.36,6-8.68,7.85-9.37,5.21-17.49-2.39-19.06-9.81-1.34-6.35.62-12.28,2.44-18.17a572.34,572.34,0,0,1,24.25-63c2.93-6.58,5.65-13.27,9-19.6,3.59-6.72,9.12-11.32,17.06-12.17,4.11-.45,7.77,1.1,11,3.38,6.87,4.86,10.1,12.28,12.74,19.83,5,14.38,9.45,29,14.51,43.36,3.85,11,8.36,21.68,12.44,32.56C369.67,158.4,370.31,161.6,370.85,163.55Z"/><path d="M109.29,58.72c-1.55,13.22.79,24.93,4.42,36.51,3.31,10.57,4.5,21.29.63,32-5,13.76-15.5,21.61-28.94,25.75a104.19,104.19,0,0,1-19.62,4c-11.36,1.17-22.76,2.26-34.26,1A34.74,34.74,0,0,1,1.09,129.21C-1,116,.41,102.84,1.48,89.71,2.77,73.76,4.3,57.83,6.22,42a111.24,111.24,0,0,1,4.61-22C14.65,8.59,23.57,2.46,35.19,1,49.53-.84,63.92-.38,77.67,4.56,95.54,11,106,23.81,108.41,42.77,109.12,48.37,109.05,54.07,109.29,58.72Z"/><path d="M246.27,11.73c8.66.6,15.81,3.82,20.9,11a16.4,16.4,0,0,1,3.26,10.08c-.19,6-4.47,10.08-11.45,11.36-4.72.88-9.49,1.67-14.1,2.95-11.26,3.13-17,11.82-17.65,23.09-.76,13.15,5.77,23,18.69,27.82,4.76,1.75,9.68,3,14.46,4.74s8.84,4.11,10.06,9.44c1.31,5.73-2.06,11.77-8.2,15-8.43,4.46-17.4,4.81-26.57,3.31-10.69-1.74-20-6.09-27.47-14.17-8.11-8.82-11.56-19.54-12.11-31.21a90.12,90.12,0,0,1,11.34-48.7c7-12.71,17.5-21.31,32.1-24.12C241.74,12,244,11.93,246.27,11.73Z"/><path d="M159,178.36c-7.47.26-14.87.27-21.89-2.78-8.82-3.84-13.83-10.85-15.11-20.13a102.2,102.2,0,0,1-.64-19.08c.62-11.73,1.68-23.45,2.82-35.14.71-7.29,1.62-14.59,3-21.78C129.4,67.38,135.9,61,148.07,59.2a69.69,69.69,0,0,1,29.17,2,20.93,20.93,0,0,1,5.39,2.43c9.1,5.79,9.25,17,.32,23.5-2.36,1.72-4.93,3.16-7.41,4.71-3.83,2.39-4.62,5.06-2.38,8.93,1.55,2.68,3.48,5.15,5,7.82,5.62,9.69,4.27,16.08-4.66,22.75-1.72,1.29-3.46,2.55-5.17,3.86-4.27,3.28-3.89,8.2,1,10.51,3.65,1.72,7.66,2.71,11.23,4.55a30,30,0,0,1,8.07,5.82c4.34,4.64,3.6,11.25-1.24,15.38-3.75,3.19-8.31,4.52-13,5.22C169.32,177.45,164.15,177.82,159,178.36Z"/><path d="M585.94,131.27c-7.15.25-14.24.25-21-2.67-8.45-3.67-13.24-10.38-14.47-19.27a96.83,96.83,0,0,1-.61-18.26c.59-11.22,1.6-22.44,2.7-33.63.68-7,1.55-14,2.83-20.85,2.15-11.54,8.37-17.67,20-19.38a66.59,66.59,0,0,1,27.92,1.94,19.66,19.66,0,0,1,5.16,2.33c8.71,5.54,8.85,16.25.31,22.48-2.26,1.65-4.72,3-7.1,4.51-3.66,2.29-4.42,4.85-2.27,8.55,1.48,2.57,3.33,4.93,4.81,7.49,5.38,9.27,4.09,15.39-4.46,21.77-1.65,1.23-3.31,2.44-4.94,3.7-4.09,3.14-3.73,7.84,1,10,3.49,1.65,7.33,2.59,10.75,4.36a28.5,28.5,0,0,1,7.72,5.57c4.16,4.43,3.45,10.77-1.19,14.71-3.59,3.06-7.95,4.33-12.45,5C595.8,130.39,590.86,130.75,585.94,131.27Z"/><path d="M511.82,185c-12.51.14-23.26-1.73-32.61-8.53-5.64-4.1-9.67-9.49-10.48-16.6-.76-6.6,2.5-11.68,7.26-15.9,1.15-1,2.4-1.92,3.63-2.86,5.16-3.94,6-6.95,3.27-13-2.84-6.31-6.12-12.45-8.64-18.88-5.12-13.08-5.54-26.13,1.89-38.62,6.32-10.62,16.4-15.6,28-17.82A37.7,37.7,0,0,1,534,59.21c5.55,3.91,9.28,9.21,10.31,16,.74,4.87-1.71,11.55-8.47,15.54-1.9,1.12-3.87,2.12-5.74,3.27-3.4,2.1-4.21,4.63-2.13,8a74.81,74.81,0,0,0,5.74,7.59c5.1,6.4,10.83,12.38,15.21,19.22,7.59,11.83,6.41,26.33-1.85,37.68-7,9.59-16.38,15.09-27.9,17.19C516.32,184.31,513.47,184.69,511.82,185Z"/><path d="M467.29,74.46c-.4,13.31-1,26.7-5.73,39.28-5.49,14.47-14.32,26.41-29.76,31.3-17,5.4-33.11,2.3-47.6-8s-20.12-24.91-20.57-42a160.84,160.84,0,0,1,7.08-52.45,28.35,28.35,0,0,1,5.85-10c4.14-4.64,10.23-4,14.07.89,4.1,5.23,5,11.57,5.89,17.87,1,7,1.56,14,3.17,20.88a30.39,30.39,0,0,0,5.57,11.52c6.9,8.73,19.79,8,25.21-3.34,3.15-6.56,4.66-13.89,7.19-20.76,2-5.34,3.79-10.88,6.72-15.69,4.34-7.14,11.63-7,16.81-.31,4.32,5.59,5.4,12.29,6,19C467.59,66.57,467.29,70.53,467.29,74.46Z"/><path d="M305.42,234.13c-.4,13.31-1,26.69-5.74,39.28-5.49,14.47-14.31,26.41-29.76,31.3-17,5.39-33.1,2.29-47.6-8s-20.12-24.9-20.56-42a160.57,160.57,0,0,1,7.08-52.45,28.29,28.29,0,0,1,5.85-10c4.13-4.63,10.22-4,14.06.89,4.11,5.23,5,11.58,5.9,17.87,1,7,1.55,14.05,3.16,20.88a30.4,30.4,0,0,0,5.57,11.52c6.9,8.73,19.8,8,25.22-3.34,3.14-6.56,4.66-13.88,7.19-20.75,2-5.35,3.79-10.88,6.72-15.69,4.34-7.14,11.62-7,16.81-.31,4.32,5.58,5.4,12.28,6,19C305.71,226.23,305.42,230.19,305.42,234.13Z"/><path d="M610.26,287.6c-8.56.3-17,.31-25.07-3.19-10.1-4.39-15.84-12.42-17.31-23.05a116.41,116.41,0,0,1-.73-21.85c.71-13.43,1.92-26.85,3.23-40.24.81-8.35,1.86-16.7,3.39-24.94,2.57-13.82,10-21.15,24-23.19a79.67,79.67,0,0,1,33.41,2.32,23.8,23.8,0,0,1,6.17,2.78c10.42,6.63,10.59,19.44.37,26.9-2.71,2-5.65,3.62-8.49,5.4-4.39,2.74-5.29,5.8-2.72,10.23,1.78,3.07,4,5.89,5.76,9,6.43,11.09,4.89,18.41-5.34,26.05-2,1.47-4,2.92-5.92,4.42-4.89,3.76-4.45,9.38,1.16,12,4.18,2,8.78,3.1,12.87,5.21a34.24,34.24,0,0,1,9.24,6.67c5,5.31,4.12,12.88-1.42,17.61-4.3,3.65-9.51,5.18-14.9,6C622.06,286.56,616.14,287,610.26,287.6Z"/><path d="M467.47,193.64a27.32,27.32,0,0,1-.13,12.46q-1.32,5.66-2.66,11.23a42.36,42.36,0,0,0-.19,19.49c.87,3.87,2.1,7.68,2.81,11.58,1.14,6.3.55,12.33-5.14,16.39-7.6,5.42-20.61,3.83-25.39-7.06-2.56-5.85-1.79-11.72-.41-17.65,1.62-6.91,3.54-13.79,4.49-20.79.7-5.24.12-10.65,0-16-.09-3.89-.11-7.74,1.29-11.44,2.48-6.53,7.05-9,12.87-9.14,5.48-.13,10.43,3.9,12.17,9.78C467.28,192.88,467.38,193.26,467.47,193.64Z"/><path d="M427.49,386a35.3,35.3,0,0,1-.1,16.32c-1.15,4.94-2.3,9.83-3.48,14.72a55.1,55.1,0,0,0-.25,25.38c1.14,5,2.74,10,3.66,15.08,1.48,8.19.71,16.05-6.7,21.34-9.89,7.06-26.83,5-33.05-9.2-3.35-7.62-2.34-15.25-.54-23,2.1-9,4.61-17.95,5.84-27.08.92-6.81.16-13.87,0-20.81-.12-5.06-.16-10.07,1.67-14.89,3.23-8.51,9.18-11.72,16.76-11.9,7.14-.17,13.59,5.08,15.85,12.74C427.27,385.13,427.39,385.56,427.49,386Z"/><path d="M477.66,229.8c.86-7.55,1.66-15.12,2.92-22.6.87-5.13,2.72-10,6.67-13.77,5.17-5,11.93-4.94,16.79.39a35.35,35.35,0,0,1,5.26,6.86c5.71,10.69,14.68,9.63,22.56,3.46,4.3-3.37,8.57-6.79,13.09-9.85a15.84,15.84,0,0,1,12-2.84,11.69,11.69,0,0,1,9.17,14.22c-1.48,6.33-5.37,11.31-9.22,16.3-4,5.18-7.9,10.34-9.22,17-1.48,7.6.41,14.36,4.64,20.49,4.36,6.33,9.33,12.24,13.64,18.61a50.61,50.61,0,0,1,5.69,11.22A11.66,11.66,0,0,1,559,304.74a29.72,29.72,0,0,1-15-7.06c-4.88-4.06-9.31-8.67-14.28-12.62a27.9,27.9,0,0,0-8.61-4.33,8,8,0,0,0-9.51,4.15c-1.81,3.5-3.15,7.23-4.76,10.82-2.12,4.73-5.13,8.67-10.26,10.36-5.95,2-12.92-1.1-17.1-7.24-3.35-4.94-4.61-10.53-5.16-16.32-.06-.67-.11-1.34-.16-2a110,110,0,0,1,.34-18.06Z"/><path d="M421.69,192.8c-.57,11.23-1.38,22.46-1.65,33.71-.28,11.57.57,23,6,33.65,4.51,8.81,12,14.2,20.26,18.76,5.7,3.13,11.75,5.73,17.14,9.32,12,8,11.69,21.46-.9,28.47A72.26,72.26,0,0,1,442.12,324c-12.81,2.6-25.83,3.21-38.51-1.2-17.25-6-27-18.57-30.3-36.16-2.75-14.73-1.38-29.47.83-44.2s3.41-29.48,5.79-44.11a198.23,198.23,0,0,1,6.75-26.74,21.56,21.56,0,0,1,6.1-9c7.73-7,17.38-4.74,22.59,4.88C418.56,173.45,421,184.59,421.69,192.8Z"/><path d="M155.53,324.17c-11.66-.24-19.95-1.77-27.45-6.26-11.07-6.62-17.43-16.61-18.94-29.28a76.71,76.71,0,0,1,12.74-53.1c6.6-9.84,15.88-16.17,27.89-17.84,7.56-1.05,14.5.89,20.82,4.82A61.75,61.75,0,0,1,197,255.67c3.87,11.2,2.9,22.29-.43,33.34a52.36,52.36,0,0,1-17.68,26.32C171.16,321.52,162.3,324.22,155.53,324.17Zm.14-40c3.41.07,6.19-1.67,7-4.61a12.39,12.39,0,0,0-2.78-12.36C157,264,152,263.5,149.15,266.09s-3.64,7.62-2,11.91A9,9,0,0,0,155.67,284.19Z"/><path d="M587.65,446.27c-10.92-.22-18.69-1.65-25.72-5.86A35.55,35.55,0,0,1,544.18,413a71.94,71.94,0,0,1,11.94-49.76c6.19-9.22,14.88-15.15,26.14-16.72a28.73,28.73,0,0,1,19.5,4.52,57.84,57.84,0,0,1,24.74,31.07c3.62,10.49,2.72,20.88-.41,31.24A49,49,0,0,1,609.53,438C602.3,443.79,594,446.32,587.65,446.27Zm.13-37.46c3.2.07,5.8-1.56,6.6-4.32a11.57,11.57,0,0,0-2.6-11.57c-2.75-3.07-7.4-3.5-10.1-1.07S578.26,399,579.77,403A8.47,8.47,0,0,0,587.78,408.81Z"/><path d="M261.19,373.14c1.15-9,2.62-18,4.65-26.89a23.06,23.06,0,0,1,5.44-9.66c7-7.79,17.17-6.77,22.12,2.51,2.57,4.81,3.44,10.52,5.14,15.8,1.31,4.11,2.29,8.4,4.18,12.24,3.73,7.6,10.19,11.6,18.67,11.48s15.57-5.5,18.47-13.87c1.86-5.38,3-11,5-16.33a26.52,26.52,0,0,1,4.89-8.49c5.64-6.35,13.38-6.16,19.47-.13s8.35,13.84,8.81,22c.83,14.67,1.18,29.37,1.48,44.06.2,9.73.22,19.47-.07,29.2-.23,7.72-1,15.49-6.22,21.88-6.05,7.41-16.41,7.87-22.05.11-4.08-5.62-6.86-12.23-9.88-18.56-3.66-7.66-8.81-13.69-17.13-16.16-12.52-3.72-22.42.75-27.08,12.78-1.83,4.75-2.41,10-4.19,14.76-1.57,4.18-3.24,8.79-6.24,11.88-7.74,8-17.75,4.11-23.41-3.57-4.62-6.27-6-13.72-6.44-21.27-.15-2.33-.18-4.68-.17-7,0-6.13.37-12.25.95-18.35Z"/><path d="M660.72,359.93a80.27,80.27,0,0,1,16.62.55,42.78,42.78,0,0,1,16.8,5.76c13.4,8.37,21.35,20.19,21.18,36.49-.07,6.16-2.43,11.87-5,17.38-3.89,8.48-4.22,16.88-.65,25.54,1.82,4.43,3.62,9,2.91,13.94-1,7-7.55,11.05-14.36,9.15-6.3-1.76-10.89-6-15.63-10.17a73.86,73.86,0,0,0-8.61-6.82c-4.9-3.13-9.59-2.11-13,2.57-1.64,2.28-2.95,4.79-4.47,7.17-1.94,3-4.4,5.51-7.94,6.52-4.55,1.29-10-1.17-13-5.54a29.57,29.57,0,0,1-4.77-15.18c-1-15.1.68-30,2.92-44.93.62-4.14.57-8.38,1.22-12.52a94.42,94.42,0,0,1,3-14.7c3-9.15,9.75-13.9,19.17-14.92C658.36,360.09,659.54,360,660.72,359.93Z"/><path d="M189.7,438.29c-10.32.11-19.19-1.43-26.91-7-4.65-3.38-8-7.84-8.65-13.7-.63-5.45,2.07-9.63,6-13.12.94-.84,2-1.59,3-2.36,4.26-3.25,4.93-5.74,2.7-10.72-2.34-5.21-5.05-10.27-7.13-15.58-4.23-10.79-4.57-21.56,1.56-31.86,5.21-8.76,13.53-12.87,23.12-14.71a31.13,31.13,0,0,1,24.6,5.33,19.38,19.38,0,0,1,8.5,13.24c.61,4-1.41,9.53-7,12.82-1.56.93-3.19,1.75-4.74,2.7-2.8,1.73-3.47,3.82-1.75,6.64a60.65,60.65,0,0,0,4.74,6.27c4.2,5.27,8.93,10.21,12.55,15.85,6.25,9.76,5.28,21.73-1.53,31.09-5.76,7.92-13.51,12.45-23,14.19C193.41,437.75,191.06,438.07,189.7,438.29Z"/><path d="M464.68,455c-10.32.11-19.19-1.43-26.9-7-4.66-3.38-8-7.84-8.66-13.7-.62-5.45,2.07-9.63,6-13.12.95-.84,2-1.59,3-2.36,4.26-3.25,4.94-5.74,2.7-10.72-2.34-5.21-5.05-10.27-7.13-15.58-4.22-10.79-4.57-21.56,1.56-31.86,5.21-8.76,13.53-12.87,23.13-14.71A31.12,31.12,0,0,1,483,351.22a19.43,19.43,0,0,1,8.51,13.24c.6,4-1.41,9.53-7,12.82-1.56.93-3.19,1.75-4.73,2.7-2.81,1.73-3.47,3.82-1.76,6.64a63.63,63.63,0,0,0,4.74,6.27c4.2,5.27,8.93,10.21,12.55,15.85,6.26,9.76,5.29,21.73-1.52,31.09-5.76,7.92-13.52,12.45-23,14.19C468.39,454.44,466,454.76,464.68,455Z"/><path d="M548.27,322.72a25,25,0,0,1,6.93,1.1,17.13,17.13,0,0,1,10.54,9,11.9,11.9,0,0,1-5.29,15.72,59.57,59.57,0,0,1-9.26,3.74c-6.83,2.23-10,7.4-10.37,14.71-.38,6.81-.14,13.67-.08,20.5.09,12.62.37,25.24.33,37.85,0,6-.75,12-6.13,16a13.89,13.89,0,0,1-19.5-2.54,25.61,25.61,0,0,1-5.88-16.2c0-10.41.58-20.81.81-31.22.22-9.42.44-18.84.4-28.26,0-7.24-4.26-11.69-10.31-15.11a26.87,26.87,0,0,1-8.15-6.94c-4.5-6-1.54-12.88,4-16a28,28,0,0,1,8.16-2.94,25.11,25.11,0,0,1,5.54-.43Z"/><path d="M127.05,196.32c-.3,7-4.54,15.37-9.25,23.55-7.11,12.33-15.2,24.1-20.27,37.59-4.29,11.44-5.34,23.16-4.81,35.23A84.32,84.32,0,0,1,92,308.25c-1.21,8.46-5.78,15-14.09,17.45-9.19,2.76-17.33-.35-23.93-7.07-6-6.13-8.74-13.93-9.88-22.25-1.65-12-2.84-24-4.6-35.92C36.92,243,30,227,22.26,211.25a111.09,111.09,0,0,1-7.34-20.79c-1.78-6.82.5-13,6-17.47,5-4.12,10.66-4,16.58-1.69,8.33,3.21,13.92,9.72,19.78,15.9,8.53,9,17.18,10.07,26.71,3,2.55-1.9,4.76-4.25,7.27-6.2,3-2.33,6-4.86,9.3-6.6C114.34,170.21,126.92,178,127.05,196.32Z"/><path d="M785.26,358.86c-.21,5-3.27,11.08-6.66,17-5.13,8.89-11,17.37-14.61,27.09-3.1,8.25-3.85,16.7-3.47,25.4a61.76,61.76,0,0,1-.53,11.21c-.87,6.1-4.17,10.79-10.15,12.58-6.63,2-12.5-.25-17.26-5.1-4.34-4.41-6.29-10-7.12-16-1.19-8.61-2.05-17.27-3.31-25.88-1.85-12.6-6.81-24.13-12.41-35.47a79.16,79.16,0,0,1-5.29-15c-1.29-4.91.36-9.34,4.33-12.59,3.63-3,7.68-2.86,12-1.21,6,2.31,10,7,14.26,11.46,6.14,6.48,12.38,7.26,19.25,2.14,1.83-1.36,3.42-3.06,5.23-4.47a46.1,46.1,0,0,1,6.71-4.75C776.1,340,785.17,345.65,785.26,358.86Z"/></g></g></svg>