<svg xmlns="http://www.w3.org/2000/svg" viewBox="0 0 651.41 507.2"><g id="Layer_2" data-name="Layer 2"><g id="Layer_1-2" data-name="Layer 1"><path d="M424.19,148.42c-.09,5.75-1.36,9.78-5.48,12.29s-8.28,1.59-12-.68a35,35,0,0,1-7.39-6.13c-4.76-5.13-9.58-10.08-17-10.84-7.23-.74-14.78-1.57-21.17,2.5-3.78,2.4-6.35,6.68-9.6,10-2.56,2.59-5,5.6-8.09,7.32-8.73,4.85-16.29-2.23-17.75-9.15-1.25-5.91.57-11.43,2.27-16.91a530.7,530.7,0,0,1,22.59-58.72C353.27,72,355.8,65.73,359,59.83c3.34-6.25,8.49-10.54,15.88-11.33,3.83-.42,7.24,1,10.25,3.15,6.4,4.52,9.41,11.43,11.86,18.46,4.68,13.4,8.8,27,13.51,40.38,3.59,10.21,7.79,20.2,11.59,30.33C423.09,143.63,423.69,146.61,424.19,148.42Z"/><path d="M176.23,54.69c-1.44,12.31.74,23.22,4.12,34,3.08,9.84,4.19,19.83.58,29.8-4.64,12.81-14.43,20.12-27,24a96.52,96.52,0,0,1-18.27,3.75c-10.59,1.09-21.2,2.11-31.91.95a32.36,32.36,0,0,1-28.34-26.84c-2-12.32-.63-24.55.36-36.79C77,68.69,78.46,53.85,80.24,39.06a104.36,104.36,0,0,1,4.29-20.44C88.09,8,96.4,2.29,107.22.91,120.57-.78,134-.35,146.78,4.24c16.64,6,26.38,17.94,28.63,35.59C176.07,45,176,50.35,176.23,54.69Z"/><path d="M93.37,291.3c-1.32,11.3.68,21.3,3.78,31.19,2.83,9,3.85,18.19.53,27.34-4.25,11.75-13.23,18.46-24.72,22a88,88,0,0,1-16.76,3.44c-9.71,1-19.44,1.94-29.27.87a29.67,29.67,0,0,1-26-24.62c-1.81-11.3-.58-22.53.33-33.75,1.11-13.62,2.42-27.24,4.05-40.8a96.29,96.29,0,0,1,3.94-18.76c3.26-9.74,10.89-15,20.82-16.24,12.24-1.56,24.54-1.16,36.29,3.05,15.26,5.48,24.2,16.46,26.26,32.65C93.23,282.45,93.17,287.32,93.37,291.3Z"/><path d="M308.17,10.92c8.07.56,14.72,3.56,19.46,10.28a15.24,15.24,0,0,1,3,9.38c-.18,5.57-4.16,9.39-10.66,10.59-4.4.81-8.84,1.55-13.14,2.74-10.48,2.92-15.82,11-16.43,21.5-.71,12.25,5.37,21.45,17.41,25.91,4.42,1.64,9,2.85,13.46,4.42s8.24,3.83,9.37,8.79c1.22,5.34-1.92,11-7.63,14-7.86,4.15-16.21,4.47-24.75,3.08-10-1.62-18.67-5.67-25.58-13.19-7.55-8.22-10.77-18.2-11.28-29.07A83.86,83.86,0,0,1,272,34c6.55-11.83,16.3-19.84,29.9-22.46C304,11.13,306.08,11.11,308.17,10.92Z"/><path d="M226.91,119.83c-7,.24-13.85.25-20.39-2.59-8.21-3.57-12.88-10.1-14.07-18.75a94.15,94.15,0,0,1-.6-17.77c.58-10.92,1.56-21.83,2.63-32.73.66-6.78,1.51-13.58,2.76-20.28,2.09-11.23,8.14-17.2,19.47-18.86a64.86,64.86,0,0,1,27.17,1.89,18.91,18.91,0,0,1,5,2.26c8.48,5.39,8.62,15.81.3,21.88-2.2,1.6-4.59,2.94-6.9,4.39-3.57,2.22-4.3,4.71-2.21,8.32,1.44,2.49,3.24,4.79,4.68,7.28,5.23,9,4,15-4.34,21.19-1.61,1.2-3.23,2.37-4.81,3.59-4,3.06-3.63,7.63.94,9.79C240,91,243.69,92,247,93.68a27.6,27.6,0,0,1,7.52,5.42c4,4.31,3.35,10.47-1.16,14.32-3.49,3-7.73,4.21-12.11,4.86C236.51,119,231.7,119.33,226.91,119.83Z"/><path d="M622.41,122.25c-6.66.23-13.26.24-19.51-2.48-7.86-3.42-12.33-9.67-13.47-18a90.21,90.21,0,0,1-.57-17c.55-10.46,1.49-20.9,2.51-31.33.63-6.49,1.45-13,2.64-19.41,2-10.75,7.79-16.46,18.64-18a62,62,0,0,1,26,1.81A18.42,18.42,0,0,1,643.46,20c8.11,5.16,8.24,15.13.28,20.94-2.1,1.54-4.39,2.82-6.6,4.2-3.41,2.13-4.12,4.52-2.12,8,1.38,2.38,3.1,4.58,4.49,7,5,8.63,3.8,14.33-4.16,20.27-1.54,1.15-3.09,2.28-4.61,3.45-3.81,2.92-3.46,7.3.91,9.36,3.25,1.54,6.82,2.41,10,4.06a26.31,26.31,0,0,1,7.19,5.19c3.88,4.13,3.21,10-1.1,13.7-3.35,2.85-7.41,4-11.6,4.65C631.6,121.44,627,121.77,622.41,122.25Z"/><path d="M549.46,172.24c-11.66.14-21.66-1.61-30.37-7.94-5.25-3.81-9-8.84-9.77-15.46-.7-6.15,2.34-10.87,6.77-14.81,1.07-.95,2.24-1.79,3.37-2.66,4.81-3.67,5.57-6.48,3-12.1-2.64-5.88-5.7-11.59-8-17.58-4.76-12.18-5.15-24.34,1.77-36,5.88-9.88,15.26-14.52,26.1-16.59a35.14,35.14,0,0,1,27.76,6,22,22,0,0,1,9.6,14.94c.68,4.54-1.6,10.75-7.9,14.47-1.76,1-3.6,2-5.34,3-3.17,2-3.92,4.31-2,7.5a72.37,72.37,0,0,0,5.34,7.07c4.75,6,10.09,11.52,14.17,17.89,7.06,11,6,24.52-1.72,35.09-6.5,8.94-15.26,14.06-26,16C553.64,171.64,551,172,549.46,172.24Z"/><path d="M509.11,69.35c-.37,12.39-.89,24.86-5.34,36.58-5.11,13.48-13.32,24.59-27.71,29.15-15.87,5-30.83,2.14-44.33-7.43S413,104.46,412.57,88.53a149.86,149.86,0,0,1,6.6-48.85,26.36,26.36,0,0,1,5.45-9.34c3.85-4.32,9.52-3.73,13.1.83,3.82,4.87,4.62,10.78,5.49,16.64,1,6.49,1.44,13.09,2.94,19.45A28.51,28.51,0,0,0,451.34,78c6.43,8.13,18.44,7.42,23.48-3.11,2.93-6.1,4.34-12.92,6.7-19.33,1.83-5,3.53-10.13,6.26-14.61,4-6.65,10.82-6.53,15.65-.29,4,5.21,5,11.45,5.62,17.72C509.39,62,509.11,65.68,509.11,69.35Z"/><path d="M429.52,409.73a35.18,35.18,0,0,1,0,16.48c-1.16,5-2.32,9.94-3.51,14.88a55.3,55.3,0,0,0-.26,25.52c1.15,5.08,2.76,10.06,3.68,15.17,1.49,8.25.72,16.15-6.73,21.46-9.95,7.1-27,5-33.24-9.25-3.36-7.66-2.36-15.33-.54-23.11,2.11-9.05,4.64-18.05,5.87-27.23.92-6.85.17-13.94,0-20.93-.12-5.08-.16-10.13,1.68-15,3.25-8.56,9.24-11.79,16.85-12,7.19-.17,13.67,5.11,15.94,12.81C429.32,409,429.43,409.35,429.52,409.73Z"/><path d="M199.87,382.43a35.31,35.31,0,0,1,0,16.48c-1.17,5-2.33,9.94-3.52,14.88a55.43,55.43,0,0,0-.25,25.52c1.14,5.08,2.75,10.06,3.67,15.17,1.5,8.24.72,16.15-6.73,21.46-9.95,7.1-27,5-33.24-9.25-3.36-7.66-2.35-15.34-.54-23.11,2.12-9.05,4.64-18.05,5.87-27.23.93-6.85.17-14,0-20.93-.12-5.08-.15-10.13,1.69-15,3.25-8.56,9.23-11.79,16.84-12,7.19-.17,13.67,5.1,15.94,12.81C199.68,381.66,199.78,382.05,199.87,382.43Z"/><path d="M486.83,383.58a22.32,22.32,0,0,1,6.28,1,15.54,15.54,0,0,1,9.55,8.12,10.79,10.79,0,0,1-4.79,14.25,54.28,54.28,0,0,1-8.4,3.4c-6.19,2-9,6.7-9.39,13.32-.35,6.18-.13,12.39-.08,18.58.09,11.44.34,22.87.3,34.3,0,5.45-.68,10.87-5.55,14.53a12.6,12.6,0,0,1-17.67-2.3,23.14,23.14,0,0,1-5.33-14.69c0-9.43.52-18.86.74-28.29.19-8.53.39-17.07.36-25.61,0-6.56-3.86-10.59-9.35-13.69a24.48,24.48,0,0,1-7.39-6.29c-4.07-5.39-1.39-11.67,3.63-14.49a25.14,25.14,0,0,1,7.4-2.66,22.84,22.84,0,0,1,5-.39Z"/><path d="M313.1,267.19c-10.47-.21-17.92-1.59-24.66-5.62a34.11,34.11,0,0,1-17-26.3,68.89,68.89,0,0,1,11.45-47.7c5.93-8.84,14.26-14.52,25.05-16a27.54,27.54,0,0,1,18.7,4.33,55.43,55.43,0,0,1,23.71,29.79c3.47,10.05,2.61,20-.39,29.94a47,47,0,0,1-15.87,23.65C327.14,264.81,319.18,267.24,313.1,267.19Zm.13-35.91c3.06.07,5.55-1.49,6.32-4.14a11.12,11.12,0,0,0-2.49-11.1c-2.64-2.94-7.1-3.34-9.69-1s-3.27,6.84-1.82,10.69A8.1,8.1,0,0,0,313.23,231.28Z"/><path d="M449.79,200.72c-.35,11.84-.85,23.76-5.1,35-4.89,12.88-12.74,23.5-26.48,27.85-15.17,4.8-29.47,2.05-42.37-7.09s-17.91-22.17-18.3-37.39a142.93,142.93,0,0,1,6.3-46.68,25.1,25.1,0,0,1,5.21-8.92c3.68-4.13,9.1-3.57,12.51.78,3.66,4.66,4.42,10.31,5.25,15.91.91,6.2,1.38,12.51,2.82,18.58a26.93,26.93,0,0,0,5,10.25c6.14,7.77,17.61,7.09,22.44-3,2.79-5.84,4.14-12.35,6.39-18.47,1.75-4.76,3.38-9.68,6-14,3.87-6.36,10.35-6.25,15-.28,3.85,5,4.81,10.93,5.37,16.93C450.06,193.69,449.79,197.22,449.79,200.72Z"/><path d="M286.37,149.58c-.23,5.44-3.53,12-7.2,18.32-5.53,9.6-11.83,18.75-15.76,29.25-3.35,8.9-4.16,18-3.75,27.41a65.42,65.42,0,0,1-.58,12.11c-.94,6.58-4.49,11.64-11,13.58-7.15,2.14-13.48-.28-18.62-5.51-4.69-4.76-6.8-10.84-7.69-17.31-1.28-9.3-2.21-18.66-3.57-27.94-2-13.61-7.36-26.05-13.4-38.3A85.64,85.64,0,0,1,199.13,145c-1.39-5.3.38-10.09,4.67-13.59,3.92-3.2,8.3-3.09,12.9-1.31,6.48,2.5,10.83,7.56,15.39,12.37,6.64,7,13.37,7.84,20.79,2.32,2-1.48,3.7-3.31,5.65-4.83a50.88,50.88,0,0,1,7.24-5.14C276.48,129.26,286.27,135.32,286.37,149.58Z"/><path d="M338.39,377.82c-6.33.22-12.61.23-18.56-2.36-7.47-3.25-11.72-9.2-12.81-17.07a85.72,85.72,0,0,1-.54-16.18c.52-9.94,1.42-19.88,2.39-29.79.6-6.18,1.37-12.37,2.51-18.47,1.91-10.23,7.41-15.66,17.73-17.17a59,59,0,0,1,24.74,1.72,17.57,17.57,0,0,1,4.57,2.06c7.71,4.9,7.84,14.39.27,19.92-2,1.46-4.18,2.68-6.29,4-3.24,2-3.91,4.29-2,7.58,1.32,2.27,2.95,4.36,4.27,6.63,4.76,8.21,3.62,13.63-4,19.29-1.46,1.09-2.93,2.16-4.38,3.27-3.62,2.78-3.3,6.95.86,8.91,3.1,1.46,6.5,2.29,9.53,3.86a25.22,25.22,0,0,1,6.84,4.94c3.68,3.92,3.05,9.53-1.05,13-3.18,2.71-7.05,3.84-11,4.43C347.13,377.05,342.75,377.36,338.39,377.82Z"/><path d="M134.42,335.33c-6.33.22-12.61.22-18.56-2.36-7.48-3.25-11.72-9.2-12.81-17.07a85.72,85.72,0,0,1-.54-16.18c.52-10,1.42-19.88,2.39-29.8.6-6.18,1.37-12.36,2.51-18.46,1.9-10.23,7.41-15.66,17.73-17.17A58.84,58.84,0,0,1,149.88,236a17.57,17.57,0,0,1,4.57,2.06c7.71,4.9,7.84,14.39.27,19.91-2,1.46-4.18,2.68-6.29,4-3.24,2-3.91,4.29-2,7.57,1.32,2.28,3,4.37,4.27,6.64,4.76,8.21,3.62,13.63-4,19.29-1.46,1.09-2.93,2.16-4.38,3.27-3.62,2.78-3.3,6.94.86,8.91,3.1,1.46,6.5,2.29,9.53,3.86a25.19,25.19,0,0,1,6.84,4.93c3.68,3.93,3,9.54-1.06,13-3.17,2.71-7,3.83-11,4.42C143.16,334.56,138.78,334.87,134.42,335.33Z"/><path d="M493.37,374.51c-6.33.22-12.61.22-18.56-2.36-7.48-3.25-11.72-9.2-12.81-17.07a85.72,85.72,0,0,1-.54-16.18c.52-9.95,1.42-19.88,2.39-29.8.6-6.18,1.37-12.36,2.51-18.46,1.9-10.23,7.41-15.66,17.73-17.17a59,59,0,0,1,24.74,1.72,17.57,17.57,0,0,1,4.57,2.06c7.71,4.9,7.84,14.39.27,19.91-2,1.47-4.18,2.68-6.29,4-3.24,2-3.91,4.29-2,7.58,1.32,2.27,2.95,4.36,4.27,6.63,4.76,8.21,3.62,13.63-4,19.29-1.46,1.09-2.93,2.16-4.38,3.27-3.62,2.78-3.3,6.95.86,8.91,3.1,1.46,6.5,2.29,9.53,3.86a25.4,25.4,0,0,1,6.84,4.93c3.68,3.93,3.05,9.54-1.06,13-3.17,2.71-7,3.83-11,4.42C502.11,373.74,497.73,374.05,493.37,374.51Z"/><path d="M299.49,287a38.27,38.27,0,0,1-.05,17.9c-1.27,5.42-2.52,10.8-3.82,16.16a60.24,60.24,0,0,0-.28,27.72c1.25,5.51,3,10.92,4,16.47,1.62,8.95.78,17.53-7.31,23.31-10.81,7.71-29.31,5.45-36.11-10.05-3.64-8.32-2.55-16.66-.58-25.1,2.3-9.82,5-19.61,6.38-29.57,1-7.44.18-15.15,0-22.73-.14-5.52-.17-11,1.83-16.26,3.52-9.29,10-12.8,18.29-13,7.81-.18,14.85,5.54,17.31,13.91C299.28,286.12,299.39,286.53,299.49,287Z"/><path d="M207.51,257.3c-.45,8.94-1.1,17.87-1.31,26.81-.23,9.21.45,18.3,4.8,26.78,3.59,7,9.51,11.29,16.11,14.92,4.54,2.49,9.35,4.55,13.64,7.41,9.52,6.36,9.3,17.08-.72,22.65a57.43,57.43,0,0,1-16.27,5.83c-10.18,2.07-20.54,2.55-30.63-1C179.41,356,171.64,346,169,332c-2.19-11.71-1.1-23.44.66-35.16s2.71-23.45,4.61-35.08a157,157,0,0,1,5.36-21.28,17.07,17.07,0,0,1,4.86-7.13c6.15-5.58,13.82-3.78,18,3.88C205,241.91,207,250.77,207.51,257.3Z"/><path d="M316,459.78c0,8.8.08,17.61,0,26.41a26.56,26.56,0,0,1-3.76,14.09c-3.8,6.1-11.47,8.34-18.76,5.36s-12.85-8.68-18.18-14.41c-4.58-4.92-9.08-9.91-13.88-14.6a22.51,22.51,0,0,0-6.71-4.3c-4.19-1.82-7.54-.57-9.17,3.66-1.38,3.55-1.93,7.42-2.88,11.14-1,4.06-1.55,8.38-3.31,12.1-4.31,9.13-14.49,9.53-20.15,1.12-4.16-6.16-5.2-13.16-4.9-20.28.42-9.87,1.41-19.71,2.15-29.56.68-9.05,1.09-18.13,2.16-27.13.64-5.45,1.51-11.13,3.7-16.08,4.91-11.1,16-13,25.2-5,4.52,3.9,7.42,8.91,10.39,13.94,3.33,5.61,6.6,11.27,10.3,16.64a16.7,16.7,0,0,0,5.94,4.86c3.72,2,7.61.7,9.14-3.25,1.85-4.81,2.81-10,4.42-14.87,1.11-3.37,2.21-6.89,4.11-9.83,5-7.78,12.91-7.26,18.47-.44,4.28,5.24,5.6,11.59,5.73,18.11.21,10.78.06,21.56.06,32.34Z"/><path d="M421.09,383.14a21.9,21.9,0,0,1-15.79.61,25.94,25.94,0,0,1-12.34-9c-6.76-8.66-10.36-18.78-12.78-29.27-3.53-15.38-6.72-30.84-9.77-46.32a41.81,41.81,0,0,1-.34-11.4c.51-5.83,3.9-10.05,8.64-10.88,5.37-.94,9.31,2,12.42,5.87,4.58,5.75,6,12.88,8.3,19.66a76.24,76.24,0,0,0,6,14.39c3.48,5.9,10,5.93,13.49,0,3.43-5.72,6-12,8.84-18,2.34-5,4.34-10.14,8.37-14.12,3.17-3.12,6.75-5.62,11.4-4.42,5.61,1.44,8.32,5.74,9.42,11.16,1.3,6.31-.32,12.36-2.37,18.16-4.35,12.34-9.25,24.49-13.73,36.79-2.39,6.54-4.3,13.25-6.56,19.84-2.34,6.82-5.55,13.14-12.39,16.52Z"/></g></g></svg>