<svg xmlns="http://www.w3.org/2000/svg" viewBox="0 0 679.73 284.34"><g id="Layer_2" data-name="Layer 2"><g id="Layer_1-2" data-name="Layer 1"><path d="M304.34,98.9c-.08,4.91-1.16,8.34-4.68,10.49s-7.07,1.36-10.27-.58a30.07,30.07,0,0,1-6.3-5.24c-4.07-4.37-8.18-8.6-14.53-9.25-6.17-.63-12.62-1.34-18.07,2.13-3.23,2.06-5.42,5.71-8.2,8.53-2.19,2.21-4.26,4.77-6.91,6.24-7.45,4.15-13.91-1.9-15.15-7.8-1.07-5,.49-9.76,1.94-14.45a451.81,451.81,0,0,1,19.28-50.13c2.33-5.23,4.49-10.55,7.18-15.59,2.85-5.34,7.25-9,13.56-9.68a12.71,12.71,0,0,1,8.75,2.69c5.47,3.87,8,9.77,10.13,15.77,4,11.44,7.52,23,11.54,34.48,3.07,8.72,6.65,17.24,9.9,25.89C303.4,94.8,303.91,97.35,304.34,98.9Z"/><path d="M86.91,46.7c-1.23,10.51.63,19.82,3.52,29,2.63,8.4,3.57,16.93.49,25.44-4,10.94-12.32,17.19-23,20.48a82.14,82.14,0,0,1-15.6,3.2c-9,.94-18.1,1.81-27.25.82A27.62,27.62,0,0,1,.87,102.75c-1.69-10.52-.55-21,.3-31.41C2.21,58.66,3.42,46,5,33.36A89.16,89.16,0,0,1,8.61,15.9C11.65,6.83,18.74,2,28,.78,39.38-.67,50.83-.3,61.76,3.62,76,8.72,84.29,18.94,86.21,34,86.78,38.46,86.72,43,86.91,46.7Z"/><path d="M200.43,38.69c6.89.48,12.57,3,16.62,8.78a13,13,0,0,1,2.59,8c-.15,4.76-3.55,8-9.1,9-3.76.69-7.54,1.32-11.22,2.34-8.95,2.49-13.51,9.4-14,18.36-.6,10.46,4.59,18.32,14.87,22.12,3.78,1.4,7.69,2.43,11.49,3.77s7,3.28,8,7.51c1,4.56-1.64,9.36-6.51,11.95-6.71,3.54-13.84,3.82-21.14,2.63-8.5-1.39-15.94-4.85-21.84-11.27-6.45-7-9.19-15.54-9.63-24.82a71.59,71.59,0,0,1,9-38.73c5.6-10.1,13.92-16.94,25.54-19.17C196.83,38.87,198.64,38.86,200.43,38.69Z"/><path d="M130.81,140.8c-6.8.23-13.54.24-19.93-2.54-8-3.49-12.59-9.88-13.76-18.33a91.65,91.65,0,0,1-.58-17.37c.56-10.69,1.52-21.36,2.56-32,.65-6.63,1.48-13.28,2.7-19.83,2-11,8-16.82,19-18.44a63.46,63.46,0,0,1,26.56,1.84,18.9,18.9,0,0,1,4.91,2.22c8.29,5.27,8.43,15.46.29,21.39-2.15,1.57-4.49,2.88-6.75,4.29-3.48,2.18-4.2,4.61-2.16,8.14,1.41,2.44,3.17,4.68,4.58,7.12C153.4,86.1,152.17,91.92,144,98c-1.56,1.17-3.15,2.32-4.7,3.51-3.89,3-3.54,7.46.92,9.57,3.33,1.57,7,2.46,10.23,4.14a27.19,27.19,0,0,1,7.35,5.31c4,4.22,3.28,10.24-1.13,14-3.41,2.9-7.56,4.12-11.85,4.75C140.2,140,135.5,140.31,130.81,140.8Z"/><path d="M486,92.59c-5.68.2-11.32.2-16.66-2.12a18.63,18.63,0,0,1-11.5-15.32,77.42,77.42,0,0,1-.49-14.52c.47-8.93,1.28-17.85,2.15-26.75.54-5.55,1.23-11.1,2.25-16.58,1.71-9.18,6.66-14,15.92-15.41a52.92,52.92,0,0,1,22.2,1.54A15.78,15.78,0,0,1,504,5.28c6.93,4.41,7.05,12.92.25,17.88-1.8,1.31-3.75,2.41-5.64,3.59-2.92,1.82-3.52,3.85-1.81,6.8,1.18,2,2.65,3.91,3.83,6,4.27,7.37,3.25,12.24-3.55,17.32-1.31,1-2.63,1.94-3.93,2.93-3.25,2.5-3,6.24.77,8,2.78,1.31,5.83,2.06,8.55,3.46a22.58,22.58,0,0,1,6.14,4.44c3.31,3.52,2.74,8.55-.94,11.7-2.86,2.43-6.32,3.44-9.9,4C493.84,91.89,489.91,92.18,486,92.59Z"/><path d="M422.47,116.8c-9.59.11-17.83-1.41-25-6.9-4.33-3.31-7.42-7.68-8-13.42-.59-5.34,1.92-9.44,5.57-12.86.88-.82,1.84-1.55,2.78-2.31,4-3.19,4.58-5.62,2.51-10.5-2.18-5.11-4.7-10.06-6.63-15.27-3.92-10.57-4.25-21.12,1.45-31.22C400,15.74,407.68,11.71,416.6,9.91a27.78,27.78,0,0,1,22.85,5.22,19.16,19.16,0,0,1,7.91,13c.56,3.94-1.31,9.34-6.5,12.57-1.45.9-3,1.71-4.4,2.64-2.61,1.7-3.23,3.75-1.63,6.51a61.34,61.34,0,0,0,4.4,6.14c3.91,5.17,8.3,10,11.66,15.54,5.82,9.56,4.92,21.28-1.42,30.46a32.4,32.4,0,0,1-21.39,13.9C425.92,116.27,423.73,116.59,422.47,116.8Z"/><path d="M386.82,51.25c-.31,11.16-.76,22.38-4.56,32.92C377.9,96.3,370.88,106.3,358.6,110.4c-13.55,4.52-26.33,1.93-37.85-6.68s-16-20.87-16.36-35.21A141.67,141.67,0,0,1,310,24.56a24.14,24.14,0,0,1,4.65-8.4c3.29-3.89,8.14-3.36,11.19.74,3.26,4.38,3.95,9.7,4.69,15,.81,5.84,1.23,11.78,2.51,17.5A26.28,26.28,0,0,0,337.49,59c5.49,7.31,15.74,6.66,20.05-2.8,2.5-5.5,3.71-11.64,5.72-17.4,1.56-4.47,3-9.11,5.34-13.15,3.46-6,9.25-5.88,13.37-.26,3.44,4.69,4.3,10.3,4.8,15.95C387.06,44.64,386.82,48,386.82,51.25Z"/><path d="M589.69,33.79a32.86,32.86,0,0,1-.05,15.4c-1.09,4.66-2.17,9.29-3.28,13.9a51.77,51.77,0,0,0-.24,23.84c1.07,4.74,2.57,9.39,3.44,14.17,1.39,7.7.67,15.08-6.29,20.05-9.3,6.63-25.21,4.69-31.06-8.64-3.14-7.16-2.19-14.33-.5-21.59,2-8.45,4.33-16.87,5.49-25.44.86-6.4.15-13,0-19.55-.11-4.75-.14-9.46,1.58-14,3-8,8.62-11,15.74-11.18,6.71-.16,12.76,4.77,14.89,12C589.5,33.08,589.6,33.43,589.69,33.79Z"/><path d="M633.9,2.15a21.85,21.85,0,0,1,6.06,1A15,15,0,0,1,649.18,11a10.42,10.42,0,0,1-4.63,13.76,52.17,52.17,0,0,1-8.1,3.27c-6,1.95-8.71,6.47-9.07,12.87-.33,6-.12,12-.08,17.94.09,11,.33,22.07.29,33.11,0,5.26-.65,10.49-5.36,14a12.16,12.16,0,0,1-17.06-2.22A22.37,22.37,0,0,1,600,89.52c0-9.1.51-18.2.71-27.31.19-8.24.39-16.48.35-24.72,0-6.33-3.73-10.23-9-13.22a23.57,23.57,0,0,1-7.13-6.07c-3.94-5.21-1.35-11.26,3.5-14a24.74,24.74,0,0,1,7.14-2.57,21.27,21.27,0,0,1,4.85-.37Z"/><path d="M231.88,238c-.08,5.08-1.2,8.64-4.84,10.86s-7.32,1.4-10.63-.6a30.78,30.78,0,0,1-6.52-5.42c-4.21-4.53-8.47-8.91-15-9.58-6.39-.66-13.06-1.38-18.7,2.21-3.35,2.12-5.61,5.91-8.49,8.82-2.27,2.29-4.41,4.94-7.15,6.46-7.71,4.29-14.39-2-15.68-8.08-1.11-5.22.5-10.1,2-14.95a471.23,471.23,0,0,1,20-51.88c2.41-5.41,4.65-10.92,7.44-16.13,3-5.53,7.5-9.32,14-10a13.11,13.11,0,0,1,9.05,2.78c5.66,4,8.32,10.11,10.49,16.32,4.14,11.84,7.78,23.86,11.94,35.69,3.18,9,6.89,17.84,10.24,26.8A68.52,68.52,0,0,1,231.88,238Z"/><path d="M506.26,247.17c-5.72.19-11.38.2-16.74-2.13A18.71,18.71,0,0,1,478,229.64a78.05,78.05,0,0,1-.49-14.58c.48-9,1.28-17.93,2.16-26.88.54-5.57,1.24-11.15,2.26-16.65,1.72-9.22,6.69-14.12,16-15.48a53.08,53.08,0,0,1,22.3,1.55,15.58,15.58,0,0,1,4.12,1.85c7,4.43,7.08,13,.25,18-1.81,1.31-3.77,2.41-5.67,3.6-2.93,1.83-3.53,3.87-1.82,6.83,1.19,2.05,2.66,3.93,3.85,6,4.3,7.41,3.27,12.3-3.56,17.4-1.32,1-2.65,2-4,3-3.27,2.51-3,6.26.77,8,2.79,1.32,5.86,2.07,8.59,3.48a22.8,22.8,0,0,1,6.17,4.46c3.32,3.54,2.75,8.59-1,11.75-2.87,2.44-6.35,3.46-10,4C514.14,246.47,510.19,246.75,506.26,247.17Z"/><path d="M654.85,235.93c-5.71.2-11.37.2-16.74-2.13a18.69,18.69,0,0,1-11.55-15.39,77.29,77.29,0,0,1-.49-14.59c.47-9,1.28-17.93,2.15-26.87.55-5.58,1.24-11.15,2.27-16.66,1.72-9.22,6.68-14.12,16-15.48a53.28,53.28,0,0,1,22.31,1.55,16.09,16.09,0,0,1,4.12,1.86c7,4.42,7.07,13,.24,18-1.8,1.32-3.77,2.42-5.67,3.6-2.92,1.83-3.52,3.88-1.81,6.84,1.19,2,2.66,3.93,3.85,6,4.29,7.4,3.26,12.29-3.57,17.39-1.32,1-2.65,1.95-4,2.95-3.27,2.51-3,6.27.78,8,2.79,1.31,5.85,2.07,8.59,3.48a22.92,22.92,0,0,1,6.17,4.45c3.32,3.54,2.75,8.6-.95,11.75-2.87,2.44-6.35,3.46-10,4C662.73,235.23,658.78,235.52,654.85,235.93Z"/><path d="M384.13,197.77c.85-6.62,1.93-13.24,3.42-19.75a16.9,16.9,0,0,1,4-7.1c5.14-5.72,12.61-5,16.25,1.85,1.88,3.53,2.52,7.73,3.77,11.61a63.88,63.88,0,0,0,3.07,9,14.23,14.23,0,0,0,13.71,8.43c6.29-.09,11.44-4,13.57-10.19,1.36-4,2.22-8.08,3.65-12a19.72,19.72,0,0,1,3.6-6.24c4.14-4.66,9.83-4.52,14.3-.1s6.14,10.17,6.47,16.18c.59,10.48.85,21,1.07,31.47.15,7.27.17,14.54,0,21.81-.15,5.85-.63,11.77-4.58,16.61-4.45,5.44-12.06,5.78-16.2.08-3-4.13-5-9-7.25-13.63-2.69-5.63-6.48-10.06-12.59-11.87-9.19-2.74-16.47.55-19.88,9.38-1.35,3.49-1.78,7.34-3.09,10.84-1.15,3.08-2.38,6.46-4.58,8.73-5.68,5.88-13,3-17.19-2.62-3.4-4.61-4.39-10.08-4.74-15.62-.08-1.34-.11-2.68-.12-4a148.73,148.73,0,0,1,.72-14.92Z"/><path d="M565.18,147a78.9,78.9,0,0,1,14.25.44c6.31.81,12.4,2.43,18,5.9,13.34,8.33,21.26,20.11,21.09,36.33-.07,6.14-2.43,11.82-4.94,17.31a30.42,30.42,0,0,0-.65,25.43c1.82,4.4,3.61,8.93,2.9,13.87a11.05,11.05,0,0,1-14.17,9.15c-6.34-1.73-10.94-6-15.69-10.16a74,74,0,0,0-8.57-6.79c-4.88-3.12-9.55-2.1-12.91,2.56-1.64,2.27-3,4.77-4.46,7.13-1.93,3-4.38,5.5-7.91,6.5-4.52,1.28-10-1.17-13-5.52-3.13-4.56-4.4-9.73-4.75-15.11-1-15,.68-29.9,2.91-44.73.62-4.13.57-8.35,1.21-12.47a96.26,96.26,0,0,1,3-14.64c2.94-9.11,9.71-13.83,19.09-14.86C562.1,147.19,563.64,147.09,565.18,147Z"/><path d="M266.61,284.33c-10.32.12-19.19-1.43-26.9-7-4.66-3.39-8-7.84-8.66-13.7-.62-5.45,2.07-9.64,6-13.12.95-.84,2-1.59,3-2.36,4.26-3.26,4.94-5.74,2.7-10.72-2.34-5.21-5.05-10.27-7.13-15.58C231.39,211,231,200.26,237.17,190c5.21-8.75,13.53-12.86,23.13-14.7a31.12,31.12,0,0,1,24.59,5.33,19.43,19.43,0,0,1,8.51,13.24c.6,4-1.41,9.52-7,12.82-1.56.93-3.19,1.75-4.73,2.7-2.81,1.73-3.47,3.82-1.76,6.64a62.35,62.35,0,0,0,4.74,6.26c4.2,5.28,8.93,10.21,12.55,15.86,6.26,9.76,5.29,21.73-1.52,31.09-5.76,7.92-13.52,12.45-23,14.19C270.32,283.8,268,284.12,266.61,284.33Z"/><path d="M382.64,127.46a28.46,28.46,0,0,1,5.66.85A18.13,18.13,0,0,1,400.46,138a12.42,12.42,0,0,1-5.52,16.39,61.36,61.36,0,0,1-9.66,3.9c-7.12,2.32-10.37,7.71-10.8,15.33-.4,7.1-.14,14.25-.09,21.37.1,13.16.39,26.31.34,39.46,0,6.26-.78,12.49-6.38,16.7A14.48,14.48,0,0,1,348,248.51a26.67,26.67,0,0,1-6.12-16.89c0-10.85.6-21.69.84-32.54.23-9.82.46-19.64.42-29.46,0-7.55-4.44-12.19-10.75-15.75a28.07,28.07,0,0,1-8.5-7.23c-4.68-6.21-1.6-13.42,4.17-16.67a30.38,30.38,0,0,1,12.12-3.57c6.9-.54,13.86-.18,20.8-.15.56,0,1.11,0,1.66,0Z"/><path d="M16.68,167.41c-.11-4.34.53-8.51,2.93-12.21,4.53-6.95,12.2-7.6,18.41-.84,3.39,3.69,5.38,8.7,7.84,13.19,1.94,3.54,3.35,7.41,5.53,10.78,2.55,4,7,4.58,10.83,1.72,4-3,7.54-6.53,11.62-9.34,7.86-5.41,14.63-4.24,21.51,2.11,3.7,3.41,6.68,7.6,10.06,11.37,4.72,5.28,9.85,4.94,13.51-1.21,2.62-4.41,4.68-9.16,6.92-13.78s4.85-8.83,9.2-11.85c9-6.26,20.5.87,21.54,10.91.72,6.92-1.78,13.21-4.21,19.46C146.81,202,140.58,216,136.48,230.89a140.67,140.67,0,0,1-6.25,18,16.16,16.16,0,0,1-12.06,10c-5.91,1.22-10.6-1.29-14.55-4.95-3.76-3.48-6.8-7.74-10.2-11.62-2.37-2.7-4.64-5.44-8.85-5.36-4,.08-5.79,2.9-7.69,5.59-3,4.27-5.49,9-8.86,13-9,10.55-23,9-31.47-.39-6.68-7.42-9.16-16.68-10.72-26.2-3-18.53-5.91-37.08-8.8-55.63C16.74,171.3,16.79,169.35,16.68,167.41Z"/></g></g></svg>