<svg xmlns="http://www.w3.org/2000/svg" xmlns:xlink="http://www.w3.org/1999/xlink" viewBox="0 0 831.59 516.82"><defs><style>.cls-1{fill:none;}.cls-2{clip-path:url(#clip-path);}.cls-3{fill:#1d1d1b;}</style><clipPath id="clip-path" transform="translate(0 0)"><rect class="cls-1" width="831.59" height="516.82"/></clipPath></defs><g id="Layer_2" data-name="Layer 2"><g id="Camada_1" data-name="Camada 1"><g class="cls-2"><path class="cls-3" d="M129.54,128.26c-.1,5.94-1.4,10.09-5.67,12.69s-8.55,1.64-12.41-.7a36.46,36.46,0,0,1-7.63-6.34c-4.92-5.29-9.9-10.41-17.57-11.19C78.79,122,71,121.1,64.39,125.3c-3.91,2.48-6.55,6.9-9.92,10.31-2.64,2.68-5.15,5.78-8.35,7.56-9,5-16.82-2.3-18.33-9.45-1.29-6.1.59-11.8,2.34-17.47A547.35,547.35,0,0,1,53.46,55.6c2.82-6.32,5.44-12.76,8.69-18.85C65.6,30.29,70.92,25.86,78.56,25c4-.43,7.47,1.06,10.58,3.25C95.75,33,98.86,40.1,101.39,47.36c4.84,13.85,9.1,27.89,14,41.72,3.71,10.54,8.05,20.86,12,31.32a81.12,81.12,0,0,1,2.22,7.86" transform="translate(0 0)"/><path class="cls-3" d="M619.76,475.47c-.08,5-1.18,8.52-4.78,10.72s-7.22,1.38-10.48-.59a30.6,30.6,0,0,1-6.44-5.36c-4.15-4.47-8.35-8.78-14.83-9.45-6.31-.64-12.89-1.36-18.46,2.18-3.3,2.1-5.54,5.83-8.38,8.71-2.23,2.26-4.35,4.88-7,6.38-7.61,4.23-14.2-1.94-15.47-8-1.09-5.15.49-10,2-14.75a463.47,463.47,0,0,1,19.69-51.19c2.38-5.34,4.59-10.78,7.33-15.92,2.92-5.45,7.4-9.19,13.85-9.88a13,13,0,0,1,8.94,2.74c5.58,3.95,8.2,10,10.34,16.1,4.08,11.69,7.68,23.54,11.79,35.22,3.13,8.9,6.79,17.6,10.1,26.44.92,2.45,1.43,5.05,1.87,6.63" transform="translate(0 0)"/><path class="cls-3" d="M205.2,48.28c-1.13,9.67.58,18.22,3.23,26.68,2.42,7.73,3.29,15.56.46,23.38-3.64,10.06-11.32,15.8-21.14,18.82a74.82,74.82,0,0,1-14.34,2.94c-8.31.86-16.63,1.66-25,.75a25.36,25.36,0,0,1-22.23-21.06c-1.55-9.66-.5-19.26.28-28.86,1-11.65,2.07-23.3,3.47-34.9a81.55,81.55,0,0,1,3.36-16c2.79-8.34,9.31-12.82,17.81-13.9,10.47-1.33,21-1,31,2.61,13.05,4.69,20.69,14.08,22.46,27.93.52,4.09.47,8.25.64,11.65" transform="translate(0 0)"/><path class="cls-3" d="M534.36,17.36c9.41.65,17.16,4.14,22.68,12a17.72,17.72,0,0,1,3.54,10.93c-.21,6.49-4.85,10.94-12.42,12.33-5.12.95-10.29,1.81-15.3,3.2-12.22,3.4-18.44,12.82-19.15,25.05-.83,14.27,6.26,25,20.28,30.18,5.16,1.91,10.5,3.32,15.69,5.15s9.59,4.46,10.91,10.24c1.42,6.22-2.23,12.78-8.89,16.3-9.15,4.84-18.88,5.21-28.84,3.59-11.59-1.89-21.75-6.61-29.8-15.37-8.8-9.57-12.54-21.2-13.14-33.87a97.79,97.79,0,0,1,12.3-52.84c7.64-13.79,19-23.11,34.84-26.16,2.39-.46,4.87-.48,7.3-.7" transform="translate(0 0)"/><path class="cls-3" d="M336.09,119.31c-7.44.26-14.81.27-21.79-2.77-8.78-3.82-13.76-10.8-15-20a101.13,101.13,0,0,1-.64-19c.62-11.68,1.67-23.34,2.81-35,.71-7.25,1.62-14.52,2.95-21.68,2.23-12,8.7-18.38,20.81-20.15a69.24,69.24,0,0,1,29,2,20.35,20.35,0,0,1,5.36,2.41c9.06,5.76,9.21,16.9.32,23.38-2.35,1.72-4.91,3.15-7.38,4.69-3.81,2.38-4.59,5-2.36,8.9,1.55,2.66,3.46,5.12,5,7.78,5.59,9.64,4.25,16-4.64,22.64-1.72,1.28-3.45,2.54-5.15,3.84-4.25,3.27-3.87,8.16,1,10.46,3.64,1.72,7.63,2.7,11.19,4.53a29.63,29.63,0,0,1,8,5.8c4.32,4.61,3.58,11.19-1.24,15.3-3.73,3.17-8.27,4.5-12.95,5.19-5.08.75-10.22,1.12-15.34,1.66" transform="translate(0 0)"/><path class="cls-3" d="M419,406.83c-6.26.22-12.47.22-18.35-2.33-7.4-3.22-11.6-9.1-12.67-16.88a84.65,84.65,0,0,1-.54-16c.52-9.83,1.41-19.66,2.36-29.46.6-6.11,1.36-12.23,2.49-18.26,1.88-10.11,7.33-15.49,17.53-17a58.32,58.32,0,0,1,24.46,1.7,17.53,17.53,0,0,1,4.52,2c7.63,4.85,7.76,14.23.27,19.69-2,1.45-4.14,2.65-6.22,3.95-3.21,2-3.87,4.25-2,7.49,1.3,2.25,2.92,4.32,4.22,6.56,4.71,8.12,3.58,13.48-3.91,19.07-1.44,1.08-2.9,2.14-4.33,3.24-3.58,2.75-3.26,6.87.85,8.81,3.06,1.44,6.42,2.27,9.42,3.81a25.09,25.09,0,0,1,6.76,4.89c3.65,3.88,3,9.43-1,12.89-3.14,2.67-7,3.79-10.9,4.37-4.29.64-8.62.95-12.93,1.4" transform="translate(0 0)"/><path class="cls-3" d="M360.59,257.65c-7.84.27-15.61.28-23-2.92-9.26-4-14.51-11.39-15.86-21.13a106.25,106.25,0,0,1-.67-20c.65-12.31,1.76-24.6,3-36.88.75-7.64,1.71-15.3,3.11-22.85,2.36-12.66,9.18-19.38,22-21.25a73,73,0,0,1,30.61,2.13,21.2,21.2,0,0,1,5.66,2.55c9.55,6.07,9.71,17.81.34,24.65-2.48,1.81-5.18,3.31-7.78,4.94-4,2.51-4.85,5.32-2.49,9.38,1.62,2.81,3.65,5.4,5.28,8.21,5.89,10.16,4.48,16.87-4.9,23.87-1.81,1.35-3.63,2.67-5.42,4-4.48,3.44-4.08,8.6,1.06,11,3.83,1.8,8,2.83,11.79,4.77a31.36,31.36,0,0,1,8.47,6.11c4.56,4.86,3.78,11.8-1.3,16.13-3.94,3.35-8.72,4.75-13.65,5.48-5.37.79-10.79,1.18-16.18,1.75" transform="translate(0 0)"/><path class="cls-3" d="M603.27,116.91c-6.79.24-13.52.24-19.89-2.53-8-3.49-12.57-9.86-13.74-18.3a92.88,92.88,0,0,1-.58-17.33c.56-10.66,1.52-21.31,2.56-31.94.65-6.62,1.48-13.25,2.7-19.79,2-11,7.94-16.78,19-18.4a63.23,63.23,0,0,1,26.51,1.84,19.14,19.14,0,0,1,4.9,2.21C633,17.93,633.13,28.1,625,34c-2.15,1.56-4.48,2.87-6.74,4.28-3.48,2.17-4.19,4.6-2.15,8.12,1.41,2.43,3.16,4.67,4.57,7.11,5.1,8.8,3.88,14.61-4.24,20.67-1.57,1.17-3.15,2.32-4.7,3.51-3.88,3-3.53,7.44.93,9.55,3.31,1.56,7,2.45,10.2,4.13a27.23,27.23,0,0,1,7.34,5.29c3.95,4.21,3.27,10.22-1.13,14-3.41,2.9-7.55,4.11-11.82,4.74-4.65.69-9.34,1-14,1.52" transform="translate(0 0)"/><path class="cls-3" d="M563.64,157.86a49.4,49.4,0,0,1,16.05.29,41.54,41.54,0,0,1,18.8,8.07,19.07,19.07,0,0,1,7.15,10.05c1.33,4.92-.19,8.92-3.86,12.18-3.35,3-7.25,3.24-11.28,1.67-4.54-1.76-8.91-4.07-13.55-5.47-11.39-3.41-22.93,1.54-28,12.3s-5.08,21.43,1.09,31.77c4.51,7.55,14.92,12.16,23.37,10.32a8.32,8.32,0,0,0,4.8-3.27c1.27-2-.63-3.8-1.86-5.42a74.24,74.24,0,0,1-5.1-6.58c-3.5-5.71-2.32-11.85,3.61-14.94,11-5.72,22.5-6.19,33.71-.57,6.56,3.29,9.07,9.52,8.56,16.49-.93,12.8-6.66,23.42-16.42,31.69a40.57,40.57,0,0,1-22.58,9.33,56.91,56.91,0,0,1-40.3-10.72C529.92,249.34,525,241.3,522.38,232c-5.83-20.63-1.84-39.64,10.59-56.77,6.78-9.35,16.75-14.28,27.83-16.82,1-.22,1.9-.39,2.84-.53" transform="translate(0 0)"/><path class="cls-3" d="M51.84,176.74a39.44,39.44,0,0,1-.06,18.49c-1.3,5.6-2.6,11.15-3.94,16.69a62.24,62.24,0,0,0-.29,28.63c1.29,5.69,3.09,11.28,4.13,17,1.67,9.25.81,18.12-7.55,24.08-11.16,8-30.27,5.63-37.29-10.38-3.77-8.59-2.64-17.2-.61-25.93,2.37-10.14,5.21-20.25,6.59-30.54,1-7.69.19-15.64,0-23.48-.14-5.7-.18-11.36,1.89-16.8,3.64-9.59,10.35-13.22,18.9-13.42,8.06-.19,15.33,5.72,17.88,14.37.12.42.24.85.35,1.28" transform="translate(0 0)"/><path class="cls-3" d="M116,264.4a33.72,33.72,0,0,1,0,15.76c-1.12,4.78-2.22,9.51-3.37,14.23a53.12,53.12,0,0,0-.24,24.41c1.09,4.86,2.64,9.62,3.52,14.51,1.43,7.89.69,15.44-6.44,20.53-9.52,6.79-25.81,4.8-31.8-8.85-3.21-7.33-2.25-14.67-.51-22.11,2-8.65,4.44-17.26,5.62-26,.88-6.55.15-13.34,0-20-.11-4.86-.14-9.69,1.62-14.32,3.1-8.18,8.83-11.27,16.11-11.45,6.87-.16,13.07,4.89,15.25,12.25.1.36.2.73.29,1.1" transform="translate(0 0)"/><path class="cls-3" d="M80.89,387.44a39.58,39.58,0,0,1-.06,18.49c-1.3,5.6-2.6,11.15-3.94,16.69a62.1,62.1,0,0,0-.29,28.63c1.28,5.69,3.09,11.28,4.13,17,1.67,9.25.8,18.12-7.56,24.08C62,500.3,42.91,498,35.89,482c-3.77-8.6-2.64-17.21-.61-25.93,2.37-10.15,5.21-20.25,6.59-30.55,1-7.68.19-15.64,0-23.47-.14-5.71-.18-11.37,1.89-16.81,3.64-9.59,10.35-13.22,18.9-13.42,8.06-.19,15.33,5.73,17.88,14.37.12.42.24.85.35,1.28" transform="translate(0 0)"/><path class="cls-3" d="M513.81,159.65a34,34,0,0,1,0,15.91c-1.12,4.82-2.24,9.59-3.39,14.36a53.52,53.52,0,0,0-.25,24.63c1.11,4.9,2.66,9.71,3.55,14.64,1.44,8,.7,15.59-6.5,20.72-9.6,6.85-26,4.85-32.08-8.93-3.25-7.39-2.27-14.8-.52-22.31,2-8.73,4.47-17.42,5.66-26.28.89-6.62.16-13.46,0-20.2-.12-4.91-.15-9.78,1.63-14.46,3.14-8.26,8.91-11.38,16.26-11.55,6.94-.16,13.19,4.93,15.39,12.36q.16.56.3,1.11" transform="translate(0 0)"/><path class="cls-3" d="M212.55,441.15c0,10.77-.75,21.54-.93,32.3a61.71,61.71,0,0,1-1.37,11.81C209,490.92,204.2,495.4,199.43,496c-4.35.49-11-3.8-12.91-9.06a126.19,126.19,0,0,1-3.69-14.09c-.63-2.69-.85-5.49-1.54-8.16-1.19-4.56-4-5.68-8.19-3.36-1.86,1-3.6,2.26-5.38,3.42-9.3,6.05-15.93,4.12-24.25-1.7-1.9-1.33-3.66-2.85-5.6-4.11-4.35-2.83-7.62-1.78-8.68,3.25-.9,4.3-.92,8.78-1.38,13.18-.5,4.75-.43,9.67-1.71,14.21-2.82,10.07-14,12.72-21.12,5.07a19.68,19.68,0,0,1-4.84-8.8,71.56,71.56,0,0,1-1.71-17.3c.67-16.6,1.85-33.18,3-49.75.49-7.2,1-14.42,2.15-21.53.78-5,2.89-9.63,7.4-12.6,6.79-4.49,13.7-2.39,19.08,2.78s8.26,11.76,11.59,18.16c2.29,4.42,4.6,8.86,7.24,13.07,4.72,7.52,12.76,6.85,17.42-.71,3.73-6,6.91-12.43,10.8-18.37,2.5-3.82,5.35-7.72,8.88-10.51,10.27-8.13,20.54-2,24,7.15a42.41,42.41,0,0,1,2.49,13.22c.35,10.57.12,21.16.12,31.74h0" transform="translate(0 0)"/><path class="cls-3" d="M471.9,78.07c0,8.1.07,16.2,0,24.3a24.5,24.5,0,0,1-3.46,13c-3.49,5.61-10.55,7.67-17.26,4.93s-11.82-8-16.72-13.26c-4.21-4.52-8.36-9.11-12.77-13.43a20.86,20.86,0,0,0-6.18-4c-3.85-1.67-6.93-.52-8.44,3.37-1.26,3.27-1.77,6.83-2.65,10.25-1,3.73-1.42,7.71-3,11.13-4,8.4-13.33,8.77-18.54,1-3.82-5.67-4.78-12.11-4.5-18.66.38-9.07,1.29-18.13,2-27.19.63-8.32,1-16.67,2-25,.59-5,1.39-10.24,3.4-14.79,4.52-10.21,14.72-11.94,23.19-4.62,4.16,3.59,6.82,8.2,9.56,12.82,3.06,5.16,6.07,10.37,9.47,15.31a15.56,15.56,0,0,0,5.47,4.48c3.42,1.81,7,.64,8.4-3,1.71-4.42,2.59-9.15,4.08-13.67a38.86,38.86,0,0,1,3.77-9c4.62-7.16,11.88-6.68,17-.41,3.93,4.83,5.15,10.67,5.27,16.67.19,9.91.05,19.83.05,29.75h0" transform="translate(0 0)"/><path class="cls-3" d="M706.67,438.25c0,7.18.06,14.36,0,21.53a21.7,21.7,0,0,1-3.06,11.49c-3.1,5-9.35,6.79-15.29,4.36s-10.47-7.07-14.81-11.74c-3.73-4-7.41-8.08-11.32-11.9a18.35,18.35,0,0,0-5.47-3.51c-3.41-1.48-6.14-.46-7.47,3-1.12,2.89-1.57,6-2.35,9.08-.85,3.3-1.26,6.82-2.69,9.86-3.52,7.44-11.81,7.76-16.43.91-3.38-5-4.23-10.73-4-16.53.33-8,1.14-16.06,1.75-24.09.55-7.37.88-14.77,1.75-22.1.53-4.44,1.23-9.08,3-13.11,4-9.05,13-10.58,20.54-4.1,3.68,3.19,6,7.27,8.47,11.36,2.71,4.58,5.38,9.19,8.39,13.57a13.59,13.59,0,0,0,4.84,4c3,1.6,6.2.57,7.45-2.65,1.51-3.92,2.29-8.11,3.6-12.11a34.85,34.85,0,0,1,3.35-8c4.09-6.34,10.52-5.92,15.05-.36,3.49,4.28,4.57,9.45,4.67,14.76.17,8.78.05,17.57.05,26.35h0" transform="translate(0 0)"/><path class="cls-3" d="M164.69,200.93c0,9.1.08,18.19,0,27.29a27.49,27.49,0,0,1-3.88,14.55c-3.93,6.3-11.85,8.61-19.39,5.54s-13.26-9-18.77-14.89c-4.73-5.08-9.39-10.23-14.34-15.08a23.13,23.13,0,0,0-6.93-4.44c-4.32-1.88-7.78-.59-9.48,3.78-1.42,3.67-2,7.67-3,11.51-1.08,4.19-1.6,8.65-3.42,12.49-4.45,9.43-15,9.84-20.81,1.16-4.29-6.37-5.37-13.6-5.06-21,.43-10.19,1.45-20.36,2.22-30.53.71-9.34,1.12-18.72,2.23-28,.67-5.63,1.56-11.5,3.82-16.61,5.07-11.47,16.53-13.41,26-5.19,4.66,4,7.66,9.21,10.73,14.4,3.43,5.79,6.82,11.64,10.63,17.18a17.34,17.34,0,0,0,6.14,5c3.85,2,7.86.72,9.44-3.36,1.91-5,2.91-10.28,4.57-15.35,1.14-3.49,2.28-7.13,4.24-10.16,5.19-8,13.34-7.51,19.08-.46,4.42,5.42,5.79,12,5.92,18.71.22,11.13.06,22.27.06,33.4h0" transform="translate(0 0)"/><path class="cls-3" d="M719.53,188.78c0,8.51.07,17,0,25.53a25.65,25.65,0,0,1-3.63,13.61c-3.67,5.89-11.09,8.06-18.13,5.18-7.19-2.94-12.41-8.39-17.57-13.93-4.42-4.75-8.77-9.57-13.41-14.1a21.72,21.72,0,0,0-6.48-4.16c-4-1.76-7.28-.55-8.87,3.54-1.33,3.43-1.86,7.17-2.78,10.77-1,3.92-1.5,8.09-3.19,11.68-4.17,8.83-14,9.21-19.48,1.09-4-6-5-12.72-4.72-19.6.4-9.53,1.35-19,2.07-28.56.66-8.74,1.05-17.51,2.08-26.21.63-5.27,1.46-10.76,3.58-15.54,4.74-10.73,15.46-12.54,24.35-4.86,4.37,3.78,7.17,8.62,10,13.47,3.22,5.43,6.38,10.89,9.95,16.08a16.13,16.13,0,0,0,5.75,4.7c3.59,1.9,7.35.68,8.82-3.14,1.79-4.65,2.72-9.62,4.28-14.36,1.07-3.26,2.13-6.67,4-9.51,4.85-7.51,12.47-7,17.85-.42,4.13,5.07,5.41,11.2,5.53,17.5.2,10.41,0,20.83,0,31.24h0" transform="translate(0 0)"/><path class="cls-3" d="M353.36,469.62c3.09.06,5.6-1.51,6.37-4.17a11.17,11.17,0,0,0-2.51-11.18c-2.65-3-7.14-3.37-9.75-1s-3.3,6.9-1.84,10.77a8.18,8.18,0,0,0,7.73,5.61m-.13,36.16c-10.54-.22-18-1.6-24.83-5.66a34.32,34.32,0,0,1-17.13-26.49,69.41,69.41,0,0,1,11.53-48c6-8.9,14.36-14.62,25.23-16.13a27.74,27.74,0,0,1,18.83,4.36,55.82,55.82,0,0,1,23.88,30c3.5,10.12,2.63,20.16-.39,30.16a47.35,47.35,0,0,1-16,23.81c-7,5.59-15,8-21.13,8" transform="translate(0 0)"/><path class="cls-3" d="M262.7,374.08c12,.45,23.41,2.59,33,10.44,9.89,8.11,16,18.5,16.83,31.36.62,9.1-2.58,17.26-8,24.62-6.86,9.36-16.67,13.64-27.36,16.77a65.44,65.44,0,0,0-12.85,5.63c-4.17,2.29-6,6.64-7.74,10.86-1.2,2.9-2.2,5.89-3.37,8.81-2.15,5.4-5.87,9.39-11.83,9.51s-9.95-3.47-12.74-8.51a34.66,34.66,0,0,1-3.91-15.17c-.94-16.38.9-32.57,3.26-48.73.93-6.42,1.09-13,2.28-19.33a51.54,51.54,0,0,1,4.46-14.12c3.7-7.2,10.42-10.52,18.29-11.45,3.21-.38,6.45-.47,9.67-.69" transform="translate(0 0)"/><path class="cls-3" d="M262.14,234.42c8.74,0,14.37-4.12,18.5-10.48s4.92-13.41,3.67-20.72c-1.8-10.49-7.29-18.39-17.07-22.94-7-3.26-14.22-.84-17.5,6.15a33.09,33.09,0,0,0-2.7,10.44c-.84,7.77-1.68,15.58-.23,23.39,1.38,7.4,7.13,14.81,15.33,14.16m-2.2,32.94a77.48,77.48,0,0,1-17.35.59,40.41,40.41,0,0,1-9.59-1.83,27.18,27.18,0,0,1-18.11-22.89c-1.19-10,.15-19.86,1-29.74,1-12.76,2.29-25.51,3.53-38.25.73-7.53,1.74-15,6.53-21.32,4.09-5.43,9.78-8,16.21-8.74a76.6,76.6,0,0,1,37.49,4.38c13.09,5.12,22.08,14.82,28.61,27a60.49,60.49,0,0,1,7.19,30.2c-.39,16.85-4.76,32.51-16.71,45.19a42.48,42.48,0,0,1-22.4,12.69c-5.4,1.16-10.88,1.93-16.37,2.71" transform="translate(0 0)"/><path class="cls-3" d="M428.87,418.11a71.64,71.64,0,0,1,12.93.4,39.55,39.55,0,0,1,16.27,5.35c12.09,7.56,19.28,18.23,19.12,32.94-.06,5.57-2.2,10.72-4.48,15.69a27.57,27.57,0,0,0-.58,23.06c1.64,4,3.27,8.1,2.62,12.58a10,10,0,0,1-12.85,8.29c-5.74-1.57-9.92-5.45-14.22-9.21a67.24,67.24,0,0,0-7.77-6.15c-4.43-2.83-8.66-1.91-11.71,2.32-1.48,2.06-2.67,4.32-4,6.46-1.75,2.74-4,5-7.17,5.89-4.1,1.16-9.05-1.06-11.76-5a26.66,26.66,0,0,1-4.3-13.7c-.87-13.63.61-27.11,2.63-40.56.56-3.74.52-7.57,1.1-11.3a85.83,85.83,0,0,1,2.74-13.27c2.67-8.26,8.8-12.55,17.3-13.47,1.39-.16,2.78-.25,4.17-.32" transform="translate(0 0)"/><path class="cls-3" d="M482,274.44a76,76,0,0,1,13.65.42,41.74,41.74,0,0,1,17.19,5.66c12.77,8,20.36,19.25,20.19,34.79-.06,5.88-2.32,11.31-4.73,16.57a29.16,29.16,0,0,0-.62,24.36c1.74,4.21,3.46,8.55,2.77,13.28a10.58,10.58,0,0,1-13.57,8.76c-6.06-1.66-10.47-5.76-15-9.73a71,71,0,0,0-8.21-6.5c-4.67-3-9.14-2-12.36,2.46-1.57,2.17-2.82,4.56-4.27,6.82-1.85,2.89-4.2,5.26-7.57,6.22-4.34,1.23-9.56-1.11-12.42-5.28a28.1,28.1,0,0,1-4.55-14.48c-.92-14.39.65-28.63,2.78-42.83.59-3.95.55-8,1.16-11.94a92,92,0,0,1,2.9-14c2.81-8.72,9.29-13.25,18.27-14.23,1.46-.16,2.93-.25,4.41-.33" transform="translate(0 0)"/><path class="cls-3" d="M253.83,135.16c-12,.13-22.37-1.67-31.37-8.2-5.42-3.95-9.3-9.14-10.08-16-.73-6.35,2.41-11.24,7-15.3,1.11-1,2.32-1.85,3.49-2.75,5-3.8,5.76-6.69,3.15-12.5-2.73-6.07-5.89-12-8.31-18.16-4.93-12.58-5.33-25.14,1.82-37.15,6.07-10.21,15.77-15,27-17.14a36.23,36.23,0,0,1,28.67,6.21c5.34,3.76,8.93,8.86,9.92,15.43.7,4.69-1.65,11.11-8.15,15-1.83,1.08-3.72,2-5.53,3.15-3.27,2-4,4.45-2,7.74a74.35,74.35,0,0,0,5.52,7.3c4.9,6.15,10.42,11.9,14.64,18.49,7.29,11.38,6.16,25.33-1.79,36.24C281,126.73,272,132,260.88,134c-2.72.5-5.46.87-7,1.12" transform="translate(0 0)"/><path class="cls-3" d="M155.06,384.8c-10,.11-18.64-1.39-26.14-6.84-4.52-3.28-7.75-7.61-8.4-13.3-.61-5.3,2-9.37,5.82-12.75.92-.82,1.93-1.54,2.91-2.29,4.14-3.17,4.79-5.58,2.62-10.42-2.27-5.06-4.91-10-6.93-15.13-4.1-10.49-4.44-20.95,1.52-31,5.06-8.51,13.14-12.5,22.47-14.29A30.24,30.24,0,0,1,172.82,284a18.84,18.84,0,0,1,8.26,12.86c.59,3.91-1.37,9.26-6.79,12.46-1.52.9-3.1,1.7-4.6,2.62-2.73,1.68-3.37,3.71-1.71,6.45a61.24,61.24,0,0,0,4.61,6.09c4.08,5.12,8.67,9.92,12.19,15.4,6.08,9.49,5.13,21.11-1.48,30.21-5.6,7.69-13.13,12.09-22.37,13.78-2.26.41-4.55.72-5.87.93" transform="translate(0 0)"/><path class="cls-3" d="M433.53,284.53c-10.55.12-19.61-1.46-27.5-7.19-4.76-3.45-8.15-8-8.84-14-.64-5.57,2.11-9.85,6.13-13.41,1-.86,2-1.63,3.05-2.41,4.36-3.33,5.05-5.87,2.76-11-2.39-5.32-5.16-10.49-7.28-15.92-4.32-11-4.68-22,1.59-32.57,5.33-9,13.83-13.15,23.63-15a31.83,31.83,0,0,1,25.14,5.44A19.86,19.86,0,0,1,460.9,192c.62,4.11-1.44,9.74-7.15,13.11-1.6.94-3.26,1.78-4.84,2.76-2.86,1.76-3.54,3.9-1.79,6.78a62.11,62.11,0,0,0,4.84,6.4c4.3,5.39,9.13,10.44,12.83,16.21,6.39,10,5.4,22.2-1.56,31.77-5.89,8.09-13.81,12.73-23.53,14.5-2.38.43-4.78.76-6.17,1" transform="translate(0 0)"/><path class="cls-3" d="M527.75,397.92a25.51,25.51,0,0,1,5.22.78,16.68,16.68,0,0,1,11.22,8.94,11.46,11.46,0,0,1-5.09,15.13,57.45,57.45,0,0,1-8.91,3.6c-6.57,2.14-9.58,7.12-10,14.14-.37,6.56-.14,13.16-.09,19.73.1,12.14.37,24.28.32,36.41,0,5.79-.72,11.53-5.89,15.42a13.36,13.36,0,0,1-18.76-2.44A24.61,24.61,0,0,1,490.15,494c0-10,.55-20,.78-30,.2-9.06.42-18.12.38-27.19,0-7-4.1-11.24-9.92-14.53a26.05,26.05,0,0,1-7.85-6.68c-4.32-5.73-1.47-12.38,3.85-15.38a28,28,0,0,1,11.19-3.29c6.36-.5,12.79-.17,19.2-.15.51,0,1,0,1.53,0Z" transform="translate(0 0)"/><path class="cls-3" d="M757.48,365.82a26.24,26.24,0,0,1,5.22.79,16.68,16.68,0,0,1,11.22,8.94,11.44,11.44,0,0,1-5.09,15.12,56.52,56.52,0,0,1-8.91,3.61c-6.57,2.14-9.58,7.11-10,14.14-.37,6.56-.14,13.15-.09,19.73.1,12.14.37,24.27.32,36.41,0,5.78-.72,11.53-5.89,15.42a13.37,13.37,0,0,1-18.76-2.44A24.63,24.63,0,0,1,719.88,462c0-10,.55-20,.78-30,.2-9.06.42-18.13.38-27.19,0-7-4.1-11.25-9.92-14.54a25.72,25.72,0,0,1-7.84-6.67c-4.33-5.73-1.48-12.39,3.85-15.38a27.79,27.79,0,0,1,11.18-3.29c6.36-.51,12.79-.18,19.2-.15.51,0,1,0,1.53.05Z" transform="translate(0 0)"/><path class="cls-3" d="M353.7,384.34a23.2,23.2,0,0,1-16.76.65,27.6,27.6,0,0,1-13.1-9.55c-7.17-9.19-11-19.93-13.56-31.06-3.75-16.32-7.13-32.73-10.36-49.16a43.36,43.36,0,0,1-.36-12.1c.53-6.18,4.13-10.66,9.16-11.54,5.7-1,9.88,2.1,13.18,6.23,4.86,6.1,6.39,13.67,8.81,20.86,1.77,5.22,3.62,10.55,6.4,15.27,3.69,6.26,10.58,6.29,14.32,0,3.64-6.07,6.35-12.7,9.37-19.12,2.49-5.28,4.61-10.76,8.89-15,3.36-3.32,7.17-6,12.09-4.7,6,1.53,8.83,6.1,10,11.85,1.37,6.7-.35,13.12-2.52,19.27-4.62,13.1-9.81,26-14.57,39-2.53,6.94-4.57,14.06-7,21.06-2.48,7.23-5.89,13.94-13.16,17.53-.29.15-.58.28-.88.41" transform="translate(0 0)"/><path class="cls-3" d="M605.23,284.57c-.18,4.3-2.79,9.45-5.68,14.47-4.37,7.57-9.34,14.8-12.45,23.09-2.64,7-3.28,14.22-3,21.64a52.58,52.58,0,0,1-.46,9.55c-.74,5.2-3.55,9.19-8.65,10.72-5.65,1.7-10.65-.21-14.7-4.34-3.7-3.77-5.37-8.56-6.07-13.67-1-7.34-1.75-14.73-2.82-22.06-1.58-10.74-5.81-20.56-10.58-30.23A67.7,67.7,0,0,1,536.36,281a10,10,0,0,1,3.69-10.73c3.09-2.53,6.55-2.43,10.18-1,5.12,2,8.55,6,12.15,9.76,5.24,5.53,10.56,6.19,16.41,1.83,1.57-1.16,2.92-2.61,4.46-3.81a39.52,39.52,0,0,1,5.72-4.05c8.45-4.4,16.18.38,16.26,11.63" transform="translate(0 0)"/><path class="cls-3" d="M45.12,1.07c3.15.24,5,1.4,6.05,3.79,1.18,2.73.26,4.81-1.85,6.58-.86.72-1.68,1.51-2.58,2.17-3.44,2.54-3.83,5.86-.89,9,2,2.15,3.81,4.29,4.33,7.35a8.43,8.43,0,0,1-5.27,9.36c-6.09,2.48-12.37-1.09-15.77-5.9-4.81-6.82-3.38-13.63.07-20.21A25,25,0,0,1,41.92,1.89a20,20,0,0,1,3.2-.82" transform="translate(0 0)"/><path class="cls-3" d="M0,24.43C.5,12.85,6.46,6.08,15.39,1.66c4.2-2.08,8.78-.41,9.48,4.12a6.37,6.37,0,0,1-1.09,4.13c-.92,1.35-2.45,2.29-3.72,3.41-3.34,2.95-3.95,5.15-.83,8.75,1,1.16,1.94,2.38,3,3.48,3.89,4,1,12.14-5.55,13.77C9.74,41.06,2.9,35.7,1,29.59a40.53,40.53,0,0,1-1-5.16" transform="translate(0 0)"/><path class="cls-3" d="M786.46,397.1c-3.14-.25-5-1.41-6-3.79-1.19-2.73-.27-4.81,1.85-6.59.86-.72,1.68-1.5,2.58-2.17,3.44-2.54,3.83-5.86.89-9-2-2.15-3.81-4.29-4.33-7.34a8.41,8.41,0,0,1,5.27-9.36c6.08-2.48,12.37,1.09,15.77,5.9,4.81,6.81,3.37,13.63-.07,20.2a25.08,25.08,0,0,1-12.72,11.37,21.13,21.13,0,0,1-3.2.82" transform="translate(0 0)"/><path class="cls-3" d="M831.59,373.74c-.5,11.58-6.47,18.35-15.39,22.76-4.2,2.08-8.78.41-9.48-4.12a6.37,6.37,0,0,1,1.09-4.13c.92-1.35,2.45-2.28,3.72-3.4,3.33-3,4-5.16.83-8.76-1-1.16-1.94-2.38-3-3.47-3.89-4-1-12.14,5.55-13.78,7-1.73,13.78,3.62,15.67,9.74a40.54,40.54,0,0,1,1,5.16" transform="translate(0 0)"/></g></g></g></svg>